<svg xmlns="http://www.w3.org/2000/svg" width="2200" height="1944.8" enable-background="new 0 0 2000 2000" viewBox="-100 -88.4 2200 1944.8"><path fill="#0e1237" d="M0 209.7c46.8 66.6 91.7 134.1 108.3 212.8 22.2 105.1-9.4 218.1 25 319.8 46.4 137.2 199.3 215.6 250.5 351.1 32.4 85.7 20.1 185.1 62.1 266.5 58.7 113.9 129.2 160.8 175.1 170 144.4 29 444.8 44.4 590.9 25.9 99-12.5 207.2-49.6 250.5-139.5 33.6-69.8 19.2-153.9 45.1-226.9 46.4-130.7 204-187.8 274.1-307.5 90.9-155.3 8.5-363 80.5-527.9 30.8-70.5 86.7-125.6 137.9-183.7V0H0v209.7z"/><path fill="#262e68" d="M697.4 1082.5c-17.4 7.5-36.3 18.8-39.1 37.5-4.7 31.1 35.8 47.1 67.1 50.5 236.1 25.5 474.8-15.8 711.8-1.2 24.7 1.5 50.2 4 74.3 9.7 5.1-12.3 11.1-23.9 17.9-35-12.2-4.7-23.9-10.8-34.6-18.7 19.6-10.7 40.8-16.5 62.8-19.5 20.4-23.8 44.2-45.4 68.9-66.6-201.4-.2-402.9-.4-604.3-.7-110.1.1-223.7.7-324.8 44zM499.2 58.2c-13.4-2.5-27-6-38-14.1C447 33.6 440.3 17.4 439.5 0H0v209.7c17.9 25.5 35.5 51 51.3 77.3 62.6-12.6 124.8-28.4 186.7-43.4 332.8-80.4 673.4-138.9 1015.7-131.7 104.8 2.2 219.8 15.1 292.4 90.7 16.2 16.9 30.3 38.9 27.5 62.1-5.1 41.5-56.4 57.3-98.1 61-312.6 27.7-624.6-98.2-936.7-65.2-58.8 6.2-129.7 30.6-137.7 89.2-5.7 42.2 28 81.7 67.7 97.2s83.8 12.6 126.3 9.5c134.1-9.8 268.2-19.6 402.2-29.4 87.1-6.4 188.6-7 244.2 60.3 11.5 13.9 20.5 31.3 19.2 49.3-3.4 45.4-61.9 60.5-107.4 63-191.8 10.5-384.7 11.2-574.6 39.8C429 662 279.4 703 147 775.4c42.4 86.7 125.4 150.9 185 228.4 64.8-14.8 129.3-32.1 193.8-47.8 300.2-73.2 608.1-114.3 917-122.4 99.1-2.6 203.1-.6 290.2 46.8 11.9 6.5 23.9 14.6 34 24.1 5.2-7.3 10.1-14.7 14.7-22.5 18.7-32 30.1-66.3 37-101.9-26.6-12.2-57.3-17.6-86.7-21.1-344-41.4-689.3 65.8-1035.7 58.9-14.9-.3-30.7-1.1-43-9.5s-18.5-27.3-8.8-38.5c4.9-5.7 12.6-8.1 19.8-10.1 217.7-61.4 456-33.2 666.9-114.7 51.1-19.7 107.4-58.7 102.1-113.2-4.7-48.2-55.2-76.9-100.5-93.9-221.1-83.1-454.8-64.9-686.3-61-36.7.6-88.7-18-76.8-52.7 5.8-16.9 25.3-24.4 42.6-28.8 280.2-71.7 564.3 93.8 853.2 107.8 74.5 3.6 155.2-5.3 211-54.7 62.4-55.2 77.5-152.4 47.3-230.1-18.4-47.1-51-87.1-91-118.3H849.4C734 40.1 617.3 80.3 499.2 58.2zM621 1530c141.7-10.3 321.1-41.3 462.8-51.6 120.9-8.8 242.3-17.7 362.3-34.5 6.2-8.6 11.7-17.7 16.4-27.5 19.2-39.8 22.7-84.2 27-128.6-345.1 51.9-716.4-37.6-1039.5 79.7 42.5 75.4 84.7 137.4 171 162.5z"/><circle cx="1178.6" cy="792.3" r="89.7" fill="#33c3df"/><path fill="#2d92a0" d="M1178.6 702.6c-49.4 0-89.4 39.9-89.6 89.2 9.3 6.7 22 9.7 27.4 19.7 4.3 8 2.6 18.5 8.3 25.6 3.3 4.2 8.6 6.3 12 10.5 5.4 6.6 4.8 16.9 10.9 22.9 5.1-5 8.4-11.6 9.8-18.6.7-3.5.9-7.1 2.3-10.4 1.7-4 5.1-7.3 5.9-11.6 1.1-6.2-3.5-11.8-8.1-16-6-5.5-12.7-10.3-19.8-14.4-2.2-1.3-4.6-2.5-6.3-4.5-1.7-1.9-2.6-4.8-1.6-7.1.6-1.3 1.8-2.6 1.6-4-.3-1.6-2.1-2.4-3.5-3.3-4.5-2.9-5.2-9.6-2.7-14.3 2.5-4.7 7.3-7.8 12.1-10.1s10-4 14.4-7c4.4-3.1 8-7.9 7.7-13.3-.2-3.9-2.3-7.5-2.3-11.3 0-3.9 4.1-8.1 7.3-6 3.2 2.2 1.6 8.2 5 10.1 1.7.9 3.8.3 5.6-.4 4.2-1.5 8.7-3.4 10.5-7.4.5-1.1.7-2.3 1.4-3.4.8-1.3 2.2-2.2 3.3-3.3 2.4-2.6 2.9-6.3 3-9.8v-.6c-4.8-.7-9.7-1.2-14.6-1.2z"/><path fill="#2d92a0" d="M1223.5 714.8c-5 .6-10.2 1.1-14.1 4.1-3.3 2.5-5.1 6.5-8.3 9.1-3.7 3-9 4-12.2 7.5-.7.8-1.3 1.7-1.1 2.7.2 1.1 1.1 1.8 1.8 2.6 2.4 2.9 1.5 7.3-.7 10.4-2.2 3-5.3 5.2-7.8 8-3.3 3.8-5.3 8.6-7.1 13.2-1.8 4.6-3.7 9.5-3.3 14.5.4 5 3.9 10.1 8.8 10.7 4.1.5 9-1.9 11.9 1.1.9.9 1.3 2.1 1.7 3.2 1.5 4.8 2.1 9.9 1.6 14.9-.2 2.5-.6 5 0 7.4 1.1 4.2 5.1 7 7.1 10.9 2.6 5.2 1.3 11.4 1.9 17.1.1.8.3 1.7 1 2 .6.3 1.3-.1 1.9-.4 6.5-3.5 12.5-7.9 17.8-13 1.8-1.7 3.5-3.5 4.5-5.6 2.9-5.8.6-12.7 1.3-19.2 1.2-10.9 10.6-18.8 19.7-24.9 5.8-3.9 12.1-7.9 16.9-12.9-4.1-27.1-20.4-50.1-43.3-63.4z"/><path fill="#2d92a0" d="M1101.4 812c-4.3-2-8.1-4.6-11.6-7.7 5.9 43.8 43.4 77.6 88.8 77.6 40 0 74-26.3 85.5-62.5-5 3.1-10.2 5.6-15.9 7.1-11.4 3.1-23.7 1.9-35.1 5.1-7.5 2.1-14.6 6.1-22.4 6.7-15.2 1.3-28.3-9.9-42.7-15.1-15.1-5.4-32.1-4.4-46.6-11.2z"/><path fill="#24747a" d="M1148 823.3c-9.4-3.4-19.7-4.3-29.5-6.2 1.8 6.9 1.8 14.5 6.2 20.1 3.3 4.2 8.6 6.3 12 10.5 5.4 6.6 4.8 16.9 10.9 22.9 5.1-5 8.4-11.6 9.8-18.6.7-3.5.9-7.1 2.3-10.4 1.5-3.5 4.3-6.5 5.5-10.1-5.7-3-11.4-6.1-17.2-8.2zM1213 831.6c-3.7 1-7.3 2.5-10.9 3.8 2.3 5.1 1.1 11.1 1.7 16.7.1.8.3 1.7 1 2 .6.3 1.3-.1 1.9-.4 6.5-3.5 12.5-7.9 17.8-13 1.8-1.7 3.5-3.5 4.5-5.6.9-1.9 1.3-4 1.4-6.1-5.8.6-11.7 1.1-17.4 2.6z"/><path fill="#ffe4ae" d="M343 210.7c0-52.6 35-97.1 83-111.4-10.5-3.1-21.7-4.8-33.2-4.8-64.2 0-116.2 52-116.2 116.2s52 116.2 116.2 116.2c11.5 0 22.7-1.7 33.2-4.8-48-14.3-83-58.8-83-111.4z"/><path fill="#8cd7f8" d="M510.8 630.6c-6.8-22-27.3-37.9-51.4-37.9-29.7 0-53.8 24.1-53.8 53.8 0 8.8 2.1 17 5.9 24.4 20.9-1.3 67.4-8 99.3-40.3zM422.3 685.4c9.7 9.2 22.7 14.9 37.1 14.9 28.2 0 51.3-21.7 53.6-49.3-19.9 9.6-60.6 28-90.7 34.4z"/><path fill="#ef443d" d="M559.9 609.6c-3.5-9.6-28.9-9.6-63-1.7 6.4 6.2 11.2 13.9 13.9 22.6-32 32.3-78.4 39-99.4 40.3-3.7-7.3-5.9-15.6-5.9-24.4 0-1.7.1-3.4.3-5-31 16-50.1 32.4-46.6 42 4.4 12 43.6 9 91.1-6.1 23.9-8.3 48.6-19.5 62.7-26.3 0 .2-.1.5-.1.7 31.1-16 50.5-32.5 47-42.1z"/><path fill="#8cd7f8" d="M1162.1 1150.3c10.6-20.4 7.2-46.1-10.1-63.1-21.2-20.9-55.3-20.6-76.1.6-6.2 6.3-10.4 13.7-12.9 21.5 15.9 13.8 53.7 41.6 99.1 41zM1060.5 1127.3c.4 13.3 5.7 26.5 16 36.6 20.1 19.8 51.8 20.5 72.8 2.5-20.8-7.1-62.8-22.5-88.8-39.1z"/><path fill="#ef443d" d="M1211.8 1169.8c4.2-9.3-13.8-27.1-43.7-45.4.2 8.9-1.8 17.8-6 25.9-45.4.6-83.2-27.2-99.1-41 2.5-7.8 6.7-15.2 12.9-21.5 1.2-1.2 2.4-2.3 3.7-3.4-33.3-10.3-58.5-12.1-62.7-2.8-5.3 11.7 24.7 37 69.2 59.6 22.8 10.9 48.3 20.2 63.1 25.3-.2.2-.4.3-.5.4 33.5 10.4 58.9 12.2 63.1 2.9z"/><path fill="#784c9e" d="M1806.1 75.7c4.6-17.2-2.1-36-18-46-19.4-12.3-45.1-6.5-57.4 12.9-3.6 5.7-5.6 12-6.2 18.3 14.3 7.8 47.4 22.7 81.6 14.8zM1725.6 74.9c2.5 10 8.7 19.1 18.1 25 18.4 11.6 42.5 7 55.4-10.1-16.9-1.8-51.2-6.6-73.5-14.9z"/><path fill="#5c6ab2" d="M1846.8 82.2c1.7-7.7-14.9-18.2-40.4-27.1 1.6 6.7 1.6 13.7-.3 20.5-34.2 7.9-67.3-6.9-81.6-14.7.6-6.3 2.6-12.6 6.2-18.3.7-1.1 1.4-2.1 2.2-3.2-26.8-2.3-46.2.5-47.8 8.2-2.1 9.7 24.8 23.9 62.1 33.6 19 4.5 39.8 7.3 51.8 8.7-.1.1-.2.3-.3.4 27 2.4 46.4-.4 48.1-8.1z"/><circle cx="689.6" cy="240.3" r="29.6" fill="#5f6cb2"/><circle cx="1734.4" cy="771.4" r="29.6" fill="#5f6cb2"/><circle cx="59.9" cy="64.8" r="19.5" fill="#784c9e"/><circle cx="1420" cy="793.1" r="29.6" fill="#f9a859"/><circle cx="1084.4" cy="1355.7" r="29.6" fill="#f9a859"/><circle cx="1621.2" cy="124.1" r="19.5" fill="#8cd7f8"/><circle cx="877.5" cy="863.4" r="12.1" fill="#5f6cb2"/><circle cx="969.8" cy="749.2" r="12.1" fill="#5f6cb2"/><circle cx="343.3" cy="435.1" r="12.1" fill="#8cd7f8"/><circle cx="459.5" cy="841.4" r="12.1" fill="#784c9e"/><circle cx="1053.7" cy="447.2" r="12.1" fill="#feface"/><circle cx="812.2" cy="491.6" r="12.1" fill="#feface"/><circle cx="315" cy="801" r="12.1" fill="#feface"/><circle cx="679.2" cy="508.1" r="12.1" fill="#fbaf34"/><circle cx="642.1" cy="339.4" r="12.1" fill="#fbaf34"/><circle cx="603.2" cy="775" r="12.1" fill="#784c9e"/><circle cx="1201.2" cy="749.2" r="12.1" fill="#f9a859"/><circle cx="1363.5" cy="355.9" r="12.1" fill="#8cd7f8"/><circle cx="657.7" cy="1154.7" r="12.1" fill="#8cd7f8"/><circle cx="1010" cy="196.4" r="12.1" fill="#8cd7f8"/><circle cx="405" cy="522" r="12.1" fill="#8cd7f8"/><circle cx="505.1" cy="64.8" r="12.1" fill="#8cd7f8"/><circle cx="575.3" cy="64.8" r="2.2" fill="#8cd7f8"/><circle cx="505.1" cy="240.3" r="2.2" fill="#8cd7f8"/><circle cx="232.3" cy="104.6" r="2.2" fill="#8cd7f8"/><circle cx="254.2" cy="388.3" r="2.2" fill="#8cd7f8"/><circle cx="1072.1" cy="859.4" r="2.2" fill="#8cd7f8"/><circle cx="505.1" cy="561.2" r="2.2" fill="#8cd7f8"/><circle cx="315.3" cy="563.4" r="2.2" fill="#8cd7f8"/><circle cx="573.1" cy="447.2" r="2.2" fill="#8cd7f8"/><circle cx="877.5" cy="390.6" r="2.2" fill="#8cd7f8"/><circle cx="963.1" cy="119.4" r="2.2" fill="#8cd7f8"/><circle cx="1263.9" cy="76.9" r="2.2" fill="#8cd7f8"/><circle cx="1201.2" cy="323.8" r="2.2" fill="#8cd7f8"/><circle cx="1282.2" cy="675" r="2.2" fill="#8cd7f8"/><circle cx="1053.7" cy="797.1" r="4" fill="#8cd7f8"/><circle cx="719.2" cy="843.6" r="2.2" fill="#8cd7f8"/><circle cx="707" cy="1073.4" r="2.2" fill="#8cd7f8"/><circle cx="959.8" cy="1152.4" r="2.2" fill="#8cd7f8"/><circle cx="849" cy="964" r="4.4" fill="#fff"/><circle cx="1543.5" cy="952.6" r="4.4" fill="#fff"/><circle cx="1457.1" cy="900.9" r="4.4" fill="#fff"/><circle cx="1523.6" cy="1057.2" r="4.4" fill="#fff"/><circle cx="517.2" cy="1046.2" r="4.4" fill="#fff"/><circle cx="970.6" cy="918.2" r="4.4" fill="#fff"/><circle cx="1074.3" cy="592.5" r="4.4" fill="#fff"/><circle cx="225" cy="643.4" r="4.4" fill="#fff"/><circle cx="1560.3" cy="461.5" r="4.4" fill="#fff"/><circle cx="1366.7" cy="680.8" r="4.4" fill="#fff"/><circle cx="1603.6" cy="793.1" r="4.4" fill="#fff"/><circle cx="980.8" cy="559" r="4.4" fill="#fff"/><circle cx="1236.3" cy="561.2" r="4.4" fill="#fff"/><circle cx="1640.7" cy="233.2" r="4.4" fill="#fff"/><circle cx="1508.4" cy="355.9" r="4.4" fill="#fff"/><circle cx="1408.3" cy="57.2" r="4.4" fill="#fff"/><circle cx="577.5" cy="163.5" r="4.4" fill="#fff"/><circle cx="103.4" cy="198" r="4.4" fill="#fff"/><circle cx="965.4" cy="968.4" r="4.4" fill="#f9a859"/><circle cx="723.7" cy="1206.6" r="2.2" fill="#8cd7f8"/><circle cx="1430.3" cy="982.3" r="2.2" fill="#8cd7f8"/><circle cx="1282.2" cy="1055" r="2.2" fill="#8cd7f8"/><circle cx="1684.7" cy="341.6" r="2.2" fill="#8cd7f8"/><circle cx="1597.5" cy="392.8" r="2.2" fill="#8cd7f8"/><circle cx="1508.4" cy="737.1" r="2.2" fill="#8cd7f8"/><circle cx="1878.7" cy="62.6" r="2.2" fill="#8cd7f8"/><circle cx="1763.7" cy="159" r="2.2" fill="#8cd7f8"/><circle cx="1643.8" cy="52.7" r="2.2" fill="#8cd7f8"/><circle cx="1493.9" cy="124.1" r="2.2" fill="#8cd7f8"/><circle cx="1213.2" cy="198.6" r="2.2" fill="#8cd7f8"/><circle cx="1101" cy="84.3" r="2.2" fill="#8cd7f8"/><circle cx="875.2" cy="74.7" r="2.2" fill="#8cd7f8"/><circle cx="879.7" cy="245.3" r="2.2" fill="#8cd7f8"/><circle cx="757" cy="386.1" r="2.2" fill="#8cd7f8"/><circle cx="851.3" cy="561.2" r="2.2" fill="#8cd7f8"/><circle cx="600.9" cy="661.7" r="2.2" fill="#8cd7f8"/><circle cx="502.9" cy="823.9" r="2.2" fill="#8cd7f8"/><circle cx="396.7" cy="1001.5" r="2.2" fill="#8cd7f8"/><circle cx="951.1" cy="799.1" r="2.2" fill="#8cd7f8"/><circle cx="953.4" cy="606.8" r="2.2" fill="#8cd7f8"/><circle cx="955.6" cy="257.8" r="2.2" fill="#8cd7f8"/><circle cx="951.1" cy="375" r="2.2" fill="#8cd7f8"/><circle cx="161.2" cy="67.1" r="2.2" fill="#8cd7f8"/><circle cx="230.1" cy="270" r="2.2" fill="#8cd7f8"/><circle cx="355.4" cy="54.9" r="2.2" fill="#8cd7f8"/><circle cx="398.9" cy="206.4" r="2.2" fill="#8cd7f8"/><circle cx="701.3" cy="106.9" r="2.2" fill="#8cd7f8"/><circle cx="493" cy="383.9" r="2.2" fill="#8cd7f8"/><circle cx="1213.2" cy="459.3" r="2.2" fill="#8cd7f8"/><circle cx="1448.5" cy="634.4" r="12.1" fill="#f9a859"/><path fill="#ef443d" d="m1336.3 1268.8 51.1 6.8 17.3-55.8-5.5 58.7 48.6 13.1-52.8-4.6-17.7 60 8.8-62.5zM1072.9 945l51.1 6.8 17.3-55.8-5.4 58.7 48.5 13.1-52.8-4.6-17.7 60 8.9-62.6z"/><path fill="#fff200" d="m787.6 149.9 31.8 4.3 10.8-34.8-3.4 36.6 30.3 8.2-32.9-2.9-11.1 37.3 5.6-38.9zM166.2 445.8 198 450l10.8-34.7-3.4 36.5 30.2 8.2-32.9-2.9-11 37.4 5.5-39z"/><path fill="#a44f24" d="m420 1195.3 49.3-15-7.3-57.9 19.3 55.7 49.7-8.2-50 17.6 8.6 62-17.8-60.6z"/><path fill="#fff200" d="m1541.6 622.8 36.5 5.9 13.6-39.6-5.1 42 34.5 10.3-37.7-4.4-14 42.7 7.6-44.6zM1668.3 498.8l36.5 5.9 13.5-39.7-5.1 42 34.6 10.4-37.8-4.4-13.9 42.7 7.6-44.7zM970.2 1351.3l36.6 5.9 13.5-39.7-5.1 42 34.6 10.4-37.8-4.4-13.9 42.7 7.6-44.7zM1424.5 201.3l36.5 5.8 13.6-39.6-5.2 42 34.6 10.4-37.8-4.4-13.9 42.6 7.6-44.6z"/><path fill="#5f6cb2" d="m679.2 613.8 35.6-10.8-5.3-41.8 13.9 40.2 35.8-5.9-36 12.7 6.2 44.7-12.8-43.7z"/><path fill="#fff" d="m1412.1 1069.9 37-1.6 5.3-41.7 3.5 42.3 36 3.2-38 3.3-5 44.7-1.6-45.4zM530 1342.6l37-1.6 5.2-41.7 3.5 42.3 36.1 3.2-38 3.3-5 44.7-1.6-45.4z"/><path fill="#5f6cb2" d="m1423.1 516.7 37-1.6 5.3-41.7 3.5 42.3 36 3.2-38 3.3-5 44.7-1.6-45.4zM1099.5 647.6l37-1.6 5.2-41.7 3.5 42.3 36.1 3.2-38 3.3-5 44.7-1.6-45.4zM1762.7 265.2l37.1-1.6 5.2-41.7 3.5 42.3 36.1 3.1-38 3.4-5 44.7-1.6-45.4z"/><path fill="#fff200" d="m1514.1 830.8 15-10.3-8.6-18.7 12.4 16.7 15.8-8.1-14.9 11.3 9.5 19.9-12.4-18.5zM1346.2 929.9l15-10.3-8.6-18.7 12.4 16.6 15.8-8-14.9 11.3 9.5 19.9-12.4-18.5z"/><path fill="#feface" d="m1246 858.7 14.4-15.7-14.8-19.1 18.6 15.8 15.9-13.4-14.1 16.8 16.2 20.3-19.1-17.9z"/><circle cx="1388.2" cy="126.3" r="2.2" fill="#8cd7f8"/><circle cx="1351.3" cy="240.3" r="2.2" fill="#8cd7f8"/><circle cx="873" cy="677.2" r="2.2" fill="#8cd7f8"/><circle cx="717.2" cy="747" r="2.2" fill="#8cd7f8"/><circle cx="1116.6" cy="383.9" r="2.2" fill="#8cd7f8"/><circle cx="659.9" cy="950.4" r="2.2" fill="#8cd7f8"/><path fill="#f48990" d="M1322.2 1624c26.3-23.3 55.7-47.8 90.8-49 53.4-1.9 97.6 50.9 150.9 47.4 13-.9 25.9-5.1 38.8-3.2 24.8 3.7 40.1 27.9 58 45.5 10.4 10.2 22.6 18.7 35.8 24.9-10.6 14-24.3 27.3-41.7 30.3-17.3 3-34.4-4.8-50.7-11.3-14-5.6-28.4-10.3-43.1-14.2-6.7-1.8-13.7-3.3-20.5-2.1-6.1 1.1-11.6 4.3-16.6 8-14.3 10.5-25.4 24.9-38.7 36.7-13.3 11.8-30.5 21.3-48.1 18.8-13.9-2-26.2-11.2-40.3-12-14.5-.9-28 7.3-42.4 9.5-24.7 3.7-48.5-10.4-67.9-26.2-4.9-4-10-8.7-11.2-14.9-1.1-6.3 2-12.4 5.1-18 13.3-23.7 27.9-46.6 43.6-68.8"/><path fill="#aa666d" d="M1337.3 1663.6c20.1-18.8 42.2-36.2 68.2-45.1 26-8.8 56.6-7.8 78.9 8.3 2.7 2 5.4 4.2 8.6 5.3 9.4 3.2 19.9-4.4 29.4-1.5 8 2.5 12.4 11.5 20.3 14.4 9.7 3.7 19.8-3.1 29.8-5.9 10.6-2.9 22.5-1 31.7 5.1 7.7 5.2 13.3 12.9 19.5 19.9 12.6 14.2 30.7 26.1 49.4 23.1-12.2 10.4-30.4 10.4-45.7 5.5-15.3-4.9-28.9-13.8-43.7-19.9s-32.2-9.1-46.5-1.9c-11.3 5.7-20.5 17.5-33.1 17.2-7.3-.1-15.8-4.2-21.2.8-1.8 1.6-2.7 3.9-3.7 6.1-3.9 9-8.5 17.8-15.4 24.8s-16.3 11.9-26.1 11.5c-9.1-.3-17.4-5-25.8-8.5-13-5.3-27.2-7.9-41.2-7.4-8.7.3-18 1.7-25.8-2.2-12.4-6.2-15.3-22.5-15.5-36.4-.1-5.3.7-11.8 5.6-13.7"/><path fill="#fdc27a" d="M1313 1562.7c9-33.9 19.9-70.6 48.4-91.1 43.4-31.1 109.5-11.7 151.9-44.1 10.4-7.9 18.8-18.7 30.6-24.2 22.7-10.7 48.8 1 73.5 5.8 14.3 2.8 29.2 3.1 43.6.9-1.1 17.6-5.1 36.2-17.9 48.3-12.8 12.1-31.3 15-48.5 18.7-14.8 3.1-29.4 7.2-43.7 12.1-6.5 2.2-13.2 4.8-18.2 9.6-4.5 4.3-7.3 10-9.4 15.8-6.1 16.7-7.3 34.8-11.9 52-4.6 17.2-13.6 34.7-29.6 42.4-12.7 6.1-28 5.2-40.2 12.3-12.6 7.3-19.3 21.6-30.1 31.4-18.5 16.8-46.1 18.1-71 15.8-6.3-.6-13.2-1.6-17.6-6.2-4.4-4.6-5.2-11.5-5.7-17.8-2-27.1-2.6-54.3-1.8-81.4"/><path fill="#c69560" d="M1588.9 1425.1c-9.8-1.3-19.6-3.5-29.6-3.3s-20.3 3.2-27 10.5c-4.9 5.5-7.4 12.8-12.5 18.1-13.2 13.5-37.3 7.4-52.6 18.4-4.3 3.1-7.6 7.4-12.2 10.1-14.2 8.6-33.1-1.2-49 3.5-19.3 5.7-26.1 28.9-39.6 43.9-1.5 1.7-3.2 3.4-5.4 4.1-3 1-6.2 0-9.4 0-9 .1-15.7 8.2-20.7 15.7-5.7 8.5-11 17.3-16 26.3-.4 23.9.3 47.9 2 71.7.1 1.5.2 3.1.4 4.7 3.2-.5 6.3-1 9.5-1.4 10.4-1.6 20.7-3.1 31.2-3.2 12.7-.1 27.1 1.5 36.3-7.2 12.4-11.7 7.6-34.9 20.8-45.5 8.2-6.5 19.8-5.5 30.2-5.6 10.5-.1 22.9-3.5 26-13.5 3.4-11-7.2-23-3.2-33.8 5.1-13.9 29.4-13.6 32.7-28.1 1.3-5.6-1.5-11.5-.8-17.2 1.1-9.9 11.5-15.9 21.1-18.5 9.6-2.7 20.3-4 27.4-10.9 3.3-3.2 5.5-7.3 8.5-10.8 16.7-19.2 49.6-12.2 69.9-27.5-12.4 1.3-25.3 1.2-38-.5z"/><path fill="#f48990" d="M677.2 1613.9c-26.3-23.3-55.7-47.8-90.8-49-53.4-1.9-97.6 50.9-150.9 47.4-13-.9-25.9-5.1-38.8-3.2-24.8 3.7-40.1 27.9-58 45.5-10.4 10.2-22.6 18.7-35.8 24.9 10.6 14 24.3 27.3 41.7 30.3 17.3 3 34.4-4.8 50.7-11.3 14-5.6 28.4-10.3 43.1-14.2 6.7-1.8 13.7-3.3 20.5-2.1 6.1 1.1 11.6 4.3 16.6 8 14.3 10.5 25.4 24.9 38.7 36.7 13.3 11.8 30.5 21.3 48.1 18.8 13.9-2 26.2-11.2 40.3-12 14.5-.9 28 7.3 42.4 9.5 24.7 3.7 48.5-10.4 67.9-26.2 4.9-4 10-8.7 11.2-14.9 1.1-6.3-2-12.4-5.1-18-13.3-23.7-27.9-46.6-43.6-68.8"/><path fill="#aa666d" d="M662.2 1653.4c-20.1-18.8-42.2-36.2-68.2-45.1-26-8.8-56.6-7.8-78.9 8.3-2.7 2-5.4 4.2-8.6 5.3-9.4 3.2-19.9-4.4-29.4-1.5-8 2.5-12.4 11.5-20.3 14.4-9.7 3.7-19.8-3.1-29.8-5.9-10.6-2.9-22.5-1-31.7 5.1-7.7 5.2-13.3 12.9-19.5 19.9-12.6 14.2-30.7 26.1-49.4 23.1 12.2 10.4 30.4 10.4 45.7 5.5 15.3-4.9 28.9-13.8 43.7-19.9s32.2-9.1 46.5-1.9c11.3 5.7 20.5 17.5 33.1 17.2 7.3-.1 15.8-4.2 21.2.8 1.8 1.6 2.7 3.9 3.7 6.1 3.9 9 8.5 17.8 15.4 24.8s16.3 11.9 26.1 11.5c9.1-.3 17.4-5 25.8-8.5 13-5.3 27.2-7.9 41.2-7.4 8.7.3 18 1.7 25.8-2.2 12.4-6.2 15.3-22.5 15.5-36.4.1-5.3-.7-11.8-5.6-13.7"/><path fill="#fdc27a" d="M686.5 1552.5c-9-33.9-19.9-70.6-48.4-91.1-43.4-31.1-109.5-11.7-151.9-44.1-10.4-7.9-18.8-18.7-30.6-24.2-22.7-10.7-48.8 1-73.5 5.8-14.3 2.8-29.2 3.1-43.6.9 1.1 17.6 5.1 36.2 17.9 48.3 12.8 12.1 31.3 15 48.5 18.7 14.8 3.1 29.4 7.2 43.7 12.1 6.5 2.2 13.2 4.8 18.2 9.6 4.5 4.3 7.3 10 9.4 15.8 6.1 16.7 7.3 34.8 11.9 52 4.6 17.2 13.6 34.7 29.6 42.4 12.7 6.1 28 5.2 40.2 12.3 12.6 7.3 19.3 21.6 30.1 31.4 18.5 16.8 46.1 18.1 71 15.8 6.3-.6 13.2-1.6 17.6-6.2 4.4-4.6 5.2-11.5 5.7-17.8 2-27.1 2.6-54.3 1.8-81.4"/><path fill="#c69560" d="M410.6 1414.9c9.8-1.3 19.6-3.5 29.6-3.3s20.3 3.2 27 10.5c4.9 5.5 7.4 12.8 12.5 18.1 13.2 13.5 37.3 7.4 52.6 18.4 4.3 3.1 7.6 7.4 12.2 10.1 14.2 8.6 33.1-1.2 49 3.5 19.3 5.7 26.1 28.9 39.6 43.9 1.5 1.7 3.2 3.4 5.4 4.1 3 1 6.2 0 9.4 0 9 .1 15.7 8.2 20.7 15.7 5.7 8.5 11 17.3 16 26.3.4 23.9-.3 47.9-2 71.7-.1 1.5-.2 3.1-.4 4.7-3.2-.5-6.3-1-9.5-1.4-10.4-1.6-20.7-3.1-31.2-3.2-12.7-.1-27.1 1.5-36.3-7.2-12.4-11.7-7.6-34.9-20.8-45.5-8.2-6.5-19.8-5.5-30.2-5.6-10.5-.1-22.9-3.5-26-13.5-3.4-11 7.2-23 3.2-33.8-5.1-13.9-29.4-13.6-32.7-28.1-1.3-5.6 1.5-11.5.8-17.2-1.1-9.9-11.5-15.9-21.1-18.5-9.6-2.7-20.3-4-27.4-10.9-3.3-3.2-5.5-7.3-8.5-10.8-16.7-19.2-49.6-12.2-69.9-27.5 12.3 1.3 25.2 1.2 38-.5z"/><g><path fill="#121212" d="M619.8 1534.5h703.5v-432c0-12.7-10.3-23.1-23.1-23.1H642.9c-12.7 0-23.1 10.3-23.1 23.1v432z"/><path fill="#07b5d9" d="M636.2 1106.1H1304v404.5H636.2z"/><path fill="#166ca6" d="m619.8 1534.5-52 215.6h825.4l-69.9-215.6z"/><path fill="#074d84" d="m1390.1 1768-819-1.2-3.1-16.8 825 .1zM1070 1736.2H875.7c-4.3 0-7.4-4.1-6.4-8.2l11.1-43.3c.6-2.4 2.7-4 5.2-4h171.5c2.7 0 5 1.8 5.7 4.4l12.4 44.3c1 3.3-1.6 6.8-5.2 6.8z"/><path fill="#166ca6" d="M875.7 1736.2H1070c1.9 0 3.5-1 4.5-2.4l-13.6-46c-.7-2.2-2.7-3.7-5-3.7h-168c-2 0-3.7 1.3-4.3 3.2l-13.5 45.7c1.1 1.9 3.2 3.2 5.6 3.2z"/><path fill="#074d84" d="M658.1 1578.1v2.2H710l8.4-30.8-1.3-2.9zM731.3 1578.1v2.2h51.9l8.3-30.8-1.2-2.9zM645.4 1624.4v2.5H698l8-30.5-1.4-2.5zM692.4 1640.2v4.1l-7.9 30h-52.2v-2.2zM718.7 1624.4v2.5h52.6l8-30.5-1.4-2.5zM765.7 1640.2v4.1l-7.9 30h-52.2v-2.2zM804.2 1578.1v2.2h53.2l7.1-30.8-1.3-2.9zM791.6 1624.4v2.5h54.2l6.4-30.5v-2.5zM841.1 1640.2v3.8l-7.3 30.3h-55.3v-2.2z"/><path fill="#2c90c9" d="M718.7 1624.4h50.8l8-30.5H727zM790 1546.6h-50.2l-8.5 31.5h50.4zM705.7 1672.1h51.1l8.5-31.9h-50.9zM645.4 1624.4h51.2l8-30.5h-50.9zM812.7 1546.6l-8.5 31.5h51.7l7.6-31.5zM787.3 1640.2l-8.7 31.9h54.8l7.7-31.9zM692.4 1640.2h-51.3l-8.8 31.9h51.6zM852.2 1593.9h-52.3l-8.3 30.5h53.2zM708.8 1578.1l8.3-31.5h-50.4l-8.6 31.5z"/><path fill="#33c3df" d="M1303.9 1164.7c-33.7-11.8-70.4-15.8-106.2-13.5-57.4 3.7-112.9 22.4-166.1 44.2-53.2 21.8-105.2 47.1-159.9 64.9-9.9 3.2-20.2 6.3-30.6 5.2s-20.9-7.2-24.1-17.1c-8-24.6 31.2-46.1 23.4-70.8-4.9-15.7-25.2-19.6-41.7-19.7-55.9-.3-111.7 12-162.6 35.1v69.4c14.1-8.1 28.7-15.4 44.2-20.5 20-6.6 45.6-7.9 58.4 8.7 15.6 20.2 1.1 51 11.1 74.5 5.8 13.7 19.4 22.8 33.8 26.6 14.4 3.8 29.5 2.9 44.3 1.2 72.3-8.1 141.4-33.1 211.7-51.8 70.3-18.7 144.8-31.2 215.4-13.9 16.8 4.1 33.6 10.4 48.8 19v-141.5z"/><path fill="#33c3df" d="M1146.4 1470.7c-6.5 12.3-10 26.1-10.4 39.9h167.9V1453c-16.3.8-32.5 1.6-48.8 2.4-5.4.3-11.5.3-15.4-3.6-2.6-2.6-3.5-6.4-3.8-10.1-2-23.1 14.5-45.5 9.7-68.1-5.2-24.7-32.6-37.4-57.2-43-103.9-23.8-211.9 11.7-308.8 56.1-45.6 20.9-94.3 44.5-143.6 35.4-18.1-3.3-36.8-12.4-44.3-29.3-12.5-28.1 11.9-59.7 8.9-90.4-.5-5.6-2.1-11.2-5.8-15.4-10.3-11.9-29.6-6.1-43.4 1.4-5.2 2.9-10.4 5.9-15.4 9V1469c12.6 12.9 32.9 14.7 51.2 14.7 34.8-.1 69.5-3.4 103.7-9.9 95.5-18.2 185-61 280.4-79.6 19.3-3.7 39.7-6.4 58.3.1 18.6 6.5 34.4 24.7 31.7 44.2-1.5 11.8-9.3 21.7-14.9 32.2z"/><path fill="#074d84" d="M658.1 1578.1v2.2H710l8.4-30.8-1.3-2.9zM731.3 1578.1v2.2h51.9l8.3-30.8-1.2-2.9zM645.4 1624.4v2.5H698l8-30.5-1.4-2.5zM692.4 1640.2v4.1l-7.9 30h-52.2v-2.2zM718.7 1624.4v2.5h52.6l8-30.5-1.4-2.5zM765.7 1640.2v4.1l-7.9 30h-52.2v-2.2zM804.2 1578.1v2.2h53.2l7.1-30.8-1.3-2.9zM791.6 1624.4v2.5h54.2l6.4-30.5v-2.5zM841.1 1640.2v3.8l-7.3 30.3h-55.3v-2.2z"/><path fill="#2c90c9" d="M718.7 1624.4h50.8l8-30.5H727zM790 1546.6h-50.2l-8.5 31.5h50.4zM705.7 1672.1h51.1l8.5-31.9h-50.9zM645.4 1624.4h51.2l8-30.5h-50.9zM812.7 1546.6l-8.5 31.5h51.7l7.6-31.5zM787.3 1640.2l-8.7 31.9h54.8l7.7-31.9zM692.4 1640.2h-51.3l-8.8 31.9h51.6zM852.2 1593.9h-52.3l-8.3 30.5h53.2zM708.8 1578.1l8.3-31.5h-50.4l-8.6 31.5z"/><path fill="#074d84" d="M1299.8 1578.1v2.2h-51.9l-8.4-30.8 1.2-2.9zM1226.6 1578.1v2.2h-51.9l-8.4-30.8 1.2-2.9zM1312.5 1624.4v2.5h-52.6l-8.1-30.5 1.4-2.5zM1265.5 1640.2v4.1l7.8 30h52.3v-2.2zM1239.2 1624.4v2.5h-52.6l-8-30.5 1.4-2.5zM1192.2 1640.2v4.1l7.8 30h52.3v-2.2zM1153.7 1578.1v2.2h-53.2l-7.1-30.8 1.2-2.9zM1166.3 1624.4v2.5h-54.2l-6.4-30.5v-2.5zM1116.8 1640.2v3.8l7.3 30.3h55.3v-2.2z"/><path fill="#2c90c9" d="M1239.2 1624.4h-50.8l-8.1-30.5h50.6zM1167.8 1546.6h50.2l8.6 31.5h-50.4zM1252.2 1672.1H1201l-8.4-31.9h50.9zM1312.5 1624.4h-51.2l-8.1-30.5h50.9zM1145.1 1546.6l8.6 31.5h-51.8l-7.5-31.5zM1170.6 1640.2l8.7 31.9h-54.8l-7.7-31.9zM1265.5 1640.2h51.3l8.8 31.9h-51.7zM1105.7 1593.9h52.3l8.3 30.5H1113zM1249.1 1578.1l-8.4-31.5h50.5l8.6 31.5z"/><path fill="#074d84" d="M942.5 1546.6v3.2l-6.4 30.1h-53.7v-1.8zM932.4 1593.9v2.3l-6.2 29.8h-57v-1.6zM950.7 1578.1l.5 1.8h59.9l1.1-1.8zM940.8 1624.4l.7 1.6h79.8l.8-1.6zM1020.4 1546.6v2.5l6.3 30.8h53.1l1.2-1.8zM1030.5 1593.9l-.5 2.8 6.6 29.3h56.7l.8-1.6z"/><path fill="#2c90c9" d="M1027.1 1578.1h53.9l-9-31.5h-51.6zM950.7 1578.1h61.5l-6.8-31.5h-48zM1022.1 1624.4l-6.6-30.5h-68.2l-6.5 30.5zM1030.5 1593.9l6.5 30.5h57.1l-8.6-30.5zM935.7 1578.1l6.8-31.5h-51.1l-9 31.5zM932.4 1593.9h-54.5l-8.7 30.5h56.6z"/><path fill="#074d84" d="m859.5 1668.9 1.2 3.2h240l2.3-3.2z"/><path fill="#2c90c9" d="M1103 1668.9H859.5l8.4-28.7h228.6z"/></g><g><path fill="#f2a27f" d="M1134.5 980.3c0-2.6 1.9-4.8 3-7.2 3.8-8.5-3-19.1.8-27.6 1.7-3.8 5.2-6.4 8.1-9.4 4-4.2 7.1-9.2 9.9-14.3 2.2-3.9 4.2-7.9 7.2-11.2 2.9-3.3 6.9-6 11.3-6.5 1-.1 2-.1 2.8.4.9.5 1.4 1.6 1.8 2.5 1.3 3.7 1.1 7.9-.6 11.4-1.5 3.2-4.3 6.1-3.8 9.6 5-2.1 9.9-4.2 14.9-6.3 4.1-1.7 8.3-3.5 12.6-4.8 8.1-2.5 16.8-3.3 25.2-2.4 1.6.2 3.6.8 3.6 2.5 0 .8-.6 1.6-1.2 2.1-2.1 1.8-4.7 2.8-7.2 3.7-6.7 2.5-13.5 5-20.2 7.5-2.6 1-5.5 2.1-6.7 4.6 10.5-2.1 21.3-3.4 32-3.9 2-.1 4.1-.2 6 .4 1.9.6 3.7 2 4.2 4 .1.5.2 1.1-.1 1.6-.4.8-1.3 1.1-2.1 1.3-7.7 2.1-15.5 3.4-23.4 4.1-3.3.3-7.2.7-9.1 3.4 8.8-.1 17.5-.2 26.3-.4 3.5 0 7.7.3 9.5 3.3-1.8 2.2-4.9 2.6-7.7 2.9-8.4.9-16.8 1.8-25.2 2.8 8.6 1.4 17.3 2.7 25.7 5.1 1.6.5 3.7 2 2.7 3.4-.3.4-.8.6-1.2.8-5.5 2.1-11.6 1-17.4 1.6-8.7.9-16.8 5.9-21.6 13.2-1.7 2.5-3 5.3-5.4 7.1-3.2 2.3-7.5 2.3-11.3 3-4.3.9-8.5 2.9-11.8 5.8-1.2 1-2.3 2.2-3.8 2.7-2.2.7-4.6-.4-6.7-1.5-7.5-4.2-14.2-9.6-19.8-16.1"/><path fill="#89403a" d="M936.9 687.5c3.6 5.3 5.8 11.5 7.3 17.7 3.8 15.3 4.1 31.6.6 47-3 13.4-8.7 26.2-9.4 39.9-.3 6.6.5 13.3 1.9 19.8 4.1 19.8 12.7 38.7 25 54.9 5.5 7.3 11.8 14 17 21.6 20.3 29.7 21.1 69.2 11.2 103.7-11.6 40.5-56.5 64.4-90.6 83.2-35.6 19.7-71.4 39.4-108.9 55.2-27 11.4-55.3 20.9-84.5 21.9-29.3 1-59.8-7.4-80.8-27.7-9.8-9.5-17.3-21.2-24.6-32.8-7.7-12.2-15.5-24.6-19.9-38.4-4.5-14.2-5.2-29.2-5.1-44.1.1-26.1 2.6-52.4 10.6-77.3 5.1-15.9 12.5-31.3 22.5-44.7 9.8-13.2 22.6-23.4 32.4-36.6 20.4-27.4 33.3-60.5 36.4-94.5 1.2-13.3 1-26.8 3.2-40.1 3.1-18.9 11.3-37.2 24.9-50.7 15.6-15.5 37.2-23.8 59-27 32-4.8 65.5.5 94.5 14.9 6.1 3 12.6 8.9 19 11 6.4 2.1 15.1.8 21.9 2.1 14.1 2.7 28.2 8.7 36.4 21z"/><path fill="#70393c" d="M793.6 810.1c-12.4.3-22.6 9.8-29.3 20.3-6.7 10.4-11.1 22.3-18.9 31.9-6.2 7.7-14.4 13.5-21.3 20.6-7.2 7.4-13.1 16.2-17.1 25.8-3.9 9.2-5.9 20.4-.5 28.8 3.1 4.7 8.1 7.9 13.2 10.1 21.4 9.3 47.2 5.1 66.6-7.8 19.4-12.9 32.7-33.6 39.9-55.8 5.7-17.8 7.3-38.6-3.5-53.9-7.7-10.9-20.4-17-32.8-21.6"/><path fill="#70393c" d="M962.3 866.8c-12.3-16.1-20.9-35-25-54.9-1.3-6.5-2.2-13.2-1.9-19.8.1-2.6.4-5.2.9-7.7-11.4 12.5-25.2 22.8-40.6 30-28 13.1-60.9 15.5-90.6 6.7-10.2-3-24-6.1-29.3 3.1-1.7 3-2 6.5-2 9.9-.2 20.1 5.5 40.8-.6 60-4.1 12.9-13.4 24.7-12.3 38.2.5 6.8 3.7 13 6.8 19 12.1 23.7 24.8 48.2 45.8 64.5 12.8 9.9 27.9 16.3 42.8 22.5 12.5 5.2 25.2 10.5 38.7 11.8 10.9 1.1 21.9-.4 32.5-2.8 10.5-2.3 21-5.5 31.1-9.7 14.7-12.6 26.8-27.5 32-45.7 9.9-34.5 9-74-11.2-103.7-5.3-7.3-11.6-14.1-17.1-21.4z"/><path fill="#b55851" d="M902.2 896.5s104.8 68.5 156.2 175.8l67.3-102.7 46.7 30.3-75.3 151.7s-36.7 24-70.7 3.3L931 1053.7l-28.8-157.2z"/><path fill="#f17c6e" d="M751.6 896.5s79.5-13.7 150.5 0c0 0 92.3 63 44 204 0 0-7.6 107.5 4.7 156.2 0 0 8.8 58.7 6.5 74.8 0 0-199.7 17.5-258.8-14.7 0 0 27.7-225.9 21.7-265.2.1.1-76-76.3 31.4-155.1z"/><path fill="#bd5c55" d="M850 1336.3c1.7-3.5 1.9-7.7-.3-10.9-1.7-2.3-4.3-3.7-6.9-4.8-20.2-9-43.3-11.6-65-7.5-4.1.8-8.9 1.5-11.7-1.5-4.7-5 1.8-12.6 7.8-15.9 35.4-19.4 76.4-25.8 116.6-29.4 7.5-.7 17.1-3.5 17.2-10.9 0-5.1-4.7-8.7-9.2-11.1-13.7-7.2-30.3-11.2-39.2-23.9-9.7-13.7-6.5-33.4 3.3-47 3.3-4.6 7.4-9.3 7.2-14.9-.2-4.7-3.4-8.7-6.1-12.5-17.4-24.7-18.3-59.9-2.3-85.5l-3-2c-14.3-5.6-30.3-4.8-45.7-3.8-14.9 1-30.1 2.1-44.2 7.1-19.8 6.9-36.3 21.1-48.5 38.2-4.6 79.1-21.5 216.8-21.5 216.8 29.7 16.1 94.2 19.8 151.5 19.5z"/><path fill="#dededf" d="m818.4 989.4 33.6 54L902.9 897c-.5-.4-.8-.5-.8-.5-51.4-9.9-107.3-5.5-134.2-2.3l50.5 95.2z"/><path fill="#f2a27f" d="m802.3 854.8-8.5 37.4 43.9 33.6 29.9-32.2s-9.5-20.4-9-35l-56.3-3.8z"/><path fill="#f17c6e" d="M751.6 896.5s-63.1 18.5-103.6 107l-59.2 126.9 62.7 27.1 97-147 3.1-114z"/><path fill="#b55851" d="M913.1 905.8c-4.9-4.8-8.7-7.7-10.2-8.8-10.9 22.7-45.6 98.3-50.9 149 0 0 38.5-48.7 47.2-55.4l-3.4-34.7 20.7-13.5c0-.1 0-21-3.4-36.6zM768.4 894.2c-1.9.2-3.6.4-5.2.6-4.8 15.5 2.2 52.1 2.2 52.1l23.8 10.2 3.5 37.2c10.2 5.3 59.3 49.1 59.3 49.1-16.2-54.5-70.5-131.2-83.6-149.2z"/><path fill="#3f6b83" d="M708.5 1000c2 .5 154 34 154 34s13.5 6 9.5 21.5l-54 199-154-41.5 44.5-213z"/><path fill="#dededf" d="m714 1006 139 32.5s20 13 0 10L720 1021l-43.9 195.3-9-2.4L714 1006z"/><path fill="#fbc0a4" d="M759.3 1189.4c12.2-2.4 18.2-17.8 30.3-20.8 2.7-.7 5.5-.6 8.3-.8 6.4-.4 12.7-1.8 18.6-4.2 1.9-.8 3.8-1.7 5.9-1.8 2.1-.1 4.3.7 5.3 2.5.9 1.9.2 4.3-1.3 5.8s-3.5 2.4-5.4 3.2c-4.4 1.8-8.7 3.6-13.1 5.4-1.9.8-4.1 2.1-3.8 4.1.2 1.9 2.5 2.7 4.4 3.1 5.7 1 11.6 1.2 17.4 1.4 4.5.2 9.3.5 13 3.2 3.6 2.7 5 8.8 1.6 11.7-1.5 1.3-4.1 2.4-3.7 4.4.2 1 1.1 1.6 1.6 2.4 1.4 2 .8 4.9-.7 6.8-1.6 1.9-3.9 3-6.1 3.9 1.4 1.6 2.9 3.2 3.6 5.2.7 2 .4 4.5-1.3 5.8-.8.7-2 1-2.7 1.7-2.1 2-.9 5.5-1.6 8.3-.6 2.4-2.7 4.2-5 5-2.3.9-4.8 1-7.2 1.1-13 .6-26.5 1-38.3-4.5-6.4-3-11.9-7.7-17.2-12.2-2.1-1.8-4.3-3.6-5.5-6.1-1-2-1.2-4.2-1.4-6.5-.7-10.1 1.2-20.5 5.3-29.7"/><path fill="#f17c6e" d="M588.8 1130.4c.3-.5 175.6 55.1 175.6 55.1l-8 49-167.6-45.5s-15.6-31.7 0-58.6z"/><path fill="#fbc0a4" d="M903.1 727s20.8 119.3-54 147.2c0 0-76.7 19.9-79.5-97.5 0 0 21.8-109.8 133.5-49.7z"/><path fill="#89403a" d="M872.7 725.1s-44.6 48.5-108.3 60.6c0 0-28-15.2 0-60.6 0 0 64.3-41.7 108.3-25 0 0 40.9 8.3 39.4 51.5.1 0-30.3-7.6-39.4-26.5z"/><path fill="#fbc0a4" d="M774.3 785.2s-18.9-12.8-22.7 9c0 0 .9 40.2 27.9 32.2l-5.2-41.2z"/><path fill="#3f6b83" d="m698.6 1316.9-46.3 193.8h285.9c10.8-67.2 25.6-167.8 19.2-179.1l-258.8-14.7z"/><path fill="#325363" d="M786.9 1382.5c10.7-8.1 23.6-12.8 36.3-17.2 36-12.6 72.2-24.3 108.8-35.2l-233.4-13.2-46.3 193.8h61.5c4.2-7.8 9.5-15.1 15.7-21.4 25.3-25.7 63.2-34.7 90.8-57.9 4.6-3.9 9.3-9.7 7.2-15.4-2-5.3-8.6-6.7-14.2-7.4-7.7-1-15.4-1.9-23.1-2.9-3.4-.4-7.1-1-9.5-3.4-5.5-5.7 0-15.1 6.2-19.8z"/></g></svg>