<svg xmlns="http://www.w3.org/2000/svg" enable-background="new 0 0 3000 3000" viewBox="0 0 3000 3000"><path fill="#e5eaf6" d="M2700.27,1478.66c0,479.53-293.02,890.64-709.76,1063.83c-33.24,13.91-67.16,26.23-101.82,36.87    c-9.43,3-18.96,5.79-28.5,8.48c-77.59,21.75-158.49,35.61-241.72,40.61c-9.01,0.53-18.07,0.95-27.07,1.26    c-11.9,0.47-23.91,0.74-35.92,0.79c-2.37,0.05-4.79,0.05-7.11,0.05c-4.11,0-8.27,0-12.38-0.11c-6.64,0-13.22-0.16-19.8-0.32    c-0.63,0-1.21-0.05-1.79-0.05c-96.23-2.79-189.46-17.38-278.43-42.35c-32.82-9.27-65.1-19.86-96.65-31.97    c-1.9-0.68-3.79-1.37-5.58-2.16c-431.39-166.39-737.31-584.93-737.31-1074.94c0-636.18,515.72-1151.95,1151.95-1151.95    c178.09,0,346.74,40.4,497.28,112.61h-104.98c-26.28,0-49.93,10.53-67.05,27.65c-17.12,17.12-27.71,40.82-27.71,66.89    c0,52.36,42.4,94.76,94.76,94.76h385.09C2555.95,839.27,2700.27,1142.08,2700.27,1478.66z"/><path fill="#b7c9e4" d="M1488.7,1032.58l-217.78,330.43c0,0-374.23,30.06-457.45-165.2c-22.07-51.83-11.38-216.91,2.42-352.8     c10.74-105.56,23.33-193.47,23.81-197.21c0.05-0.05,0.05-0.11,0.05-0.11h60.99l4.06,42.24l59.47,357.66L1488.7,1032.58z"/><path fill="#1f3c66" d="M830.45,728.6c5.61-1.34,11.19-3.29,14.56-8.25c3.06-4.51,4.8-9.75,8.03-14.18     c11.69-16.07,31.11-24.47,50.67-27.47l-2.98-31h-61c0,0,0,0.05-0.05,0.11c-0.28,2.21-4.79,33.82-10.65,81.08     C829.51,728.79,829.99,728.71,830.45,728.6z" opacity=".1"/><path fill="#4977ad" d="M935.91,416.57l0.04,0c2.25-0.23,4.17-1.36,5.46-2.99c1.42-1.78,2.08-4.15,1.57-6.56         c-0.04-0.2-0.08-0.39-0.11-0.58c-0.01-0.02-0.01-0.05-0.01-0.06c-0.06-0.27-0.1-0.54-0.15-0.81         c-0.03-0.15-0.05-0.31-0.08-0.46c-0.02-0.12-0.04-0.24-0.05-0.36c-0.04-0.23-0.07-0.46-0.09-0.69         c-3.31-25.74,22.81-38.2,35.28-17.71c0.35,0.57,0.68,1.17,1.01,1.79c2.2,4.19,3.86,9.56,4.72,16.23         c-0.45,46.54-38.2,75.14-75.88,118.14c-6.93,8.31-6.74,16.25-3.6,21.83c0.34,0.6,0.71,1.17,1.11,1.72         c0.14,0.19,0.28,0.37,0.43,0.56c0.14,0.18,0.3,0.35,0.45,0.53c0.6,0.7,1.26,1.33,1.96,1.9c0.86,0.71,1.78,1.32,2.73,1.8         c0.94,0.49,1.91,0.85,2.88,1.09c0.34,0.08,0.69,0.15,1.03,0.2c0.07,0.01,0.15,0.02,0.23,0.03c0.35,0.04,0.7,0.07,1.04,0.07         l0.19-0.51l0.43-1.18c-0.01,0-0.01,0-0.02,0c-0.37-0.12-0.75-0.27-1.13-0.43c0.38,0.15,0.75,0.29,1.13,0.41l0.01,0.01         l1.44-3.89c0,0,0.01,0,0.01,0c0.18-0.5,0.25-1.02,0.19-1.52c-0.1-1.02-0.67-1.97-1.58-2.55c-4.51-2.88-6.68-8.78,2.59-16.45         c48.35-44.22,78.95-91.12,75.15-122.83C991.97,351.55,919.6,347.69,935.91,416.57z M944.9,380.21         c0.01-0.01,0.01-0.01,0.02-0.02c0.47-0.48,0.97-1.01,1.52-1.59c6.02-6.28,15.16-7.82,23.47-4         c-8.31-3.81-17.44-2.27-23.45,4.01c-0.59,0.61-1.13,1.17-1.62,1.69c-2.41,2.51-3.7,3.86-3.89,4.05         C941.13,384.16,942.45,382.78,944.9,380.21z M912.6,548.64c0.53,0.35,1.07,0.66,1.63,0.95         C913.67,549.31,913.12,548.99,912.6,548.64z"/><path fill="#6d95d5" d="M986.84,404.35c0.97,25.71-14.57,55.32-46.2,87.98l-31.57,32.94l-0.09,0.13         c-5.7,8.3-3.38,14.79-1.49,17.93c2.05,3.4,5.81,5.14,9.31,6.29l-0.32,0.91l-0.01,0.01l-0.42,1.18l-0.18,0.51         c-0.35-0.01-0.7-0.03-1.05-0.08c-0.08-0.01-0.15-0.02-0.23-0.03c-0.34-0.05-0.69-0.12-1.03-0.2         c-0.97-0.24-1.94-0.6-2.88-1.09c-0.95-0.49-1.86-1.09-2.73-1.8c-0.69-0.57-1.34-1.21-1.96-1.9c-0.15-0.18-0.3-0.35-0.45-0.53         c-0.15-0.18-0.29-0.37-0.43-0.56c-0.4-0.54-0.78-1.11-1.11-1.72c-3.19-5.62-3.42-13.62,3.54-21.95         c37.68-43,75.42-71.6,75.87-118.13c-0.85-6.61-2.5-11.94-4.65-16.11c-0.33-0.62-0.66-1.22-1.01-1.79         c-12.44-20.64-38.63-8.11-35.28,17.71c0.02,0.23,0.06,0.46,0.09,0.69c0.02,0.12,0.03,0.24,0.05,0.36         c0.02,0.15,0.05,0.3,0.08,0.46c0.04,0.27,0.09,0.54,0.15,0.81c0,0.02,0,0.04,0.01,0.06c0.03,0.19,0.08,0.38,0.11,0.58         c0.51,2.42-0.15,4.79-1.57,6.56c-3.43-14.01-2.26-25.79,3.43-33.27c0.02-0.03,0.04-0.06,0.06-0.09         c0.01-0.01,0.01-0.01,0.02-0.02c0.46-0.59,0.95-1.16,1.46-1.7c6.19-6.47,15.69-7.9,24.19-3.66         C980.24,379.67,986.18,390.42,986.84,404.35z"/><path fill="#4977ad" d="M802.35,533.2c-45.56-34.54-88.28-54.97-98.09-100.46c-0.49-6.71,0.06-12.3,1.36-16.85         c0.2-0.68,0.4-1.33,0.63-1.96c8.1-22.58,36.19-15.63,38.13,10.25c0.02,0.23,0.03,0.47,0.05,0.7         c0.01,0.12,0.01,0.24,0.02,0.36c0,0.15,0.01,0.31,0.02,0.46c0.01,0.27,0.02,0.55,0.02,0.82c0,0.02,0,0.04,0,0.07         c0.01,0.19,0,0.39,0.01,0.59c-0.01,2.47,1.11,4.67,2.86,6.12c1.6,1.34,3.73,2.06,5.99,1.82c0.13-4.31-0.01-8.28-0.38-11.94         c-5.73-56.45-67.11-37.36-59.48,10.69c2.66,31.82,42.07,71.62,98.32,105.21c10.61,5.65,9.67,11.86,5.84,15.59         c-1.15,1.13-1.38,2.9-0.53,4.27c0-0.01,0.01-0.01,0.01-0.01l2.19,3.52c0.01,0,0.01-0.01,0.01-0.01         c0.34-0.2,0.68-0.41,1.02-0.63c-0.34,0.23-0.68,0.45-1.02,0.64c-0.01,0.01-0.01,0.01-0.02,0.01l0.7,1.11l0.25,0.41         c0.33-0.08,0.67-0.17,1.01-0.28c0.08-0.03,0.15-0.05,0.21-0.08c0.32-0.12,0.65-0.26,0.97-0.41c0.9-0.43,1.78-0.98,2.6-1.65         c0.83-0.66,1.61-1.44,2.31-2.31c0.57-0.69,1.09-1.45,1.54-2.25c0.11-0.2,0.22-0.41,0.33-0.61c0.11-0.21,0.21-0.42,0.31-0.63         c0.29-0.61,0.54-1.25,0.74-1.91C812.22,547.76,810.81,539.94,802.35,533.2z M737.22,401.31c2.92,2.02,4.49,3.1,4.71,3.26         c-0.22-0.15-1.76-1.21-4.63-3.18c-0.58-0.4-1.22-0.85-1.92-1.33c-7.37-5.09-16.96-4.59-24.43,1.28         c-1.59,1.25-3.02,2.68-4.26,4.27c1.25-1.59,2.67-3.02,4.27-4.28c7.48-5.87,17.07-6.37,24.43-1.28         c0.65,0.45,1.26,0.87,1.81,1.25C737.21,401.3,737.21,401.31,737.22,401.31z M801.34,561.06c0.48-0.39,0.95-0.81,1.4-1.26         C802.29,560.25,801.82,560.67,801.34,561.06z"/><path fill="#6d95d5" d="M810.27,553.86c-0.21,0.66-0.46,1.29-0.74,1.91c-0.1,0.22-0.2,0.42-0.31,0.63         c-0.11,0.2-0.22,0.41-0.33,0.61c-0.46,0.8-0.97,1.56-1.54,2.25c-0.71,0.87-1.48,1.64-2.31,2.31c-0.82,0.67-1.7,1.22-2.6,1.65         c-0.32,0.15-0.65,0.28-0.97,0.41c-0.07,0.03-0.14,0.05-0.21,0.08c-0.34,0.12-0.67,0.21-1.01,0.29l-0.25-0.42l-0.68-1.13         l0-0.01l-0.5-0.83c3.2-1.84,6.53-4.29,7.85-8.04c1.23-3.45,2.19-10.29-5.07-17.27l-0.11-0.11l-37.55-25.92         c-37.56-25.63-58.74-51.51-62.95-76.89c-2.14-13.77,1.5-25.5,10-32.18c7.47-5.87,17.07-6.37,24.43-1.28         c0.61,0.43,1.2,0.88,1.78,1.37c0.01,0.01,0.01,0.01,0.02,0.02c0.03,0.03,0.05,0.05,0.08,0.08         c7.07,6.19,10.59,17.49,10.05,31.91c-1.75-1.45-2.87-3.65-2.86-6.12c0-0.2,0-0.4-0.01-0.59c0-0.02,0-0.05,0-0.07         c0-0.28,0-0.55-0.02-0.82c0-0.16-0.01-0.31-0.02-0.46c-0.01-0.12-0.01-0.24-0.02-0.36c-0.01-0.24-0.02-0.47-0.05-0.7         c-1.92-25.97-30.09-32.97-38.13-10.25c-0.22,0.63-0.43,1.28-0.63,1.96c-1.27,4.52-1.81,10.07-1.32,16.72         c9.8,45.49,52.53,65.92,98.08,100.46C810.89,539.82,812.26,547.71,810.27,553.86z"/><path fill="#4977ad" d="M943.41,345.52l0.35,3.47c0.2,1.98-0.42,3.85-1.58,5.27c-1.12,1.37-2.75,2.33-4.63,2.58        c-0.07,0.01-0.14,0.02-0.21,0.03c11.63,178-56.59,206.86-63.48,218.08c-6.9,11.23-7.82,29.69,5.08,50.04        c8.16,12.88,29.9,17.35,44.79,18.91c8.78,0.92,15.71,7.86,16.61,16.65l-142.26,14.45c-0.89-8.78,4.5-16.98,12.92-19.65        c14.27-4.51,34.67-13.27,40.07-27.53c8.54-22.54,3.93-40.43-5.08-50.04c-6.76-7.2-49.3-17.19-80.44-96.28        c-10.38-26.36-19.5-60.41-25.6-104.58c-3.96,0.4-7.48-2.47-7.88-6.42l-0.35-3.47c-0.4-3.95,2.47-7.48,6.43-7.88l197.39-20.05        C939.48,338.69,943,341.57,943.41,345.52z"/><path fill="#2e2e2e" d="M873.85,574.94c-6.9,11.23-7.82,29.69,5.08,50.04c8.16,12.88,29.9,17.35,44.79,18.91        c8.78,0.92,15.71,7.86,16.61,16.65l-31.29,3.18c-4.48-4.48-11.03-9.83-20.52-15.45c-25.25-14.97-29.14-83.71-29.14-83.71        s62.1-54.03,62.13-180.7l-158.04-11.8c4.08-0.42,173.62-17.64,173.62-17.64s0.16,0.84,0.46,2.42        c-0.07,0.01-0.14,0.02-0.21,0.03C948.96,534.86,880.75,563.72,873.85,574.94z" opacity=".1"/><rect width="22.33" height="15.4" x="756.48" y="355.93" fill="#91addc" transform="rotate(-5.789 767.448 363.333)"/><path fill="#91addc" d="M763.94,376.64c0,0,8.35,135.53,59.09,177.93c0,0-21.25-41.62-35.37-180.59L763.94,376.64z"/><path fill="#b7c9e4" d="M849.63,593.98c16.11-1.53,36.63-4.5,35.73-9.78c-1.09-6.38-21.01-8.06-38.17-8.32      c4.48-10.27,4.9-12.86,0.99-13.9c-4.32-1.15-11.03-0.25-17.2,5.72c-6.17,5.97-8.67,8.63-8.67,8.63      c-8.37,4.61-8.53,48.99,5.67,59.06c2.95,2.09,7.14,2.32,11.11,2.96c5.15,0.83,4.72-1.31,15.97-1.69      c19.28-0.65,23.76-4.17,23.73-8.09c-0.04-4.43-23.55-5.04-32.7-5.32c0.54-0.02,1.1-0.04,1.66-0.07l0.77,0.12l-0.41-0.14      c15.22-0.62,35.98-2.19,35.99-10.05c0.01-4.84-22.81-4.52-33.89-4.04c15.97-2.16,33.49-4.47,34.82-9.06      C886.75,594.05,869.4,592.83,849.63,593.98z"/><path fill="#1f3c66" d="M444.4,1194.12c10.21-15.54,22.52-30.54,38.21-40.81c15.69-10.27,33.64-17.27,51.95-21.19    c34.91-7.48,79.78-2.59,95.39,34.72c3.09,7.38,4.77,15.21,6.31,23.03c1.18,6,2.05,12.78,5.43,18.03c3.3,5.15,9.11,6.33,14.88,5.92    c10.61-0.76,21.38-4.46,30.71-9.43c10.26-5.46,19.56-13.04,26.63-22.29c6.69-8.75,10.87-19.08,13.48-29.74    c2.03-8.29,2.26-16.92,4.53-25.15c2.48-9.03,8.25-16.25,15.66-21.83c13.57-10.22,30.43-13.65,46.94-15.94    c18.58-2.58,37.42-3.49,55.84-7.19c15.08-3.03,31.59-8.25,39.81-22.31c8.21-14.02,7.89-29.96,0.71-44.31    c-7.67-15.33-20.74-27.68-34.11-38.06c-13.23-10.26-27.62-19.09-42.52-26.69c-19.08-9.73-39.59-16.16-59.54-23.84    c-13.57-5.23-27.07-10.65-40.43-16.42c-12.43-5.37-24.91-10.74-36.42-17.93c-17.56-10.97-32.44-25.38-44.7-42.01    c-9.03-12.25-16.83-25.33-24.45-38.5c-87.74,123.49-151.68,265.04-185.31,417.96C430.27,1217.96,436.86,1205.59,444.4,1194.12z" opacity=".2"/><path fill="#b7c9e4" d="M2333.54,784.02c0,0,19.98-30.47,18.91-36.31c-1.82-9.92-6.35-4.8,2.77-40.26       c6.3-24.52-6.64-37.72,0.98-42.2c14.99-8.83,22.62,34.42,22.62,34.42s22.33-80.71,35.97-74.66c7.35,3.26-9.81,63.77-9.81,63.77       s10.72-10.13,16.29-5.18c8.21,7.29,0.87,18.72,0.87,18.72s7.51-3.24,11.87,3.82c4.98,8.07-2.82,15.12-2.82,15.12       s5.86-2.53,9.37,0.4c3.51,2.94,8.15,10.2-9.55,27.39c-14.41,13.99-42.9,15.28-60.99,60.2L2333.54,784.02z"/><path fill="#b7c9e4" d="M2337.3,769.11l-237.81,349.83l-488.13-86.36c-2.5,29.27,2.46,252.45,123.91,255.33     c86.41,7.46,402.01,33.72,465.61-11.26c163.12-115.38,180.23-484.38,180.23-484.38L2337.3,769.11z"/><path fill="#1f3c66" d="M1990.48,2542.51c-33.19,13.88-67.11,26.19-101.81,36.87c-9.41,2.96-18.95,5.79-28.49,8.45        c-77.55,21.79-158.48,35.61-241.7,40.62c-8.99,0.54-18.05,0.97-27.1,1.27c-11.89,0.48-23.9,0.72-35.91,0.78        c-46.23-241.34-86.84-463.92-112.92-608.46h512.98C1980.77,2160.19,1990.36,2344.26,1990.48,2542.51z"/><path fill="#19395e" d="M1646.85,2022.04c-6.88,131.99-22.15,354.38-55.46,607.67c-11.89,0.48-23.9,0.72-35.91,0.78        c-2.35,0.06-4.77,0.06-7.12,0.06c-4.1,0-8.27,0-12.37-0.12c-6.64,0-13.22-0.12-19.8-0.3c-0.6,0-1.21-0.06-1.81-0.06        c-96.2-2.78-189.44-17.38-278.4-42.37c-32.83-9.23-65.12-19.86-96.68-31.93c-1.87-0.72-3.74-1.39-5.55-2.17        c7-203.32,23.66-392.04,55.82-531.57H1646.85z"/><path fill="#274675" d="M1478.06,1034.46c-113.26-14.22-471.24,441.2-471.24,441.2L759,1148.98l-82.61,63.83      c0,0,202.59,664.61,364.22,664.61c161.64,0,309.78-247.82,309.78-247.82S1639.29,1054.69,1478.06,1034.46z"/><path fill="#1f3c66" d="M1245.32,1690.77c2.19-74.29,17.23-147.96,37.81-219.19c10.49-36.31,22.69-71.87,37.21-106.77      c14.55-34.99,30.28-69.72,40.97-106.14c-4.83,1.97-9.66,3.94-14.45,6.01c-31.71,13.69-62.66,29.33-92.02,47.56      c-30.53,18.96-60.02,40.97-83.85,68.05c-21.4,24.32-38.28,53.47-41.39,86.23c-2.69,28.3,0.19,56.99,1.35,85.3      c1.24,30.09,1.8,60.87-5.22,90.36c-6.43,27-20.83,51.41-45.49,65.34c-16.46,9.29-34.97,13.23-53.78,12.77      c-11.59-0.28-23.12-1.89-34.49-4.06c-10-1.9-19.61-3.98-28.8-8.5c-18.41-9.07-34.12-22.56-51.72-32.97      c-13.69-8.1-29.36-13.59-45.33-9.77c-3.88,0.93-7.4,2.42-10.68,4.27c59.01,115.83,124.94,208.17,185.18,208.17      c77.01,0,150.95-56.26,207.27-115.17C1245.33,1738.54,1244.62,1714.6,1245.32,1690.77z"/><path fill="#274675" d="M1164.52,2095.21c-73.28-251.39,119.7-1073.12,408.11-1079.3c300.01-6.43,589.65,920.87,404.82,1129.99      C1851.81,2288.07,1474.3,2207.86,1164.52,2095.21z"/><path fill="#203a6f" d="M1301.97 1356.72c0 0 113.91 3.13 147.35-2.09C1449.32 1354.63 1402.29 1385.99 1301.97 1356.72zM1318.69 2019.27c0 0 113.91 3.14 147.35-2.09C1466.04 2017.17 1419.01 2048.52 1318.69 2019.27zM1736.7 2019.27c0 0 113.9 3.14 147.34-2.09C1884.04 2017.17 1837.02 2048.52 1736.7 2019.27z"/><path fill="#2e2e2e" d="M1702.56,684.93c-5.36-37.55-42-39.57-42-39.57l-140.02,18.97l-65.51-18.97c0,0-36.63,2.01-42,39.57          c-5.36,37.55-3.04,160.16,74.92,203.94c1.48,0.83,138.32,0.77,139.69,0C1705.6,845.09,1707.92,722.48,1702.56,684.93z"/><path fill="#ffb092" d="M1464.83,692.63c23.75-41.74,6.96-33.83,109.98-35.33c103.02-1.5,107.65,102.47,98.57,163.29          c-8.58,57.48-35.09,96.13-66.25,119.03l16.61,78.89c0,0-13,35.52-67.23,33.29c-57.97-2.38-61.72-32.6-61.72-32.6          s19.3-50.49,18.4-68.1C1447.11,911.97,1434.63,745.69,1464.83,692.63z"/><path fill="#33133f" d="M1632.81 856.84c1.02 7.51-7.36 14.84-18.71 16.38-11.36 1.54-21.39-3.29-22.41-10.8-1.02-7.51 7.36-14.84 18.71-16.38C1621.76 844.5 1631.79 849.34 1632.81 856.84zM1504.84 853.44c1.02 7.51-7.36 14.84-18.71 16.38-11.35 1.55-21.39-3.29-22.41-10.8-1.02-7.51 7.36-14.84 18.71-16.38C1493.79 841.1 1503.82 845.94 1504.84 853.44z" opacity=".05"/><path fill="#603d52" d="M1512.5 760.87c-1.09-.03-2.13-.64-2.69-1.67-.48-.91-12.05-21.46-42.43-9.15-1.6.65-3.45-.12-4.11-1.74-.66-1.62.12-3.46 1.74-4.11 35.82-14.52 50.24 11.78 50.38 12.04.81 1.54.22 3.46-1.32 4.27C1513.58 760.78 1513.04 760.89 1512.5 760.87zM1573.74 763.39c-.4-.01-.79-.1-1.17-.27-1.59-.7-2.32-2.55-1.63-4.14.12-.28 12.47-27.48 53.71-17.24 1.7.42 2.73 2.14 2.31 3.83-.43 1.69-2.15 2.73-3.83 2.3-35.85-8.89-45.99 12.72-46.41 13.64C1576.19 762.73 1574.99 763.43 1573.74 763.39zM1544.5 852.58c-1.09-.04-2.16-.23-3.2-.56-6.63-2.16-9.22-9.79-9.33-10.11-.31-.95-.16-1.99.41-2.8 11.84-16.97 9.63-40.61 9.61-40.84-.18-1.73 1.08-3.28 2.82-3.46 1.68-.21 3.29 1.08 3.46 2.82.11 1.03 2.39 24.9-9.72 43.64.85 1.68 2.48 4.04 4.74 4.76 2.12.68 4.74-.09 7.79-2.27 1.42-1.01 3.39-.69 4.41.73 1.01 1.42.69 3.39-.74 4.41C1551.17 851.44 1547.74 852.68 1544.5 852.58z"/><path fill="#fcfaf7" d="M1513.9,895.64c0,0,35.49,17.47,76.44,0C1598.95,912.7,1533.38,951.52,1513.9,895.64z"/><path fill="#603d52" d="M1504.61 799.86c-.37 9.78-5.99 17.61-12.72 17.36-6.85-.25-11.98-8.31-11.61-18.22.24-9.78 5.99-17.61 12.72-17.36.98 0 1.96.25 2.93.73-.49 1.22-.86 2.69-.86 4.16-.24 5.01 2.45 9.17 5.87 9.17 1.1 0 2.2-.37 3.18-1.22C1504.49 796.19 1504.61 798.03 1504.61 799.86zM1614.28 803.29c-.37 9.9-6.11 17.73-12.84 17.48-6.72-.24-11.86-8.44-11.62-18.22.37-9.78 6.11-17.61 12.84-17.36.24 0 .61 0 .86.12-.25.98-.49 2.08-.49 3.18-.24 5.01 2.45 9.17 5.87 9.17 1.1 0 2.2-.37 3.18-1.22.37-.25.73-.61 1.1-1.1C1613.92 797.66 1614.41 800.47 1614.28 803.29z"/><path fill="#ffb092" d="M1458.7 805.89c0 0-16.05-27.52-26.37-8.03-10.32 19.49 12.57 58.6 27.48 58.6C1474.71 856.47 1458.7 805.89 1458.7 805.89zM1664.5 805.89c0 0 16.05-27.52 26.37-8.03 10.32 19.49-12.57 58.6-27.48 58.6C1648.48 856.47 1664.5 805.89 1664.5 805.89z"/><path fill="#2e2e2e" d="M1595.52,579.22c19.78,17.24,35.36,30.72,47.66,41.28c1.48,0.45,2.96,0.89,4.49,1.19         c14.7,2.88,33.56,0.29,40.64,16.18c3,6.72,2.5,13.62,0.58,20.67c0.02,0.01,0.04,0.02,0.04,0.02s-0.05,0.07-0.06,0.1         c-3.5,12.78-11.67,26.07-12.58,39.85c0.35-5.26,16.92,16.76,17.85,21.65c2.82,14.71,6.76,37.32-6.13,43.67         c-7.5,3.69-12.77,23.54-21.91,47.08c3.33-29.89,8.79-44.02-11.4-73.22c-14.93,9.33-35.61-2.18-40.38-21.41         c-28.37,10.91-65.07,15.93-110.67,4.92c-25.26,5.01-56.41,3.71-69.74-22.81c-3.87-7.7-5.48-16.15-5.59-24.88         c-8.11-12.81-14.41-28.98-17.04-49.5C1399.76,534.44,1505.96,501.17,1595.52,579.22z"/><path fill="#fff" d="M1479.1,694.24c0,0,76.74,25.61,149.65-2.18C1628.75,692.06,1541.62,736.03,1479.1,694.24z" opacity=".25"/><path fill="#fff" d="M1537.75 686.41c0 0 49.45 16.5 96.44-1.4C1634.19 685.01 1578.04 713.34 1537.75 686.41zM1432.59 587.88c-3.48-19.41 16.97-45.66 66.42-42.5 49.45 3.16 122.93 69.99 122.93 69.99s-51.87-41.87-98.12-41.25C1477.58 574.76 1437.83 617.1 1432.59 587.88z" opacity=".25"/><g opacity=".55"><path fill="#ea967d" d="M1536.94 793.99c-.36-1.18-.77-2.37-1.24-3.5-.62-1.55-1.34-3.09-2.06-4.53-.77-1.39-1.65-2.73-2.53-4.02-4.79-6.96-11.59-12.42-19.63-15.56-4.84-1.96-10.15-2.99-15.66-2.99-1.6 0-3.2.1-4.74.26-6.34.72-12.26 2.78-17.47 5.92-3.4 2.11-6.54 4.64-9.22 7.57-3.61 3.81-6.49 8.35-8.45 13.34-1.08 2.68-1.86 5.46-2.32 8.4-.46 2.42-.67 4.84-.67 7.37 0 2.47.21 4.84.62 7.21 1.49 8.97 5.82 17 12 23.13 6.49 6.44 14.94 10.82 24.42 12.11 1.91.26 3.86.41 5.82.41 5.25 0 10.3-.93 14.94-2.68 16.28-6.08 27.93-21.79 27.93-40.19C1538.69 801.98 1538.07 797.91 1536.94 793.99zM1507.93 842.99c-3.81 1.29-7.88 1.96-12.11 1.96-1.96 0-3.86-.15-5.72-.46-3.55-.46-6.95-1.49-10.1-2.99-.15-.05-.31-.1-.41-.15-6.13-2.78-11.39-7.16-15.2-12.62-3.45-4.74-5.82-10.3-6.75-16.33-.36-2.01-.52-4.02-.52-6.13 0-.88.05-1.75.16-2.58.26-4.69 1.39-9.12 3.19-13.19 3.04-6.85 7.99-12.67 14.22-16.69 4.84-3.14 10.41-5.26 16.38-5.98 1.55-.21 3.14-.31 4.74-.31 15.77 0 29.32 9.43 35.34 22.98.67 1.49 1.24 2.99 1.7 4.59 1.08 3.55 1.65 7.32 1.65 11.18 0 9.22-3.2 17.62-8.6 24.27C1521.32 836.24 1515.09 840.67 1507.93 842.99zM1642.92 795.9c-.16-.62-.36-1.29-.52-1.91-.36-1.18-.77-2.37-1.24-3.5-1.34-3.4-3.09-6.59-5.2-9.48-3.14-4.28-7.01-7.93-11.49-10.77-2.42-1.6-5-2.94-7.73-4.02-4.79-1.8-10-2.83-15.46-2.83-12.47 0-23.75 5.36-31.58 13.91-.05.05-.1.1-.15.16-3.45 3.76-6.24 8.19-8.14 13.04-1.91 4.84-2.99 10.2-2.99 15.77 0 2.47.21 4.84.62 7.21 3.4 20.2 21.07 35.65 42.25 35.65 8.97 0 17.31-2.73 24.16-7.47 11.28-7.73 18.7-20.71 18.7-35.4C1644.16 802.7 1643.74 799.2 1642.92 795.9zM1625.35 836.55c-6.6 5.26-14.94 8.4-24.06 8.4-5.67 0-11.03-1.24-15.87-3.45-.05-.05-.1-.05-.15-.05-11.59-5.25-20.15-16.07-22.15-29.06-.36-2.01-.52-4.02-.52-6.13 0-5.62 1.18-10.97 3.35-15.77 6.03-13.55 19.63-22.98 35.34-22.98 8.76 0 16.8 2.89 23.24 7.83 5.26 3.86 9.43 9.07 12.11 15.15.67 1.49 1.24 2.99 1.7 4.59 1.08 3.55 1.65 7.32 1.65 11.18 0 9.12-3.14 17.47-8.4 24.06C1629.78 832.64 1627.67 834.75 1625.35 836.55z"/></g><path fill="#141430" d="M1675.25,780.71l-32.96,0.29c-3.25-6.02-7.88-11.22-13.49-15.09c-6.9-4.79-15.25-7.57-24.32-7.57        c-15.76,0-29.56,8.54-37.03,21.26h-31.41c-7.47-12.71-21.27-21.26-37.03-21.26c-1.18,0-2.37,0.05-3.56,0.15        c-6.8,0.57-13.14,2.68-18.7,6.03c-6.54,4.07-11.95,9.74-15.56,16.49c0,0,0,0,0,0.01l-13.25,0.62v14.87l8.56-0.62        c0,0,0,0.01,0,0.01c-0.1,0.41-0.1,0.77-0.15,1.18c-0.15,1.34-0.21,2.73-0.21,4.12c0,4.28,0.62,8.35,1.75,12.26        c2.16,7.16,6.13,13.5,11.38,18.55c4.17,4.07,9.12,7.21,14.63,9.33c0.1,0.05,0.26,0.1,0.41,0.15c3.19,1.13,6.59,1.96,10.1,2.32        c1.49,0.15,3.04,0.26,4.59,0.26c4.38,0,8.6-0.67,12.62-1.85c7.21-2.27,13.6-6.34,18.6-11.7c7.21-7.62,11.64-17.93,11.64-29.32        c0-2.47-0.21-4.84-0.62-7.21c-0.21-1.18-0.41-2.37-0.72-3.5c-0.41-1.54-0.87-3.08-1.44-4.52h25.29        c-0.56,1.44-1.03,2.98-1.44,4.52c-0.88,3.4-1.34,7.01-1.34,10.72c0,4.28,0.62,8.35,1.75,12.26        c3.86,12.88,13.65,23.29,26.23,27.98c0.05,0,0.1,0,0.15,0.05c4.59,1.65,9.53,2.58,14.74,2.58c9.43,0,18.14-3.04,25.19-8.14        c2.27-1.7,4.33-3.56,6.23-5.62c7.11-7.63,11.44-17.83,11.44-29.11c0-1.8-0.1-3.56-0.36-5.31c0-0.01,0-0.01,0-0.01h26.14        L1675.25,780.71z M1508.8,838.61c-3.09,0.87-6.39,1.29-9.79,1.29c-1.49,0-2.99-0.1-4.48-0.31        c-11.02-1.24-20.61-7.11-26.79-15.61c-2.52-3.45-4.54-7.37-5.77-11.59c-1.03-3.3-1.55-6.8-1.6-10.41        c-0.05-0.26-0.05-0.52-0.05-0.77c0-3.71,0.52-7.32,1.55-10.72c1.34-4.95,3.71-9.43,6.85-13.34c2.52-3.25,5.62-6.08,9.07-8.35        c5.15-3.4,11.18-5.57,17.62-6.13c1.19-0.15,2.37-0.21,3.61-0.21c6.03,0,11.75,1.39,16.8,3.92        c9.84,4.69,17.31,13.45,20.35,24.11c0.46,1.49,0.82,3.04,1.03,4.59c0.36,2.01,0.52,4.02,0.52,6.13        C1537.71,819.19,1525.44,834.29,1508.8,838.61z M1629.57,830.68c-6.75,5.77-15.51,9.22-25.09,9.22        c-17.52,0-32.25-11.59-37.04-27.51c-1.08-3.56-1.65-7.32-1.65-11.18c0-3.71,0.52-7.32,1.55-10.72        c1.34-4.79,3.61-9.22,6.54-13.04c0.05-0.05,0.1-0.1,0.15-0.16c7.06-9.02,18.08-14.84,30.45-14.84        c5.98,0,11.59,1.34,16.59,3.76c2.78,1.29,5.41,2.94,7.78,4.89c6.08,4.9,10.61,11.65,12.78,19.37        c0.46,1.49,0.82,3.04,1.03,4.59c0.36,2.01,0.52,4.02,0.52,6.13C1643.17,813.01,1637.92,823.57,1629.57,830.68z"/><path fill="#33133f" d="M1514.55,952.82c0,0,37.65,20.2,81.72-2.75C1596.27,950.07,1566.89,1032.71,1514.55,952.82z" opacity=".15"/><polygon fill="#fff" points="1498.1 1007.17 1554.86 1055.76 1618.8 995.65 1638.21 1015.67 1617.21 1666.75 1479.02 1028.94"/><polygon fill="#4977ad" points="1541.28 1048.79 1583.42 1043.56 1601.54 1058.89 1591.09 1090.59 1659.02 1468.89 1615.82 1669.54 1519.68 1456.35 1551.73 1089.2 1536.05 1070.39"/><path fill="#1f3c66" d="M1624.81,1278.39c-6.05,17.36-12.75,34.46-19.37,51.15c-18.08,45.63-38.58,90.24-57.69,135.43      c-3.85,9.11-7.85,18.21-11.88,27.31l79.94,177.26l43.19-200.65L1624.81,1278.39z" opacity=".1"/><path fill="#1f3c66" d="M1634.63,1012.56c-33.78,30.65-14.62,656.97-14.62,656.97l96.84-202.05l-41.8-158.84l37.62-102.41      C1712.67,1206.24,1671.91,1025.44,1634.63,1012.56z"/><path fill="#1f3c66" d="M1479.62,1028.58c62.7,49.12,141.08,645.83,141.08,645.83l-135.85-190.19l6.27-186.01l-54.34-96.15      C1436.78,1202.06,1460.8,1031.72,1479.62,1028.58z"/><path fill="#203a6f" d="M1620.31 1666.64l6.37 505.76c0 0 22.39-171.11 14.92-285.82C1634.14 1771.87 1620.31 1666.64 1620.31 1666.64zM1580.99 1635.74c0 9.24-7.48 16.73-16.72 16.73-9.23 0-16.71-7.49-16.71-16.73 0-9.23 7.48-16.71 16.71-16.71C1573.5 1619.03 1580.99 1626.51 1580.99 1635.74zM1580.99 1812.35c0 9.24-7.48 16.72-16.72 16.72-9.23 0-16.71-7.48-16.71-16.72 0-9.23 7.48-16.71 16.71-16.71C1573.5 1795.64 1580.99 1803.12 1580.99 1812.35zM1588.66 1998.02c0 9.23-7.49 16.72-16.72 16.72-9.24 0-16.73-7.48-16.73-16.72 0-9.23 7.49-16.71 16.73-16.71C1581.17 1981.3 1588.66 1988.78 1588.66 1998.02z"/><path fill="#274675" d="M709.72,1092.97l-33.19,43.93l10.91,20.04l-38.1,45.1c0,0-34.73,0.55-29.55,24.53         c5.18,23.98,54.47,39.44,54.47,39.44s123.92-148.85,119.63-161.62C789.6,1091.63,709.72,1092.97,709.72,1092.97z"/><linearGradient id="a" x1="-1798.777" x2="-1761.257" y1="522.188" y2="522.188" gradientTransform="scale(-1 1) rotate(-2.55 13600.394 -24073.81)" gradientUnits="userSpaceOnUse"><stop offset="0" stop-color="#6c696a" stop-opacity=".134"/><stop offset="1" stop-color="#231f20" stop-opacity=".2"/></linearGradient><path fill="url(#a)" d="M689.04,1162.57c0,0,2.94,5.6-2.05,10.22c-4.99,4.62-8.84,2.74-8.84,2.74s-0.56,3.04-3.9,9.09         c-3.34,6.05-8.8,3.35-8.8,3.35s-3.02,3.12-3.41,4.82c-0.38,1.7-0.25,9.75-4.66,9.49c-4.41-0.26-6.54-1.95-6.54-1.95         l16.01-19.05l14.64-17.21L689.04,1162.57z"/><path fill="#fff" d="M725.49,1093.72l-35.2,46.31l11.58,21.14l-40.42,47.55c0,0-36.86,0.57-31.35,25.86         c5.51,25.29,57.81,41.61,57.81,41.61s52.01-109.4,126.9-170.4C810.26,1092.33,725.49,1093.72,725.49,1093.72z"/><linearGradient id="b" x1="-1920.85" x2="-1741.282" y1="516.437" y2="516.437" gradientTransform="scale(-1 1) rotate(-2.55 13600.394 -24073.81)" gradientUnits="userSpaceOnUse"><stop offset="0" stop-color="#fff" stop-opacity="0"/><stop offset=".5" stop-color="#231f20" stop-opacity=".2"/></linearGradient><path fill="url(#b)" d="M709.82,1219.88         c4.91-10.02,10.58-19.59,16.77-28.86c6.31-9.44,12.99-18.62,19.29-28.06c2.34-3.51,4.75-6.99,6.7-10.74         c1.96-3.77,3.64-7.97,3.55-12.29c-0.17-7.83-6.49-12.48-12.88-15.69c-6.68-3.35-13.84-5.44-20.71-8.32         c-3.57-1.5-7.26-2.67-10.91-3.97l13.86-18.23c0,0,84.77-1.39,89.32,12.07c-59.61,48.55-104.72,127.76-120.65,158.07         C697.61,1248.66,702.97,1233.87,709.82,1219.88z"/><path fill="#276093" d="M678.18 1172.52c2.39 1.76 6.41.38 8.97-3.1 2.57-3.48 2.71-7.72.31-9.49-2.39-1.76-6.41-.38-8.97 3.1C675.93 1166.51 675.79 1170.76 678.18 1172.52zM665.8 1185.96c2.39 1.77 6.41.38 8.98-3.1 2.57-3.48 2.7-7.73.31-9.49-2.39-1.76-6.41-.38-8.98 3.1C663.55 1179.95 663.41 1184.2 665.8 1185.96zM653.42 1199.41c2.39 1.77 6.41.38 8.98-3.1 2.56-3.48 2.7-7.73.31-9.49-2.39-1.77-6.41-.38-8.98 3.1C651.17 1193.39 651.03 1197.64 653.42 1199.41z"/><linearGradient id="c" x1="-1898.375" x2="-1762.993" y1="428.436" y2="614.831" gradientTransform="scale(-1 1) rotate(-2.55 13600.394 -24073.81)" gradientUnits="userSpaceOnUse"><stop offset="0" stop-color="#fff" stop-opacity="0"/><stop offset=".5" stop-color="#231f20" stop-opacity=".2"/><stop offset="1" stop-color="#d2d1d1" stop-opacity="0"/></linearGradient><path fill="url(#c)" d="M789.56,1110.57l-26.53,0.29        c0,0-83.25,127.41-106.99,131.26c-23.74,3.86,10.32,32.87,21.99,24.55C689.69,1258.35,743.81,1134.56,789.56,1110.57z"/><linearGradient id="d" x1="-1824.824" x2="-1786.858" y1="431.309" y2="483.58" gradientTransform="scale(-1 1) rotate(-2.55 13600.394 -24073.81)" gradientUnits="userSpaceOnUse"><stop offset="0" stop-color="#fff" stop-opacity="0"/><stop offset=".5" stop-color="#231f20" stop-opacity=".2"/></linearGradient><path fill="url(#d)" d="M690.29,1140.03l-13.75-3.14        c0,0,16.56-4.84,23.98-17.03c7.42-12.19,15.52-23.37,15.52-23.37l4.75,3.65L690.29,1140.03z"/><path fill="#f9f9f9" d="M685.13 1160.71c-.82-1.66-4.85.29-6.08 4.19-1.23 3.9-.91 8.2 1.57 7.11 2.49-1.09-.76-3.58.78-6.18C682.95 1163.23 685.83 1162.12 685.13 1160.71zM671.31 1175.09c-.69-1.4-4.11.25-5.15 3.56-1.04 3.31-.78 6.95 1.33 6.03 2.11-.92-.65-3.03.66-5.24C669.46 1177.23 671.91 1176.3 671.31 1175.09zM659.42 1188.56c-.69-1.4-4.11.25-5.15 3.56-1.05 3.31-.78 6.95 1.33 6.03 2.11-.92-.65-3.03.66-5.24C657.57 1190.7 660.02 1189.76 659.42 1188.56z" opacity=".26"/><path fill="#1a3f76" d="M858.98,1057.22c-4.81,21.73-0.4,41.18,9.84,43.45c10.24,2.27,22.45-13.51,27.26-35.23       c4.81-21.73,0.4-41.18-9.84-43.45C875.99,1019.72,863.79,1035.49,858.98,1057.22z"/><path fill="#6f95d5" d="M858.98,1057.22c-4.81,21.73-0.4,41.18,9.84,43.45c10.24,2.27,22.45-13.51,27.26-35.23       c4.81-21.73,0.4-41.18-9.84-43.45C875.99,1019.72,863.79,1035.49,858.98,1057.22z"/><path fill="#163a68" d="M839.66,1052.94c-7.29,32.93-3.64,61.75,8.15,64.36c11.79,2.61,27.25-21.98,34.54-54.91       c7.29-32.93,3.65-61.74-8.14-64.36C862.42,995.43,846.95,1020.01,839.66,1052.94z"/><path fill="#1f3c66" d="M839.66,1052.94c-7.29,32.93-3.64,61.75,8.15,64.36c11.79,2.61,27.25-21.98,34.54-54.91       c7.29-32.93,3.65-61.74-8.14-64.36C862.42,995.43,846.95,1020.01,839.66,1052.94z"/><path fill="#e5eaf6" d="M822.42,1049.13c-9.31,42.06-7.3,78.27,4.49,80.88c11.79,2.61,28.89-29.37,38.2-71.43       c9.31-42.06,7.3-78.27-4.48-80.88C848.83,975.09,831.73,1007.07,822.42,1049.13z"/><path fill="#274675" d="M860.62,977.7l-159.5-35.3l-33.71,152.31l159.5,35.3C826.91,1130.01,879.32,1047.03,860.62,977.7z"/><path fill="#163a68" d="M662.92,1013.82c-9.31,42.06-7.3,78.27,4.49,80.88c11.79,2.61,28.89-29.37,38.2-71.43       c9.31-42.06,7.3-78.27-4.49-80.88C689.34,939.78,672.23,971.76,662.92,1013.82z"/><path fill="#274675" d="M662.92,1013.82c-9.31,42.06-7.3,78.27,4.49,80.88c11.79,2.61,28.89-29.37,38.2-71.43       c9.31-42.06,7.3-78.27-4.49-80.88C689.34,939.78,672.23,971.76,662.92,1013.82z"/><path fill="#e5eaf6" d="M497.58,801.37c83.83,88.89,199.87,145.73,199.87,145.73l-0.11,0.56c8.15,3.56,8.12,35.91-0.26,73.72       c-8.61,38.88-22.77,68.82-31.63,66.86c-0.42-0.09-0.81-0.28-1.18-0.5c-16.9,0.55-135.49,5.83-240.64,47.71       c-113.51,45.22-143.3,41.89-143.3,41.89l49.4-223.2l6.2-28.02l49.4-223.2C385.35,702.93,413.76,712.48,497.58,801.37z"/><path fill="#6f95d5" d="M551.46,1076.64c20.12-0.78,40.44,1.43,60.44-1.53c18.61-2.75,37.66-8.78,51.52-22.04       c13.6-13.01,21.94-30.53,29.17-47.62c2.21-5.22,4.27-10.38,5.65-15.9c1.39-5.51,2.25-11.13,2.93-16.76       c0.54-4.46,0.99-8.93,1.5-13.39c1.91,13.36,0.07,36.41-5.59,61.97c-8.61,38.88-22.77,68.82-31.63,66.86       c-0.42-0.09-0.81-0.28-1.18-0.5c-16.9,0.55-135.49,5.83-240.64,47.71c-113.51,45.22-143.3,41.89-143.3,41.89       S444.53,1080.79,551.46,1076.64z" opacity=".25"/><linearGradient id="e" x1="-1143.478" x2="-1358.337" y1="144.564" y2="186.751" gradientTransform="scale(-1 1) rotate(-12.485 2447.784 -2670.416)" gradientUnits="userSpaceOnUse"><stop offset="0" stop-color="#fff" stop-opacity=".2"/><stop offset="1" stop-color="#fff" stop-opacity="0"/></linearGradient><path fill="url(#e)" d="M433.85,812.39l1.73,63.69       c0,0,76.51,56.13,213.01,79.56C648.59,955.63,492.5,887.92,433.85,812.39z"/><path fill="#6f95d5" d="M371.62,1107.15l28.45-57.01c0,0,93.05-18.59,226.68,17.77C626.75,1067.9,456.67,1063.42,371.62,1107.15z       " opacity=".25"/><path fill="#274675" d="M243.43,920.22c-28.98,130.94-11.47,246.17,39.12,257.37c50.59,11.2,115.1-85.88,144.08-216.82        c28.98-130.94,11.47-246.17-39.12-257.37C336.92,692.21,272.41,789.28,243.43,920.22z"/><path fill="#6f95d5" d="M253.48,922.44c-27.46,124.06-14.18,232.5,29.67,242.21c43.84,9.7,101.65-83,129.11-207.06        c27.46-124.06,14.18-232.51-29.67-242.21C338.75,705.67,280.95,798.38,253.48,922.44z"/><linearGradient id="f" x1="-1053.614" x2="-957.476" y1="264.154" y2="401.494" gradientTransform="scale(-1 1) rotate(-12.485 2447.784 -2670.416)" gradientUnits="userSpaceOnUse"><stop offset="0" stop-color="#fff" stop-opacity=".5"/><stop offset="1" stop-color="#fff" stop-opacity="0"/></linearGradient><path fill="url(#f)" d="M291.15,807.67        c-2.64,9.97-5.13,19.98-7.36,30.05c-5.82,26.18-9.67,52.67-12.43,79.34c-2,19.34-3.33,38.81-2.65,58.25        c0.65,18.61,3.12,37.45,9.56,55c6.12,16.66,16.07,31.84,30.12,42.87c15.63,12.28,35.24,18.95,54.76,22.12        c-25.76,47.41-55.12,74.86-79.98,69.35c-43.85-9.71-57.13-118.14-29.67-242.21C263.01,879.43,276.18,840.18,291.15,807.67z"/><path fill="#f9f9f9" d="M323.45,903.24l-14.96,67.59l92.47,30.55c4.16-14.03,7.96-28.69,11.3-43.78        c3.34-15.08,6.07-29.91,8.21-44.36L323.45,903.24z"/><path fill="#f9f9f9" d="M323.45,903.24l-14.96,67.59l92.47,30.55c4.16-14.03,7.96-28.69,11.3-43.78        c3.34-15.08,6.07-29.91,8.21-44.36L323.45,903.24z"/><path fill="#e5eaf6" d="M323.45,903.24l-14.96,67.59l92.47,30.55c4.16-14.03,7.96-28.69,11.3-43.78        c3.34-15.08,6.07-29.91,8.21-44.36L323.45,903.24z"/><path fill="#274675" d="M297.41,932.92c-4.13,18.66,0.82,35.63,11.07,37.9c10.25,2.27,21.9-11.02,26.03-29.68        c4.13-18.66-0.83-35.63-11.07-37.9C313.19,900.96,301.54,914.26,297.41,932.92z"/><path fill="#b7c9e4" d="M303.62,934.29c-3.2,14.46-0.27,27.4,6.55,28.91c6.82,1.51,14.94-8.99,18.14-23.44        c3.2-14.46,0.27-27.4-6.55-28.91C314.94,909.34,306.82,919.84,303.62,934.29z"/><g><path fill="#f4c2b3" d="M643.22,1121.9c0,0,5.38-3.09,18.34-9.74c12.96-6.66,24.34-9.91,30.78-5.91        c6.44,4-2.4,18.79-18.16,30.58S644.1,1133.18,643.22,1121.9z"/><path fill="#febea5" d="M643.22,1121.9c0,0,100.98,24.57,98.54,43.89c-1.14,9.03-35.94,3.73-62.86-1.73         c32.68,7.88,60.27,18.42,54.51,27.26c-4.43,6.8-34.03,1.91-61.03-2.45c18.24,4.68,55.45,15.41,53.06,23.27         c-4.06,13.34-41.55,4.33-66.73-2.3c14.72,4.97,52.6,17.56,50.49,24.78c-1.87,6.39-10.9,9.9-42.53,1.44         c-18.46-4.94-18.82-1.24-26.77-5.14c-6.14-3-12.83-5.43-16.58-10.29C605.21,1197.27,627.35,1125.25,643.22,1121.9z"/><path fill="#fff" d="M706.34 1235c.41-3.51-9.46-8.74-10.68-8.45 0 0-2.71 8.66-2.5 10.34C693.36 1238.58 705.94 1238.51 706.34 1235zM722.82 1212.95c.41-3.51-9.46-8.74-10.69-8.45 0 0-2.71 8.66-2.5 10.34C709.85 1216.53 722.42 1216.45 722.82 1212.95zM731.09 1188.2c.41-3.51-9.46-8.74-10.68-8.45 0 0-2.71 8.66-2.5 10.34C718.11 1191.79 730.68 1191.71 731.09 1188.2zM738.63 1163.71c.41-3.51-9.46-8.74-10.68-8.44 0 0-2.71 8.66-2.5 10.34C725.66 1167.29 738.23 1167.22 738.63 1163.71z" opacity=".2"/><path fill="#231f20" d="M662.61,1211.13l-30.26-14.65c0,0-9.78,8.4-3.82,21.44c0,0-14.25-12.28-3.2-49         c11.05-36.72,16.65-40.22,16.65-40.22s-3.37,11.44,2.53,20.18c1.31,1.95,33.93,14.92,31.84,14.34         c-2.09-0.58-32.65-7.54-32.65-7.54l-4.56,15.58l29.17,15.86l-31.36-9.83l-3.35,13.44L662.61,1211.13z" opacity=".1"/></g><g><path fill="#527dba" d="M1963.6,2244.38c67.92,110.04,52.05,138.38,35.14,190.55c-16.57,51,95.17,88.51,29.78,191.6l24.36,5.77      c0,0,169.77,9.21,169.74-77.91c0-87.11-145.53-19.52-133.81-78.65c11.68-59.14,110.32-112.59,85.44-152.85      c-24.84-40.29-67.63,63.07-110.89,22.99c-43.22-40.1,57.79-94.02,57.08-149.21c-0.67-55.18-49.29-4.78-118.47,1.77      c-63.72,6.05,8.6-139.46-42.82-133.65C1939.88,2101.78,1917.9,2170.34,1963.6,2244.38z"/><path fill="#6f95d5" d="M1869.88,2344.82c4.54,58.41,134.11,121.17,69.82,150.65c-64.31,29.48-30.11,102.92-30.11,102.92      l118.92,28.14c65.4-103.09-46.35-140.6-29.78-191.6c16.92-52.18,32.79-80.51-35.14-190.55c-45.7-74.04-23.72-142.61-4.45-179.59      c-4.43,0.5-9.77,2.13-16.15,5.05c-80.99,37.01-21.21,162.33-9.76,191.41C1944.68,2290.33,1865.37,2286.45,1869.88,2344.82z"/><path fill="#b7c9e4" d="M2124.58 2281.39c7.06 17.73-6.74 44.63-12.1 54.01.57 8.38 1.12 23.62-1.13 34.09 8.27-6.98 17.5-13.29 27.88-18.46 9.48-4.73 17.56-10.02 24.53-15.63 6.2-8.34 12.01-14.85 20.03-20.64 14.77-19.76 19.58-40.02 21.09-52.66-8.58-10.97-13.86-20.11-16.86-36.41-3.37-18.35 33.04-29.06 38.54-8.87 5.03 18.49-14.44 44.55-17.78 48.83-1.67 11.33-5.81 27.14-15.77 43.31 1.68-.92 3.38-1.83 5.26-2.74 18.82-9.06 41.13 27.11 20.95 39-16.83 9.92-46.51-.29-55.91-3.96-6.46 4.87-13.77 9.48-22.14 13.65-31.32 15.62-52.29 41.71-65.97 66.03 6.14-1.81 14.22-1.75 20.69-1.44 14.02-9.42 24.82-14.91 44.27-16.86 20.78-2.08 29.39 39.53 6.36 43.81-19.03 3.54-43.12-15.77-50.94-22.6-7.88-.36-18.8-.4-23.35 3.2-.12.1-.28.1-.42.17-14.6 28.1-19.52 52.31-19.61 52.77-.23 1.18-1.37 1.95-2.55 1.72-.18-.03-.35-.09-.51-.16-.88-.41-1.41-1.39-1.21-2.39.14-.74 12.33-61.16 56.14-103.18.06-.07.08-.16.15-.23 4.55-4.64 4.9-24.44 3.97-39.27-12.07-12.01-19.65-21.58-25.36-40.37C2076.77 2276.14 2115.92 2259.63 2124.58 2281.39zM2243.03 2385c4.13 17.21-12.1 40.07-18.26 47.97-.59 7.77-2.11 21.83-5.56 31.13 8.52-5.31 17.83-9.88 28.04-13.25 5.66-1.87 10.82-4.02 15.65-6.35-8.24-11.33-13.33-20.97-15.87-37.61-2.92-19.14 35.2-29.11 40.27-7.99 2.7 11.28-3.32 24.94-9.53 35.26 4.7-4.19 9.47-7.7 15.2-10.7 16.18-16.18 23.28-34.13 26.33-45.54-6.42-11.21-10.06-20.29-10.65-35.65-.67-17.29 34.18-22.29 36.55-3.03 2.17 17.63-19.16 38.97-22.79 42.46-3.04 10.18-8.93 24.14-20.21 37.66 1.66-.62 3.35-1.24 5.19-1.82 18.47-5.82 34.16 30.33 14.06 38.57-16.76 6.87-42.65-6.43-50.79-11.04-6.57 3.61-13.89 6.88-22.13 9.6-2.15.71-4.26 1.49-6.33 2.3 6.27-1.41 13.06-2 21.44-1.64 19.35.84 21.74 40.18.03 41.05-17.45.71-36.41-19.05-43.19-26.84 0 0-12.79 2.51-41.25 36.99 5.87-.84 13.28.28 19.18 1.42 14.12-6.79 24.76-10.4 42.86-9.61 19.35.84 21.74 40.18.04 41.05-17.93.72-37.49-20.19-43.76-27.5-7.19-1.38-17.2-2.86-21.86-.15-.13.07-.27.06-.41.1-17.13 23.86-24.84 45.42-24.99 45.84-.37 1.05-1.52 1.61-2.57 1.24-.16-.05-.31-.13-.45-.22-.76-.5-1.11-1.46-.8-2.35.23-.66 19.42-54.5 65.2-87.26.06-.06.1-.14.17-.19 4.79-3.66 7.74-21.78 8.85-35.51-9.48-12.63-15.17-22.41-17.92-40.42C2199.84 2373.84 2237.96 2363.87 2243.03 2385zM1615.57 2638.2c-1.57 2.35-250.1 0-250.1 0s-43.21-52.6 29.52-90.96c41.13-21.69-30.58-61.69-8.2-104.04 22.38-42.36 68.38 11.99 87.74-25.57s60.12-122.28 76.9-69.53-64.74 85.52-11.19 124.68c53.55 39.16 119.88 59.14 54.35 73.53C1529.04 2560.67 1650.73 2585.6 1615.57 2638.2z"/></g><g><path fill="#527dba" d="M1280.21,2255.65c67.92,110.04,52.05,138.38,35.14,190.55c-16.57,51,95.18,88.51,29.78,191.6l24.36,5.77      c0,0,169.77,9.21,169.74-77.91c0-87.11-145.53-19.52-133.81-78.65c11.68-59.14,110.32-112.59,85.44-152.85      c-24.84-40.29-67.63,63.07-110.89,22.99c-43.22-40.1,57.79-94.02,57.08-149.21c-0.67-55.18-49.29-4.78-118.47,1.77      c-63.72,6.05,8.6-139.46-42.82-133.65C1256.49,2113.04,1234.51,2181.61,1280.21,2255.65z"/><path fill="#6f95d5" d="M1186.49,2356.08c4.54,58.41,134.11,121.17,69.82,150.66c-64.31,29.48-30.11,102.92-30.11,102.92      l118.92,28.14c65.4-103.09-46.35-140.6-29.78-191.6c16.92-52.18,32.79-80.51-35.14-190.55c-45.7-74.04-23.72-142.61-4.45-179.59      c-4.43,0.5-9.77,2.13-16.15,5.05c-80.99,37.01-21.21,162.33-9.76,191.41C1261.29,2301.59,1181.98,2297.71,1186.49,2356.08z"/><path fill="#b7c9e4" d="M1334.18 2332.08c7.06 17.73-6.74 44.63-12.1 54.01.56 8.38 1.12 23.62-1.13 34.09 8.27-6.98 17.5-13.29 27.88-18.46 9.48-4.73 17.56-10.02 24.53-15.63 6.2-8.34 12.01-14.85 20.03-20.65 14.77-19.76 19.58-40.02 21.09-52.66-8.58-10.97-13.86-20.11-16.86-36.41-3.37-18.35 33.04-29.06 38.54-8.87 5.03 18.49-14.44 44.55-17.78 48.83-1.67 11.33-5.81 27.14-15.77 43.31 1.68-.92 3.38-1.83 5.26-2.74 18.82-9.06 41.13 27.11 20.95 39-16.83 9.92-46.51-.29-55.91-3.96-6.46 4.87-13.77 9.48-22.14 13.65-31.32 15.62-52.3 41.71-65.97 66.03 6.14-1.81 14.22-1.75 20.69-1.44 14.02-9.42 24.82-14.91 44.27-16.86 20.78-2.08 29.39 39.53 6.36 43.81-19.03 3.54-43.12-15.77-50.94-22.6-7.88-.36-18.8-.4-23.35 3.2-.12.1-.28.1-.42.17-14.6 28.1-19.52 52.31-19.61 52.77-.23 1.18-1.37 1.95-2.55 1.72-.18-.03-.35-.09-.51-.16-.88-.41-1.41-1.39-1.21-2.38.14-.74 12.33-61.16 56.14-103.18.06-.07.08-.16.15-.23 4.55-4.64 4.9-24.44 3.97-39.27-12.07-12.01-19.65-21.58-25.36-40.37C1286.36 2326.83 1325.52 2310.32 1334.18 2332.08zM1593.72 2437.92c4.13 17.21-12.1 40.07-18.26 47.97-.59 7.77-2.1 21.83-5.56 31.13 8.52-5.31 17.83-9.88 28.04-13.25 5.66-1.87 10.82-4.02 15.64-6.35-8.24-11.33-13.33-20.97-15.87-37.61-2.92-19.14 35.2-29.11 40.27-7.99 2.7 11.28-3.32 24.94-9.53 35.26 4.7-4.19 9.47-7.7 15.2-10.7 16.18-16.18 23.28-34.13 26.33-45.54-6.42-11.21-10.06-20.29-10.65-35.65-.67-17.29 34.18-22.29 36.55-3.03 2.17 17.63-19.16 38.98-22.79 42.47-3.04 10.18-8.93 24.14-20.22 37.66 1.66-.62 3.35-1.24 5.19-1.82 18.47-5.82 34.16 30.33 14.06 38.57-16.76 6.87-42.65-6.43-50.79-11.04-6.57 3.61-13.89 6.88-22.13 9.6-2.15.71-4.26 1.49-6.33 2.3 6.27-1.41 13.06-2 21.44-1.64 19.35.84 21.74 40.18.03 41.05-17.45.71-36.41-19.05-43.19-26.84 0 0-12.79 2.51-41.25 36.98 5.87-.84 13.28.28 19.18 1.42 14.12-6.79 24.76-10.4 42.86-9.61 19.35.84 21.74 40.18.04 41.05-17.93.72-37.49-20.19-43.76-27.5-7.19-1.37-17.2-2.86-21.86-.15-.13.08-.27.06-.41.1-17.13 23.86-24.84 45.42-24.99 45.84-.37 1.05-1.52 1.61-2.57 1.24-.16-.05-.31-.13-.45-.22-.75-.5-1.11-1.46-.8-2.35.23-.66 19.42-54.5 65.2-87.26.06-.06.1-.14.17-.19 4.79-3.66 7.73-21.78 8.85-35.51-9.48-12.63-15.17-22.41-17.92-40.42C1550.53 2426.76 1588.65 2416.79 1593.72 2437.92z"/><path fill="#527dba" d="M932.18,2649.46c-1.57,2.35-250.1,0-250.1,0s-43.21-52.6,29.52-90.96c41.13-21.69-30.58-61.69-8.2-104.04     c22.38-42.36,68.38,11.99,87.74-25.57c19.36-37.56,60.12-122.28,76.9-69.53c16.78,52.75-64.74,85.52-11.19,124.68     c53.55,39.16,119.88,59.14,54.35,73.53C845.65,2571.94,967.34,2596.86,932.18,2649.46z"/></g><g><path fill="#fff" d="M1781.92,1188.7c-6.21,0.03-11.24,5.1-11.22,11.31l3.89,942.84c0.03,6.21,5.1,11.24,11.31,11.22        l676.83-2.79c6.21-0.03,11.24-5.09,11.22-11.31l-3.89-942.84c-0.03-6.21-5.1-11.24-11.31-11.22L1781.92,1188.7z"/><path fill="#6f95d5" d="M1915.08 1578.85l-40.65.17c-5.94.02-10.77-4.76-10.8-10.71-.02-5.94 4.76-10.77 10.71-10.8l40.65-.17c5.94-.02 10.77 4.77 10.79 10.71C1925.81 1574 1921.02 1578.82 1915.08 1578.85zM2127.81 1629.47l-253.17 1.04c-5.94.02-10.77-4.76-10.8-10.71-.02-5.94 4.76-10.77 10.71-10.8l253.17-1.04c5.94-.02 10.77 4.76 10.8 10.71C2138.55 1624.61 2133.76 1629.44 2127.81 1629.47zM2033.88 1736.85l94.37-.39c5.94-.02 10.77 4.76 10.8 10.71.02 5.94-4.76 10.77-10.71 10.8l-94.37.39c-5.94.02-10.77-4.77-10.79-10.71C2023.15 1741.7 2027.94 1736.87 2033.88 1736.85zM1875.08 1737.5l92.37-.38c5.94-.02 10.77 4.76 10.8 10.71.02 5.94-4.76 10.77-10.71 10.8l-92.37.38c-5.94.02-10.77-4.77-10.8-10.71C1864.35 1742.35 1869.14 1737.53 1875.08 1737.5zM1874.87 1686.01l253.17-1.04c5.94-.02 10.77 4.76 10.8 10.71.02 5.94-4.76 10.77-10.71 10.8l-253.17 1.04c-5.94.02-10.77-4.76-10.8-10.71C1864.14 1690.86 1868.93 1686.03 1874.87 1686.01zM1874.87 1856.7l253.17-1.04c5.94-.02 10.77 4.76 10.8 10.71.02 5.94-4.76 10.77-10.71 10.8l-253.17 1.04c-5.94.02-10.77-4.76-10.8-10.71C1864.14 1861.56 1868.93 1856.73 1874.87 1856.7zM1874.87 1964.63l253.17-1.04c5.94-.02 10.77 4.76 10.8 10.71.02 5.94-4.76 10.77-10.71 10.8l-253.17 1.04c-5.94.02-10.77-4.76-10.8-10.71C1864.14 1969.48 1868.93 1964.66 1874.87 1964.63zM1969.88 1839.19l-94.37.39c-5.94.02-10.77-4.76-10.8-10.71-.02-5.94 4.76-10.77 10.71-10.8l94.37-.39c5.94-.02 10.77 4.77 10.79 10.71C1980.61 1834.34 1975.82 1839.17 1969.88 1839.19zM1969.88 2026.72l-94.37.39c-5.94.03-10.77-4.76-10.8-10.71-.02-5.94 4.76-10.77 10.71-10.8l94.37-.39c5.94-.02 10.77 4.77 10.79 10.71C1980.61 2021.87 1975.82 2026.7 1969.88 2026.72zM1968.25 1247.14c18.46 0 27.95 8.28 27.95 22.78v2.85h-17.94v-3.76c0-6.47-3.45-8.93-9.49-8.93-6.04 0-9.49 2.46-9.49 8.93 0 18.64 37.1 22.13 37.1 48.02 0 14.5-9.66 22.78-28.3 22.78-18.63 0-28.3-8.28-28.3-22.78v-5.57h17.95v6.47c0 6.47 3.8 8.8 9.84 8.8 6.04 0 9.83-2.33 9.83-8.8 0-18.64-37.1-22.13-37.1-48.02C1940.29 1255.43 1949.78 1247.14 1968.25 1247.14zM2081.61 1338.78h-19.15l-3.28-16.44h-23.3l-3.28 16.44h-17.43l19.33-90.61h27.78L2081.61 1338.78zM2038.3 1310.05h18.29l-9.14-45.82L2038.3 1310.05zM2103.35 1248.18h18.98v77.66h31.23v12.94h-50.22V1248.18zM2193.76 1286.36h26.06v12.94h-26.06v26.53h32.79v12.94h-51.77v-90.61h51.77v12.94h-32.79V1286.36zM2276.76 1247.14c18.46 0 27.95 8.28 27.95 22.78v2.85h-17.94v-3.76c0-6.47-3.45-8.93-9.49-8.93-6.04 0-9.49 2.46-9.49 8.93 0 18.64 37.1 22.13 37.1 48.02 0 14.5-9.66 22.78-28.3 22.78-18.63 0-28.3-8.28-28.3-22.78v-5.57h17.95v6.47c0 6.47 3.8 8.8 9.84 8.8 6.04 0 9.83-2.33 9.83-8.8 0-18.64-37.1-22.13-37.1-48.02C2248.8 1255.43 2258.29 1247.14 2276.76 1247.14zM1934.86 1451.81c-1.04-2.33-1.73-3.75-1.73-11.13v-14.24c0-8.41-3.8-11.52-12.42-11.52h-6.56v36.89h-18.98v-90.61h28.65c19.67 0 28.13 6.86 28.13 20.84v7.12c0 9.32-3.97 15.4-12.42 18.38 9.49 2.98 12.6 9.84 12.6 19.29v13.98c0 4.4.17 7.64 2.07 11H1934.86zM1914.15 1374.15v27.83h7.42c7.07 0 11.39-2.33 11.39-9.58v-8.93c0-6.47-2.93-9.32-9.66-9.32H1914.15zM1996.46 1399.39h26.06v12.95h-26.06v26.53h32.79v12.94h-51.77v-90.61h51.77v12.94h-32.79V1399.39zM2110.17 1383.6v11.78c0 14.5-9.32 22.39-28.3 22.39h-8.97v34.04h-18.98v-90.61h27.96C2100.85 1361.21 2110.17 1369.1 2110.17 1383.6zM2072.89 1374.15v30.68h8.97c6.04 0 9.32-2.07 9.32-8.54v-13.59c0-6.47-3.28-8.54-9.32-8.54H2072.89zM2131.21 1382.95c0-14.5 10.18-22.78 28.82-22.78 18.63 0 28.82 8.28 28.82 22.78v47.11c0 14.5-10.18 22.78-28.82 22.78-18.64 0-28.82-8.28-28.82-22.78V1382.95zM2150.19 1430.97c0 6.47 3.8 8.93 9.84 8.93 6.04 0 9.83-2.46 9.83-8.93v-48.93c0-6.47-3.8-8.93-9.83-8.93-6.04 0-9.84 2.46-9.84 8.93V1430.97zM2253.72 1451.81c-1.04-2.33-1.73-3.75-1.73-11.13v-14.24c0-8.41-3.8-11.52-12.42-11.52h-6.56v36.89h-18.98v-90.61h28.65c19.67 0 28.13 6.86 28.13 20.84v7.12c0 9.32-3.97 15.4-12.42 18.38 9.49 2.98 12.6 9.84 12.6 19.29v13.98c0 4.4.17 7.64 2.07 11H2253.72zM2233.01 1374.15v27.83h7.42c7.07 0 11.39-2.33 11.39-9.58v-8.93c0-6.47-2.93-9.32-9.66-9.32H2233.01zM2290.81 1361.21h58.67v12.94h-19.84v77.66h-18.98v-77.66h-19.84V1361.21zM2394.84 1620.52c-1.37 40.29-35.16 71.84-75.44 70.46-40.29-1.38-71.84-35.16-70.46-75.45 1.38-40.29 35.16-71.84 75.45-70.46C2364.67 1546.45 2396.21 1580.23 2394.84 1620.52z"/><path fill="#e5eaf6" d="M2388.4,1620.3c-1.26,36.73-32.05,65.5-68.79,64.24c-36.74-1.26-65.5-32.05-64.24-68.79      c1.26-36.73,32.05-65.5,68.79-64.24C2360.89,1552.77,2389.66,1583.56,2388.4,1620.3z"/><path fill="#f2faff" d="M2278.17,1586.26c3.61-5.79,6.42-11.6,11.73-16.15c5.2-4.46,11.33-7.39,17.77-9.62      c9.47-3.28,19.35-4.79,29.02-7.21c-4.06-0.93-8.21-1.61-12.53-1.76c-28.94-0.99-54.12,16.69-64.15,42.18      C2266.56,1595.25,2273.93,1593.06,2278.17,1586.26z"/><path fill="#6f95d5" d="M2363.04,1575.01c-3.34,4.12,0.32,12.65,1.81,16.85c1.99,5.61,4.74,10.99,6.3,16.75      c3.96,14.6,5.62,33.1-4.94,45.37c-3.35,3.89-7.83,6.35-11.55,9.81c-3.21,2.99-5.94,6.44-9.35,9.24c-6.99,5.72-15.6,8.07-24.54,7      c-8.76-1.05-23.66-7.64-34.65-5.94c9.71,6.21,21.13,10.04,33.49,10.46c36.73,1.26,67.53-27.51,68.79-64.24      c0.63-18.55-6.41-35.58-18.24-48.06C2367.42,1572.08,2364.85,1572.77,2363.04,1575.01z" opacity=".1"/><path fill="#6f95d5" d="M2343.79 1641.93c-3.67 3.48-8.88 5.61-15.64 6.4l-.34 9.92-10.72-.37.32-9.56c-4.46-.45-8.66-1.36-12.6-2.71-3.95-1.36-7.21-2.98-9.76-4.85l6.25-12.84c2.74 1.94 5.93 3.54 9.58 4.8 3.65 1.26 7.27 1.95 10.84 2.07 6.79.23 10.24-1.35 10.36-4.75.06-1.79-.86-3.14-2.77-4.07-1.91-.93-4.99-1.95-9.24-3.05-4.67-1.17-8.56-2.4-11.68-3.66-3.12-1.27-5.76-3.22-7.94-5.86-2.17-2.64-3.19-6.13-3.04-10.48.18-5.12 2.17-9.45 5.99-12.99 3.82-3.53 9.22-5.6 16.22-6.2l.34-9.82 10.72.36-.33 9.65c3.39.41 6.62 1.12 9.72 2.12 3.1 1 5.84 2.25 8.24 3.77l-5.9 12.95c-5.85-3.42-11.57-5.23-17.17-5.42-3.51-.12-6.09.32-7.74 1.3-1.64.99-2.49 2.31-2.55 3.98-.06 1.67.85 2.95 2.73 3.85 1.88.9 4.91 1.87 9.11 2.91 4.73 1.17 8.64 2.39 11.73 3.66 3.09 1.27 5.73 3.21 7.94 5.81 2.21 2.61 3.23 6.09 3.09 10.44C2349.38 1634.24 2347.46 1638.45 2343.79 1641.93zM2394.84 1793.05c-1.37 40.29-35.16 71.84-75.44 70.46-40.29-1.38-71.84-35.16-70.46-75.45 1.38-40.29 35.16-71.84 75.45-70.46C2364.67 1718.98 2396.21 1752.77 2394.84 1793.05z"/><path fill="#e5eaf6" d="M2388.4,1792.83c-1.26,36.74-32.05,65.5-68.79,64.24c-36.74-1.26-65.5-32.05-64.24-68.79      c1.26-36.73,32.05-65.5,68.79-64.24C2360.89,1725.3,2389.66,1756.1,2388.4,1792.83z"/><path fill="#f2faff" d="M2278.17,1758.79c3.61-5.79,6.42-11.6,11.73-16.15c5.2-4.46,11.33-7.39,17.77-9.62      c9.47-3.28,19.35-4.79,29.02-7.21c-4.06-0.93-8.21-1.62-12.53-1.76c-28.94-0.99-54.12,16.69-64.15,42.18      C2266.56,1767.79,2273.93,1765.6,2278.17,1758.79z"/><path fill="#6f95d5" d="M2363.04,1747.54c-3.34,4.12,0.32,12.65,1.81,16.85c1.99,5.61,4.74,10.99,6.3,16.75      c3.96,14.6,5.62,33.1-4.94,45.37c-3.35,3.89-7.83,6.35-11.55,9.81c-3.21,2.99-5.94,6.44-9.35,9.24c-6.99,5.72-15.6,8.07-24.54,7      c-8.76-1.05-23.66-7.64-34.65-5.94c9.71,6.21,21.13,10.04,33.49,10.46c36.73,1.26,67.53-27.51,68.79-64.24      c0.63-18.55-6.41-35.58-18.24-48.06C2367.42,1744.62,2364.85,1745.3,2363.04,1747.54z" opacity=".1"/><path fill="#6f95d5" d="M2343.79 1814.47c-3.67 3.48-8.88 5.61-15.64 6.4l-.34 9.91-10.72-.37.32-9.56c-4.46-.45-8.66-1.36-12.6-2.71-3.95-1.36-7.21-2.98-9.76-4.85l6.25-12.84c2.74 1.94 5.93 3.54 9.58 4.8 3.65 1.26 7.27 1.95 10.84 2.07 6.79.23 10.24-1.35 10.36-4.75.06-1.79-.86-3.14-2.77-4.07-1.91-.93-4.99-1.95-9.24-3.05-4.67-1.17-8.56-2.4-11.68-3.66-3.12-1.27-5.76-3.22-7.94-5.86-2.17-2.64-3.19-6.13-3.04-10.48.18-5.12 2.17-9.45 5.99-12.99 3.82-3.54 9.22-5.6 16.22-6.2l.34-9.82 10.72.36-.33 9.65c3.39.41 6.62 1.12 9.72 2.12 3.1 1 5.84 2.25 8.24 3.77l-5.9 12.95c-5.85-3.42-11.57-5.23-17.17-5.42-3.51-.11-6.09.32-7.74 1.3-1.64.99-2.49 2.31-2.55 3.98-.06 1.67.85 2.95 2.73 3.85 1.88.9 4.91 1.87 9.11 2.91 4.73 1.17 8.64 2.39 11.73 3.66 3.09 1.27 5.73 3.21 7.94 5.81 2.21 2.61 3.23 6.09 3.09 10.44C2349.38 1806.77 2347.46 1810.99 2343.79 1814.47zM2394.84 1965.59c-1.37 40.29-35.16 71.84-75.44 70.46-40.29-1.38-71.84-35.16-70.46-75.45 1.38-40.29 35.16-71.84 75.45-70.46C2364.67 1891.52 2396.21 1925.3 2394.84 1965.59z"/><path fill="#e5eaf6" d="M2388.4,1965.37c-1.26,36.73-32.05,65.5-68.79,64.24c-36.74-1.25-65.5-32.05-64.24-68.79      c1.26-36.73,32.05-65.5,68.79-64.24C2360.89,1897.83,2389.66,1928.63,2388.4,1965.37z"/><path fill="#f2faff" d="M2278.17,1931.33c3.61-5.79,6.42-11.6,11.73-16.15c5.2-4.46,11.33-7.39,17.77-9.62      c9.47-3.28,19.35-4.79,29.02-7.21c-4.06-0.93-8.21-1.61-12.53-1.76c-28.94-0.99-54.12,16.69-64.15,42.18      C2266.56,1940.32,2273.93,1938.13,2278.17,1931.33z"/><path fill="#6f95d5" d="M2363.04,1920.08c-3.34,4.12,0.32,12.65,1.81,16.85c1.99,5.61,4.74,10.99,6.3,16.75      c3.96,14.6,5.62,33.1-4.94,45.37c-3.35,3.89-7.83,6.35-11.55,9.81c-3.21,2.99-5.94,6.44-9.35,9.24c-6.99,5.72-15.6,8.07-24.54,7      c-8.76-1.05-23.66-7.64-34.65-5.94c9.71,6.21,21.13,10.04,33.49,10.46c36.73,1.26,67.53-27.51,68.79-64.24      c0.63-18.55-6.41-35.58-18.24-48.06C2367.42,1917.15,2364.85,1917.83,2363.04,1920.08z" opacity=".1"/><path fill="#6f95d5" d="M2343.79,1987c-3.67,3.48-8.88,5.61-15.64,6.4l-0.34,9.91l-10.72-0.37l0.32-9.56      c-4.46-0.45-8.66-1.36-12.6-2.71c-3.95-1.36-7.21-2.98-9.76-4.85l6.25-12.84c2.74,1.94,5.93,3.54,9.58,4.8      c3.65,1.26,7.27,1.95,10.84,2.07c6.79,0.23,10.24-1.35,10.36-4.74c0.06-1.79-0.86-3.14-2.77-4.07      c-1.91-0.93-4.99-1.95-9.24-3.05c-4.67-1.17-8.56-2.4-11.68-3.66c-3.12-1.27-5.76-3.22-7.94-5.86      c-2.17-2.64-3.19-6.13-3.04-10.48c0.18-5.12,2.17-9.45,5.99-12.99c3.82-3.54,9.22-5.6,16.22-6.2l0.34-9.82l10.72,0.36      l-0.33,9.65c3.39,0.41,6.62,1.12,9.72,2.12c3.1,1,5.84,2.25,8.24,3.77l-5.9,12.95c-5.85-3.42-11.57-5.23-17.17-5.42      c-3.51-0.12-6.09,0.32-7.74,1.3c-1.64,0.99-2.49,2.31-2.55,3.98c-0.06,1.67,0.85,2.95,2.73,3.85c1.88,0.9,4.91,1.87,9.11,2.91      c4.73,1.17,8.64,2.39,11.73,3.66c3.09,1.27,5.73,3.21,7.94,5.81c2.21,2.61,3.23,6.09,3.09,10.44      C2349.38,1979.31,2347.46,1983.52,2343.79,1987z"/><path fill="#f4c2b3" d="M2096,1137.62c0,0-6.68,4.68-21.86,16.36c-15.17,11.68-51.41,12.83-50.26,22.73      c1.15,9.9,47.34,25.17,70.19,13.02C2116.92,1177.58,2108.92,1144.97,2096,1137.62z"/><path fill="#febea5" d="M2096,1137.62c0,0-27.3,133.84-2.96,141.75c11.38,3.7,24.55-40.65,33.13-75.73       c-8.92,43.27-11.83,81.99,1.91,80.08c10.57-1.47,21.32-39.4,31.25-73.96c-4.64,24.31-12.71,74.57-2.02,76.13       c18.13,2.63,28.41-46.99,34.62-80.65c-2.33,20.28-8.56,72.39,1.21,73.91c8.64,1.35,17.87-7.42,25.52-49.78       c4.46-24.72,9.06-23.07,8.88-34.71c-0.14-8.98,0.72-18.3-2.95-25.48C2206.91,1134.6,2108.87,1120.61,2096,1137.62z"/><path fill="#fff" d="M2195.17 1275.99c-4.4-1.48-5.1-16.14-4.06-17.43 0 0 11.81 1.62 13.7 2.82C2206.69 1262.56 2199.57 1277.47 2195.17 1275.99zM2159.72 1283.25c-4.4-1.48-5.1-16.14-4.06-17.44 0 0 11.81 1.63 13.7 2.82C2171.24 1269.82 2164.12 1284.73 2159.72 1283.25zM2125.67 1279.23c-4.4-1.48-5.1-16.15-4.07-17.43 0 0 11.81 1.62 13.7 2.82C2137.19 1265.8 2130.06 1280.71 2125.67 1279.23zM2092.32 1274.49c-4.4-1.48-5.1-16.14-4.06-17.43 0 0 11.81 1.62 13.7 2.82C2103.84 1261.06 2096.71 1275.97 2092.32 1274.49z" opacity=".2"/><path fill="#231f20" d="M2191.26,1210.62l-0.49-44.18c0,0,15.46-6.93,27.63,7.45c0,0-6.63-23.81-56.48-31.24       c-49.86-7.42-57.15-2.71-57.15-2.71s15.49,2.4,22.58,14.3c1.59,2.66-1.26,48.7-0.77,45.89c0.49-2.81,9.31-43.05,9.31-43.05       l21.08,3.3l2.53,43.56l5.86-42.8l17.85,3.54L2191.26,1210.62z" opacity=".1"/></g><g><path fill="#6f95d5" d="M2026.12 508.71V512c0 9.47-3.86 15.51-12.45 18.54 10.35 3.02 14.38 9.99 14.38 19.72v7.49c0 14.2-9.99 21.83-29.29 21.83h-30.34v-92.04h29.11C2017.53 487.54 2026.12 494.51 2026.12 508.71zM1987.71 500.69v24.32h7.54c7.19 0 11.58-2.37 11.58-9.73v-5.13c0-6.57-2.98-9.47-9.82-9.47H1987.71zM1987.71 538.16v28.27h11.05c6.49 0 10-2.24 10-9.07v-8.02c0-8.55-3.68-11.18-12.45-11.18H1987.71zM2093.1 579.58c-1.05-2.37-1.75-3.81-1.75-11.31v-14.46c0-8.55-3.86-11.71-12.63-11.71h-6.66v37.48h-19.29v-92.04h29.11c19.99 0 28.58 6.97 28.58 21.17v7.23c0 9.47-4.03 15.65-12.62 18.67 9.64 3.03 12.8 9.99 12.8 19.59v14.2c0 4.47.18 7.76 2.11 11.18H2093.1zM2072.05 500.69v28.27h7.54c7.19 0 11.58-2.37 11.58-9.73v-9.07c0-6.57-2.98-9.47-9.82-9.47H2072.05zM2198.84 579.58h-19.47l-3.33-16.7h-23.67l-3.33 16.7h-17.71l19.64-92.04h28.23L2198.84 579.58zM2154.82 550.39h18.59l-9.3-46.55L2154.82 550.39zM2238.11 512.92v66.66h-17.36v-92.04h24.2l19.82 55.1v-55.1h17.19v92.04h-19.82L2238.11 512.92zM2308.95 487.54h30.51c19.29 0 28.76 8.02 28.76 22.75v46.55c0 14.73-9.47 22.75-28.76 22.75h-30.51V487.54zM2328.23 500.69v65.75h10.87c6.14 0 9.82-2.37 9.82-8.94v-47.86c0-6.58-3.68-8.94-9.82-8.94H2328.23zM2393.64 487.54h19.29v92.04h-19.29V487.54zM2457.29 512.92v66.66h-17.36v-92.04h24.2l19.82 55.1v-55.1h17.19v92.04h-19.82L2457.29 512.92zM2557.06 528.3h27.01v29.19c0 14.73-9.82 23.14-28.76 23.14-18.94 0-28.76-8.42-28.76-23.14v-47.86c0-14.73 9.82-23.14 28.76-23.14 18.94 0 28.76 8.41 28.76 23.14v8.94h-18.24v-9.86c0-6.58-3.86-9.07-10-9.07-6.14 0-10 2.5-10 9.07v49.7c0 6.57 3.86 8.94 10 8.94 6.14 0 10-2.37 10-8.94v-16.96h-8.77V528.3z"/></g><g><path fill="#6f95d5" fill-rule="evenodd" d="M2387.47 458.09c.31 1.6.58 3.16.85 4.68 1.07 6.46 6.55 11.26 13.14 11.26 3.29 0 6.32-1.2 8.64-3.25 2.36-2 4.01-4.85 4.5-8.1.22-1.34.44-2.72.71-4.14-3.96.8-8.33 1.2-12.87 1.2C2397.09 459.73 2392.01 459.15 2387.47 458.09zM2396.86 350.25c-17.94 1.96-32.37 16.65-34.1 34.59-1.16 12.02 3.21 22.97 10.82 30.81 6.01 11.4 10.73 20.07 13.49 33.74 4.63 1.11 9.84 1.74 15.36 1.74 4.68 0 9.13-.45 13.22-1.25 2.63-13.8 7.17-22.65 13.18-34.23 6.81-6.99 11.04-16.52 11.04-27.03C2439.87 365.88 2420.15 347.67 2396.86 350.25z" clip-rule="evenodd"/><rect width="5.49" height="24.72" x="2397.44" y="309.77" fill="#6f95d5" fill-rule="evenodd" clip-rule="evenodd"/><rect width="24.72" height="5.49" x="2322.59" y="384.62" fill="#6f95d5" fill-rule="evenodd" clip-rule="evenodd"/><rect width="24.72" height="5.49" x="2453.07" y="384.62" fill="#6f95d5" fill-rule="evenodd" clip-rule="evenodd"/><rect width="5.49" height="24.72" x="2351.31" y="328.87" fill="#6f95d5" fill-rule="evenodd" clip-rule="evenodd" transform="rotate(-45.001 2354.025 341.274)"/><rect width="5.49" height="24.72" x="2443.57" y="421.13" fill="#6f95d5" fill-rule="evenodd" clip-rule="evenodd" transform="rotate(-45.001 2446.327 433.524)"/><rect width="24.72" height="5.49" x="2341.7" y="430.75" fill="#6f95d5" fill-rule="evenodd" clip-rule="evenodd" transform="rotate(-45.001 2354.067 433.523)"/><rect width="24.72" height="5.49" x="2433.96" y="338.49" fill="#6f95d5" fill-rule="evenodd" clip-rule="evenodd" transform="rotate(-45.001 2446.328 341.264)"/></g><g><rect width="450.09" height="450.09" x="813.33" y="2222.32" fill="#b7c9e4"/><path fill="#f2fbff" d="M829.59,2391.05c18.59-15.91,13.39-42.42,14.99-64.02c1.44-19.46,6.83-38.28,22.06-51.5     c40.27-34.98,97.34-18.34,144.02-10.16c23.21,4.07,51.09,8.44,73.01-2.93c13.37-6.93,25.21-25.91,20.71-40.11H813.33v174.53     C818.5,2397.41,823.94,2395.89,829.59,2391.05z" opacity=".67"/><path fill="#202e5a" d="M1247.14,2294.37c-6.81,7-8.22,19.8-9.19,28.99c-4.55,42.9,3.07,87.09,3.27,130.15     c0.12,23.76-1.54,48.93-13.35,70.12c-12.92,23.17-36.07,35.08-60.82,41.85c-9.75,2.67-21.38,4.09-26.4,14.04     c-5.65,11.19-3.06,25.35-4.7,37.43c-3.67,27.03-27.32,37.89-52.59,33.63c-27.11-4.57-51.7-20.38-73.41-36.43     c-7.77-5.74-16.24-11.46-25.35-14.82c-10.83-4.01-15.59-2.13-16.29,10.03c-0.34,5.77-5.77,11.05-11.88,9.04     c-22.75-7.48-43.18-20.21-65.51-28.68c-24.23-9.2-46.18-9.59-70.27,0.02c-2.44,0.98-4.88,1.77-7.33,2.48v80.19h450.09v-376.71     C1259.34,2289.78,1252.65,2288.7,1247.14,2294.37z" opacity=".1"/><path fill="#6a95d5" d="M1112.1,2671.9v-119.76l-13.25,10.13l-7.79-10.13l-13.25-4.67l-13.83,16.37l-7.99-21.82l-23.38,72.48     l-9.35-66.25l-8.57,13.25l-10.91-19.48c0,0-3.7,92.47-6.31,129.89C1035.68,2673.77,1073.89,2669.76,1112.1,2671.9z" opacity=".35"/><polygon fill="#9cb6df" points="813.33 2222.32 924.78 2188.81 1326.94 2188.81 1263.42 2222.32"/><polygon fill="#6f95d5" points="1326.94 2188.81 1326.94 2611.23 1263.42 2672.41 1263.42 2222.32"/><path fill="#202e5a" d="M1322.79,2296.23c-8.69,16.88-6.15,38.93-8.78,57.32c-3.14,21.98-6.58,43.28-2.56,65.39     c2.97,16.33,8.66,33.3,7.14,50.08c-0.82,9-2.72,22.15-11.64,26.96c-11.49,6.2-20.89-6.16-25.44-15.17     c-15.1-29.96-12.39-66.36-12.15-98.79c0.16-20.84,1.86-41.86,0.69-62.69c-0.57-10.17-3-18.65-6.62-26.54v379.61l63.51-61.18     v-320.85C1325.5,2292.28,1323.92,2294.04,1322.79,2296.23z" opacity=".15"/><path fill="#385082" d="M891.86,2644.35h-50.08v-37.15h50.08V2644.35z M845.22,2640.92h43.2v-30.27h-43.2V2640.92z"/><path fill="#385082" d="M871.77 2638h-11.75v-11.75h11.75V2638zM863.46 2634.57h4.88v-4.88h-4.88V2634.57zM884.12 2638h-11.75v-11.75h11.75V2638zM875.81 2634.57h4.88v-4.88h-4.88V2634.57zM949.3 2644.35h-50.07v-37.15h50.07V2644.35zM902.66 2640.92h43.2v-30.27h-43.2V2640.92z"/><path fill="#385082" d="M929.21 2638h-11.75v-11.75h11.75V2638zM920.9 2634.57h4.87v-4.88h-4.87V2634.57zM941.56 2638h-11.75v-11.75h11.75V2638zM933.25 2634.57h4.88v-4.88h-4.88V2634.57z"/><path fill="#6a95d5" d="M990.25,2222.32v134.83l13.25-10.13l7.79,10.13l13.25,4.68l13.83-16.37l7.99,21.82l23.38-72.48l9.35,66.25     l8.57-13.25l10.91,19.49c0,0,5.46-136.39,7.79-144.96l30.4-16.37l-31.18,3.9l-0.78-3.9h-66.44L990.25,2222.32z" opacity=".35"/><polygon fill="#6a95d5" points="1067.02 2196.6 1078.32 2188.81 1160.55 2188.81 1144.96 2199.33 1142.62 2195.82 1125.86 2196.99 1123.52 2191.54 1086.12 2199.33 1083 2191.92" opacity=".35"/><polygon fill="#6a95d5" points="1256.02 2209.85 1287.85 2209.43 1289.49 2276.36 1294.78 2267.78 1296.8 2270.51 1301.61 2264.77 1306.12 2268.17 1312.52 2262.12 1312.52 2197.17 1280.57 2199.33 1283.25 2201.28 1278.23 2202.45 1286.43 2204.87" opacity=".35"/><polygon fill="#6a95d5" points="1312.52 2625.12 1310.58 2574.86 1303.95 2587.72 1302.91 2599.1 1297.72 2594.73 1294.78 2610.3 1289.49 2601.73 1288.12 2649.16" opacity=".35"/><path fill="#6a95d5" d="M900.38,2196.15h37.65l-8.77,3.18l2.92,1.62c0,0-10.23,2.92-9.35,2.92c0.88,0,7.01,1.92,6.14,1.69     c-0.88-0.23-14.47,0.39-14.47,0.39v1.72l-44.42-2.42L900.38,2196.15z" opacity=".35"/><path fill="#385082" d="M943.15 2408.53c16.74 0 25.35 7.51 25.35 20.66v2.58h-16.27v-3.4c0-5.87-3.13-8.1-8.61-8.1-5.48 0-8.61 2.23-8.61 8.1 0 16.9 33.64 20.07 33.64 43.54 0 13.15-8.76 20.66-25.66 20.66-16.9 0-25.66-7.51-25.66-20.66v-5.05h16.27v5.87c0 5.87 3.44 7.98 8.92 7.98 5.48 0 8.92-2.11 8.92-7.98 0-16.9-33.64-20.07-33.64-43.54C917.8 2416.04 926.4 2408.53 943.15 2408.53zM1045.95 2491.63h-17.37l-2.97-14.91h-21.13l-2.97 14.91h-15.8l17.52-82.16h25.19L1045.95 2491.63zM1006.67 2465.57h16.59l-8.29-41.55L1006.67 2465.57zM1065.66 2409.47h17.21v70.43h28.32v11.74h-45.54V2409.47zM1147.65 2444.1h23.63v11.74h-23.63v24.06h29.73v11.74h-46.95v-82.16h46.95v11.74h-29.73V2444.1z"/></g><g><polygon fill="#20416d" points="1518.97 2683.23 1594.13 2632.78 1592.81 2472.5 1518.67 2516.39"/><polygon fill="#3f74b2" points="1518.67 2516.39 1593.17 2472.5 1402.31 2439.7 1309.14 2485.35"/><polygon fill="#3f74b2" points="1309.14 2485.35 1309.43 2652.19 1518.97 2683.23 1518.67 2516.39"/><polygon fill="#5683bf" points="1481.5 2499.52 1538.46 2468.54 1538.2 2324.79 1481.24 2355.78"/><polygon fill="#3f74b2" points="1481.24 2355.78 1538.2 2324.79 1347.92 2298.05 1290.96 2329.03"/><polygon fill="#3f74b2" points="1290.96 2329.03 1291.23 2472.78 1481.5 2499.52 1481.24 2355.78"/><polygon fill="#3f74b2" points="1362.2 2350.22 1305.24 2319.23 1305.51 2175.49 1362.47 2206.47"/><polygon fill="#2e5582" points="1362.47 2206.47 1305.51 2175.49 1495.78 2148.75 1552.74 2179.73"/><polygon fill="#4d6a97" points="1552.74 2179.73 1552.48 2323.48 1362.2 2350.22 1362.47 2206.47"/><polygon fill="#3e73af" points="1494.67 2207.41 1546.64 2176.42 1546.39 2032.67 1494.42 2063.66"/><polygon fill="#2e6297" points="1494.42 2063.66 1546.39 2032.67 1372.79 2005.93 1320.82 2036.92"/><polygon fill="#9297bd" points="1320.82 2036.92 1321.07 2180.67 1494.67 2207.41 1494.42 2063.66"/><polygon fill="#3f74b2" points="1356.31 2052.23 1304.72 2023.68 1304.96 1891.22 1356.56 1919.77"/><polygon fill="#a9b9d8" points="1356.56 1919.77 1304.96 1891.22 1477.3 1866.58 1528.89 1895.13"/><polygon fill="#3f74b2" points="1528.89 1895.13 1528.65 2027.59 1356.31 2052.23 1356.56 1919.77"/><path fill="#f5f6fb" d="M1476.79 1971.21c2.48 2.85 3.71 6.56 3.71 11.15 0 6.7-2.69 12.31-8.09 16.82-5.39 4.51-13.19 7.59-23.38 9.23l-41.3 6.65v-76.49l39.12-6.3c9.76-1.57 17.19-.97 22.29 1.82 5.1 2.78 7.65 7.23 7.65 13.36 0 3.64-.89 7.04-2.68 10.21-1.79 3.17-4.32 5.85-7.6 8.05C1470.89 1966.54 1474.31 1968.37 1476.79 1971.21zM1429.14 1950.75v14.75l14.86-2.39c7.28-1.17 10.93-4.24 10.93-9.19 0-4.88-3.64-6.73-10.93-5.56L1429.14 1950.75zM1458.65 1983.48c0-5.17-3.79-7.15-11.36-5.93l-18.14 2.92v15.52l18.14-2.92C1454.86 1991.85 1458.65 1988.65 1458.65 1983.48zM1406.48 2142.77l-10.21-1.68v20.7l-18.2-3.37v-76.49l29.75 3.22c6.1.66 11.46 2.44 16.05 5.34 4.63 2.93 8.23 6.79 10.78 11.6 2.56 4.83 3.84 10.3 3.84 16.4 0 5.87-1.2 10.82-3.59 14.82-2.38 3.98-5.77 6.84-10.14 8.59l15.16 27.97-21.16-3.92L1406.48 2142.77zM1415.54 2106.74c-2-2.29-4.97-3.69-8.87-4.18l-10.4-1.3v22.81l10.4 1.54c3.9.58 6.86.02 8.87-1.69 2.01-1.72 3.02-4.43 3.02-8.15C1418.56 2112.05 1417.55 2109.04 1415.54 2106.74zM1471.72 2286.94l-29.49 4.86-5.48 15.76-20.13 3.32 30.79-81.57 19.43-3.2 30.89 71.4-20.53 3.38L1471.72 2286.94zM1465.95 2271.94l-8.97-23-8.97 25.95L1465.95 2271.94zM1421.13 2380.26v80.13l-18.66-2.51-35.37-47.46v42.7l-22.21-2.99V2370l18.66 2.51 35.37 47.46v-42.7L1421.13 2380.26zM1386.38 2538.31l36.17 5.93c8.38 1.37 15.81 4.16 22.29 8.36 6.48 4.2 11.51 9.47 15.08 15.81 3.57 6.34 5.35 13.37 5.35 21.09 0 7.72-1.79 14.17-5.35 19.34-3.57 5.17-8.6 8.79-15.08 10.86-6.48 2.07-13.91 2.42-22.29 1.04l-36.17-5.93V2538.31zM1421.68 2603.32c6.56 1.08 11.82.08 15.79-2.98 3.97-3.07 5.95-7.88 5.95-14.43 0-6.56-1.99-12.02-5.95-16.39-3.97-4.36-9.23-7.09-15.79-8.16l-13.66-2.24v41.96L1421.68 2603.32z"/></g><g><polygon fill="#9cb6df" points="2152.04 2319.95 2198.81 2303.31 1889.91 2274.41 1572.51 2303.31 1630.05 2353.72 1949.39 2431.99"/><polygon fill="#6f95d5" points="1572.51 2303.31 1883.07 2348.3 1883.07 2695.73 1572.51 2637.76"/><path fill="#202e5a" d="M1815.03,2471.73c-8.15,13.68-27.95,25.95-28.85,42.92c-1.03,19.18,10.28,36.41,4.49,55.99      c-11.44,38.71-65.7,28.95-95.04,25.34c-9.2-1.13-18.5-1.36-27.04,2.79c-9.89,4.81-16.19,13.8-24.16,21.01      c-13.16,11.92-29.34,20.3-46.76,22.67l285.39,53.27v-264.55C1878.05,2423.55,1825.65,2453.87,1815.03,2471.73z" opacity=".1"/><path fill="#202e5a" d="M1757.1,2330.05l-61.89-8.97c8.03,1.76,16.01,3.71,24.01,5.46      C1731.78,2329.31,1744.44,2330.43,1757.1,2330.05z" opacity=".15"/><path fill="#f2fbff" d="M1589.44,2371.77c6.06,2.13,13.41,4.59,15.86-3.15c1.47-4.63,1.2-9.86,1.74-14.65      c0.94-8.38,4.07-15.14,9.61-21.59c11.22-13.07,28.54-16.75,45.07-16.15l-89.21-12.93v63.65      C1578.27,2367.69,1583.9,2369.82,1589.44,2371.77z" opacity=".67"/><polygon fill="#6a95d5" points="2069.75 2291.43 1978.27 2282.12 1689.2 2317.69 1690.19 2385.88 1728.12 2395.07 1734.3 2383.57 1738.95 2399.06 1767.95 2407.12 1764.37 2334.22" opacity=".35"/><polygon fill="#6a95d5" points="1751.81 2670.08 1748.73 2617.3 1730.26 2614.86 1726.63 2621.58 1723.97 2612.69 1675.34 2602.06 1673.09 2655.9" opacity=".35"/><polygon fill="#b7c9e4" points="2198.81 2303.31 2198.81 2634.01 1883.07 2695.73 1883.07 2348.3"/><path fill="#202e5a" d="M2026.02,2327.93c17.18,13.34,36.28,16.71,57.9,14.13c20.36-2.43,39.34-8.89,59.2-0.17      c15.77,6.93,27.3,20.8,34.42,36.19c15.82,34.17,16.31,77.19-8.96,106.65c-12.45,14.52-29.95,26.47-36.51,45.16      c-6.56,18.7,1.03,38.62-1.25,57.76c-2.63,22.01-19.68,33.83-39.27,40.84c-23.87,8.53-47.94,5.44-72.03-0.07      c-11.12-2.54-25.97-8.81-37.43-5.94c-6.48,1.62-10.26,8.71-15.12,12.83c-12.91,10.97-31.27,14.37-45.99,4.91      c-30.43-19.55-31.1-64.96-19.39-94.77c3.97-10.12,9.28-20.19,10.88-31.06c1.04-7.03,0.05-14-1.7-20.84      c-1.87-3.23-3.54-6.58-5.01-9.83c-5.69-12.61-10.12-25.72-15.43-38.49c-1.2-2.87-2.44-5.88-3.77-8.9      c-1.08-1.77-2.36-3.41-3.5-5.14v264.55l315.75-61.73v-330.7L2026.02,2327.93z" opacity=".15"/><path fill="#385082" d="M1946.93,2658.69l-35.87,6.08v-32.07l35.87-6.08V2658.69z M1913.52,2661.38l30.95-5.25V2630l-30.95,5.25       V2661.38z"/><path fill="#385082" d="M1932.54 2655.64l-8.42 1.43v-10.14l8.42-1.43V2655.64zM1926.59 2653.68l3.49-.59v-4.21l-3.49.59V2653.68zM1941.39 2654.14l-8.42 1.43v-10.14l8.42-1.43V2654.14zM1935.44 2652.19l3.49-.59v-4.21l-3.49.59V2652.19zM1988.08 2651.71l-35.87 6.08v-32.07l35.87-6.08V2651.71zM1954.67 2654.41l30.95-5.25v-26.14l-30.95 5.25V2654.41z"/><path fill="#385082" d="M1973.69 2648.67l-8.41 1.43v-10.14l8.41-1.42V2648.67zM1967.74 2646.71l3.49-.59v-4.21l-3.49.59V2646.71zM1982.54 2647.17l-8.42 1.43v-10.14l8.42-1.43V2647.17zM1976.59 2645.21l3.49-.59v-4.21l-3.49.59V2645.21z"/><g><path fill="#385082" d="M1957.51 2481.19c2.01.75 3.57 2.05 4.67 3.9 1.09 1.85 1.64 4.14 1.64 6.88 0 2.74-.55 5.22-1.64 7.42-1.09 2.2-2.65 4.02-4.67 5.46-2.02 1.43-4.4 2.39-7.13 2.85l-5.28.89v9.53l-8.56 1.45v-36.47l13.84-2.35C1953.11 2480.3 1955.49 2480.44 1957.51 2481.19zM1953.83 2497.6c.89-1.07 1.34-2.46 1.34-4.16 0-1.7-.45-2.95-1.34-3.73-.9-.79-2.22-1.03-3.98-.73l-4.76.81v10.68l4.76-.81C1951.61 2499.36 1952.94 2498.67 1953.83 2497.6zM1986.73 2503.98l-12.79 2.17-2.38 7.49-8.73 1.48 13.36-38.73 8.43-1.43 13.4 34.2-8.9 1.51L1986.73 2503.98zM1984.22 2496.8l-3.89-11.01-3.89 12.33L1984.22 2496.8zM2006.55 2506.01c-2.52-1.19-4.5-3.1-5.94-5.74-1.44-2.64-2.16-5.78-2.16-9.43 0-3.65.72-7.03 2.16-10.16 1.44-3.13 3.42-5.71 5.94-7.75 2.52-2.04 5.37-3.33 8.54-3.87 2.77-.47 5.26-.3 7.48.5 2.22.81 4.06 2.19 5.53 4.17l-5.44 6.86c-1.96-2.52-4.34-3.54-7.13-3.06-1.64.28-3.11.96-4.39 2.05-1.28 1.08-2.28 2.48-2.98 4.17-.7 1.7-1.06 3.58-1.06 5.62 0 2.05.35 3.81 1.06 5.27.71 1.46 1.7 2.52 2.98 3.17 1.28.65 2.74.84 4.39.56 2.79-.47 5.17-2.3 7.13-5.48l5.44 5.02c-1.47 2.47-3.31 4.49-5.53 6.04-2.22 1.56-4.71 2.57-7.48 3.04C2011.92 2507.52 2009.07 2507.2 2006.55 2506.01zM2043.58 2488.2l-3.2 4.66v9.12l-8.48 1.44v-36.47l8.48-1.44v15.16l11.72-17.14 9.42-1.6-12.36 18.24 13.01 18.11-9.94 1.68L2043.58 2488.2z"/><path fill="#385082" d="M2083.26 2487.62l-12.8 2.17-2.38 7.49-8.73 1.48 13.36-38.73 8.43-1.43 13.4 34.19-8.91 1.51L2083.26 2487.62zM2080.76 2480.44l-3.89-11.01-3.89 12.33L2080.76 2480.44zM2116.81 2470.01l7.57-1.28v15.11c-1.73 1.79-3.72 3.27-5.97 4.45-2.25 1.18-4.5 1.96-6.74 2.34-3.17.54-6.02.21-8.56-.97-2.54-1.19-4.52-3.1-5.96-5.74-1.44-2.64-2.16-5.78-2.16-9.43 0-3.65.72-7.03 2.16-10.16 1.44-3.13 3.44-5.72 6.01-7.76 2.57-2.05 5.46-3.35 8.69-3.9 2.82-.48 5.36-.34 7.61.43 2.25.77 4.12 2.1 5.62 4l-5.45 6.86c-2.04-2.36-4.49-3.3-7.35-2.82-2.59.44-4.68 1.74-6.27 3.9-1.58 2.16-2.38 4.82-2.38 7.98 0 2.02.36 3.75 1.08 5.21.72 1.46 1.73 2.52 3.02 3.19 1.3.67 2.78.86 4.45.57 1.64-.28 3.19-.94 4.63-1.98V2470.01zM2154.11 2474.73v7.97l-24.3 4.12v-36.47l23.73-4.02v7.97l-15.26 2.58v6.14l13.44-2.28v7.71l-13.44 2.28v6.67L2154.11 2474.73z"/></g></g><g><path fill="#6f95d5" d="M1261.77,703.24c-1.19,34.79-30.35,62.02-65.14,60.83c-34.78-1.19-62.02-30.35-60.83-65.14     c1.19-34.78,30.35-62.02,65.14-60.83C1235.73,639.29,1262.96,668.45,1261.77,703.24z"/><path fill="#e5eaf6" d="M1256.21,703.05c-1.08,31.72-27.67,56.55-59.39,55.46c-31.72-1.08-56.55-27.67-55.46-59.39     c1.08-31.72,27.67-56.55,59.39-55.46C1232.47,644.74,1257.3,671.33,1256.21,703.05z"/><path fill="#f2faff" d="M1161.05,673.66c3.12-5,5.55-10.02,10.12-13.94c4.49-3.85,9.79-6.38,15.34-8.31     c8.18-2.83,16.7-4.13,25.05-6.23c-3.5-0.8-7.09-1.39-10.82-1.52c-24.98-0.85-46.73,14.41-55.39,36.42     C1151.03,681.42,1157.39,679.53,1161.05,673.66z" opacity=".49"/><path fill="#202234" d="M1234.32,663.94c-2.88,3.56,0.28,10.92,1.56,14.55c1.72,4.85,4.09,9.49,5.44,14.46     c3.42,12.61,4.85,28.58-4.26,39.17c-2.89,3.36-6.76,5.48-9.97,8.47c-2.77,2.58-5.13,5.56-8.07,7.97     c-6.03,4.94-13.47,6.97-21.18,6.05c-7.56-0.9-20.43-6.59-29.91-5.13c8.39,5.36,18.24,8.67,28.91,9.03     c31.72,1.08,58.3-23.75,59.39-55.46c0.55-16.02-5.53-30.71-15.75-41.49C1238.1,661.42,1235.88,662.01,1234.32,663.94z" opacity=".15"/><path fill="#6f95d5" d="M1217.7,721.72c-3.17,3.01-7.67,4.85-13.51,5.52l-0.29,8.56l-9.25-0.32l0.28-8.25      c-3.85-0.39-7.47-1.17-10.88-2.34c-3.41-1.17-6.22-2.57-8.43-4.19l5.4-11.09c2.36,1.68,5.12,3.06,8.28,4.14      c3.15,1.09,6.27,1.68,9.36,1.79c5.86,0.2,8.84-1.17,8.94-4.1c0.05-1.54-0.74-2.71-2.39-3.52c-1.65-0.8-4.31-1.68-7.98-2.63      c-4.03-1.01-7.39-2.07-10.08-3.16c-2.69-1.09-4.98-2.78-6.85-5.06c-1.88-2.28-2.75-5.29-2.63-9.05      c0.15-4.42,1.87-8.16,5.17-11.21c3.3-3.05,7.96-4.83,14-5.35l0.29-8.48l9.25,0.31l-0.29,8.33c2.92,0.36,5.72,0.96,8.39,1.83      c2.68,0.87,5.04,1.95,7.11,3.25l-5.09,11.18c-5.05-2.96-9.98-4.51-14.82-4.68c-3.03-0.1-5.26,0.28-6.68,1.13      c-1.42,0.85-2.15,2-2.2,3.44c-0.05,1.44,0.74,2.55,2.36,3.32c1.62,0.78,4.24,1.61,7.86,2.51c4.09,1.01,7.46,2.07,10.12,3.16      c2.66,1.09,4.95,2.77,6.85,5.02c1.9,2.25,2.79,5.26,2.66,9.01C1222.52,715.08,1220.87,718.72,1217.7,721.72z"/></g><g><path fill="#6f95d5" d="M867.99,1945.15c6.4,34.21-16.14,67.14-50.35,73.54c-34.21,6.4-67.14-16.14-73.54-50.36     c-6.4-34.21,16.14-67.14,50.36-73.53C828.66,1888.39,861.59,1910.94,867.99,1945.15z"/><path fill="#e5eaf6" d="M862.52,1946.17c5.84,31.19-14.72,61.21-45.91,67.05c-31.19,5.84-61.21-14.72-67.05-45.91     c-5.84-31.19,14.72-61.21,45.91-67.05C826.67,1894.42,856.69,1914.98,862.52,1946.17z"/><path fill="#f2faff" d="M763.24,1938.17c1.96-5.56,3.24-10.98,6.85-15.81c3.55-4.74,8.16-8.36,13.17-11.44     c7.37-4.54,15.41-7.67,23.1-11.53c-3.59-0.02-7.23,0.18-10.89,0.87c-24.57,4.6-42.48,24.22-46.15,47.59     C755.15,1947.93,760.95,1944.71,763.24,1938.17z" opacity=".49"/><path fill="#202234" d="M832.65,1912.76c-2.04,4.1,2.65,10.6,4.69,13.86c2.73,4.36,6.05,8.37,8.45,12.93     c6.07,11.56,10.95,26.84,4.35,39.16c-2.09,3.91-5.41,6.82-7.89,10.44c-2.14,3.12-3.8,6.54-6.15,9.54     c-4.81,6.13-11.63,9.73-19.36,10.51c-7.58,0.76-21.37-1.99-30.31,1.49c9.35,3.41,19.69,4.49,30.18,2.53     c31.19-5.84,51.75-35.86,45.91-67.05c-2.95-15.75-12.07-28.78-24.4-37.08C835.79,1909.48,833.76,1910.53,832.65,1912.76z" opacity=".15"/><path fill="#6f95d5" d="M828.99,1972.78c-2.44,3.62-6.43,6.4-11.98,8.33l1.57,8.42l-9.1,1.7l-1.52-8.12      c-3.84,0.46-7.55,0.48-11.13,0.08c-3.58-0.4-6.63-1.16-9.14-2.26l2.86-12c2.67,1.12,5.66,1.87,8.98,2.25      c3.32,0.37,6.49,0.28,9.52-0.29c5.76-1.08,8.38-3.06,7.84-5.94c-0.28-1.52-1.32-2.49-3.1-2.91c-1.78-0.43-4.57-0.7-8.36-0.83      c-4.16-0.11-7.67-0.41-10.53-0.9c-2.87-0.48-5.46-1.63-7.79-3.45c-2.33-1.81-3.84-4.57-4.53-8.26      c-0.81-4.35,0.06-8.37,2.61-12.07c2.55-3.7,6.72-6.45,12.51-8.27l-1.56-8.34l9.1-1.71l1.53,8.2c2.93-0.29,5.79-0.3,8.59-0.04      c2.8,0.26,5.35,0.8,7.65,1.63l-2.54,12.02c-5.57-1.79-10.73-2.23-15.48-1.35c-2.98,0.56-5.07,1.41-6.27,2.55      c-1.2,1.14-1.67,2.42-1.4,3.83c0.26,1.42,1.27,2.33,3.03,2.73c1.75,0.41,4.49,0.65,8.22,0.74c4.21,0.1,7.73,0.4,10.57,0.89      c2.84,0.49,5.43,1.63,7.78,3.41c2.35,1.79,3.87,4.52,4.56,8.22C832.25,1965.24,831.43,1969.16,828.99,1972.78z"/></g><g><path fill="#6f95d5" d="M2566.23,1184.6c-0.64,0.27-1.15,0.77-1.42,1.41c-0.27,0.65-0.27,1.36,0,2.01      c3.93,9.46,5.92,19.49,5.92,29.83c0,42.9-34.9,77.8-77.81,77.8c-42.9,0-77.81-34.9-77.81-77.8c0-42.9,34.9-77.81,77.81-77.81      c18.55,0,36.51,6.64,50.58,18.68c0.53,0.46,1.21,0.66,1.91,0.62c0.7-0.06,1.33-0.38,1.78-0.91c0.46-0.53,0.68-1.21,0.63-1.9      c-0.05-0.7-0.38-1.34-0.91-1.79c-15.02-12.86-34.19-19.94-53.99-19.94c-45.79,0-83.04,37.25-83.04,83.04      c0,45.79,37.25,83.04,83.04,83.04c45.79,0,83.04-37.25,83.04-83.04c0-11.03-2.13-21.74-6.33-31.84      C2569.09,1184.69,2567.57,1184.05,2566.23,1184.6z"/><path fill="#6f95d5" d="M2564.88,1217.85c0,39.74-32.21,71.95-71.95,71.95c-39.74,0-71.95-32.21-71.95-71.95     c0-39.74,32.21-71.95,71.95-71.95C2532.67,1145.9,2564.88,1178.12,2564.88,1217.85z"/><path fill="#b7c9e4" d="M2581.07,1143.83c-0.53-0.45-1.22-0.68-1.91-0.61c-0.7,0.06-1.33,0.39-1.79,0.93l-85.94,102.09     c-0.43,0.52-1.05,0.82-1.7,0.85c-0.71,0.06-1.34-0.22-1.82-0.68l-53.15-52.03c-1.03-1.01-2.68-0.99-3.7,0.04     c-0.49,0.5-0.76,1.16-0.75,1.86c0,0.7,0.29,1.35,0.79,1.84l53.15,52.03c1.42,1.38,3.36,2.18,5.34,2.18l0.36-0.01     c2.12-0.1,4.11-1.09,5.48-2.71l85.95-102.1C2582.31,1146.41,2582.16,1144.76,2581.07,1143.83z"/></g></svg>