<svg xmlns="http://www.w3.org/2000/svg" enable-background="new 0 0 3000 3000" viewBox="0 0 3000 3000"><circle cx="1467.48" cy="1546.56" r="893.32" fill="#eeedf7" transform="rotate(-45.001 1467.473 1546.586)"/><path fill="#8cd2fe" d="M1753.96 2599.83c0 22.14-110.74 40.08-247.34 40.08s-247.34-17.94-247.34-40.08c0-22.14 110.74-40.08 247.34-40.08s247.34 17.94 247.34 40.08z"/><path fill="#8cd2fe" d="M1259.29 1026.66h498.04v1573.17h-498.04z"/><path fill="#395b64" d="m1757.32 1304.82-498.03-126.22v-151.94h498.03z" opacity=".2"/><path fill="#d3c848" d="M1626.04 653.22c-14.25 0-27.4-5.03-38.83-15.01l15.69-17.98c11.41 9.95 24.79 11.72 40.87 5.43 38.04-14.88 78.59-71.28 83.42-116.04 1.98-18.32-2.43-31.21-13.1-38.34-31.92-21.27-63.7 20.87-65.05 22.68l-19.2-14.16c15.93-21.67 56.81-55.48 97.48-28.37 18.14 12.1 26.52 33.67 23.6 60.75-5.74 53.11-52.67 117.78-98.46 135.69-9.11 3.58-17.96 5.35-26.42 5.35z"/><path fill="#395b64" d="M1694.65 465.42c-1.93-7.99-1.73-16.35 1.13-23.97-28.82-.15-54.18 22.38-65.93 38.37l19.2 14.16c1.06-1.44 21.33-28.19 45.6-28.56zM1635.18 628.23c-12.33 2.7-22.97.12-32.28-7.99l-15.69 17.98c11.43 9.97 24.58 15.01 38.83 15.01 1.94 0 3.91-.12 5.89-.31-1.21-8.38.15-16.84 3.25-24.69z" opacity=".2"/><path fill="#d3c848" d="M1390.59 653.24c14.25 0 27.4-5.03 38.83-15.01l-15.69-17.98c-11.41 9.95-24.79 11.73-40.87 5.43-38.05-14.88-78.6-71.27-83.44-116.03-1.98-18.32 2.42-31.21 13.1-38.34 31.92-21.27 63.7 20.86 65.05 22.67l19.2-14.16c-15.93-21.67-56.82-55.47-97.48-28.36-18.14 12.1-26.52 33.67-23.59 60.75 5.75 53.11 52.68 117.78 98.47 135.68 9.11 3.58 17.96 5.35 26.42 5.35z"/><path fill="#395b64" d="M1321.96 465.44c1.93-7.99 1.72-16.35-1.13-23.98 28.82-.15 54.18 22.37 65.94 38.37l-19.2 14.16c-1.07-1.44-21.34-28.19-45.61-28.55zM1381.45 628.25c12.33 2.7 22.97.12 32.28-8l15.69 17.98c-11.43 9.98-24.58 15.01-38.83 15.01-1.94 0-3.91-.12-5.89-.3 1.2-8.39-.15-16.84-3.25-24.69z" opacity=".2"/><path fill="#d3c848" d="M1574.26 881.67a313.033 313.033 0 0 1-136.56.01c13.31-59.55 39.94-117.64 39.93-178.66h56.69c0 61.01 26.64 119.1 39.94 178.65z"/><path fill="#d3c848" d="M1676.02 395.7c0-23.48-76.15-42.51-170.07-42.51-93.92.01-170.07 19.05-170.07 42.53-16.99 233.37 170.09 359.97 170.09 359.97s187.07-126.61 170.05-359.99z"/><path fill="#395b64" d="M1676.02 395.7c0-9.16-11.71-17.62-31.42-24.56 15.09 33.08 15.61 71.48 7.31 106.96-4.4 18.8-27.92 22.29-35.87 97.79-13.68 129.93-82.97 27.38-84.57 100.96-.23 10.83-1.79 21.12-6.97 30.6-5.03 9.21-12.3 17.74-12.69 28.71-.43 12.02 4.34 24.23 7.98 35.49 6.62 20.5 10.87 42.38-.46 62.16-14.86 25.95-48.33 25.02-74.35 19.44-2.64 9.45-5.16 18.92-7.28 28.42a312.881 312.881 0 0 0 136.56-.01c-11.25-50.33-31.96-99.62-38.12-150.51 52.17-47.21 152.55-161.73 139.88-335.45z" opacity=".2"/><path fill="#e2d661" d="m1507.37 422.49 22.07 44.7 49.32 7.16-35.69 34.8 8.43 49.12-44.12-23.19-44.12 23.2 8.43-49.13-35.7-34.79 49.33-7.17z"/><path fill="#395b64" d="M1362.84 866.24h291.95v115.42h-291.95z"/><path fill="#d3c848" d="m1591.96 886.03-166.28.01c-20.94 0-37.91 16.98-37.91 37.91 0 20.94 16.97 37.91 37.91 37.91l166.28-.01c20.94 0 37.91-16.98 37.91-37.91 0-20.93-16.98-37.91-37.91-37.91z"/><path fill="#8cd2fe" d="M1788.83 982.24h-561.06c-24.53 0-44.41 19.88-44.41 44.41 0 24.53 19.88 44.41 44.41 44.41h561.06c24.53 0 44.41-19.88 44.41-44.41.01-24.52-19.88-44.41-44.41-44.41z"/><path fill="#eeedf7" d="m1459.8 1382.12 14.9 1257.79c12.7 48.52 293.3 171.23 293.3 171.23l40.88-18.47-296.99-152.77-.4-56.3 198.12-36.65v75.76c10.18 29.25 324.99 130.42 324.99 130.42 18.09 10.18 31.57-35.08 31.57-35.08l-311.4-117.68-15.59-1274.79c-.13-11.15-8.69-18.15-19.12-15.59-10.42 2.54-18.77 13.64-18.63 24.79l1.19 96.98-203.9 36.65-1.17-95.5c-.14-11.15-8.7-18.14-19.12-15.59-10.43 2.55-18.77 13.65-18.63 24.8zm48.54 977.66 203.9-36.65 2.82 196.87-203.9 36.65-2.82-196.87zm-1.5-226.99 203.9-36.65 1.16 200.02-203.9 36.65-1.16-200.02zm-1.91-156.74 203.9-36.65 1.59 129.78-203.9 36.65-1.59-129.78zm-1.92-156.74 203.9-36.65 1.59 129.78-203.9 36.65-1.59-129.78zm-1.92-156.75 203.9-36.65 1.59 129.78-203.9 36.65-1.59-129.78zm-2.04-167.17 203.9-36.65 1.71 140.21-203.9 36.65-1.71-140.21z"/><path fill="#395b64" d="m1447.28 1277.1 60.77 291.21c-.37 1.68-.45 3.52-.15 5.47.38 2.46 1.42 4.7 2.71 6.78l255.64 1224.97c2.48 11.9 10.61 20.19 19.76 21.34 2.41.3 4.9.11 7.37-.66 11.75-3.62 18.67-18.64 15.51-33.54l-57.33-270.31 219.38-35.97 58.61 255.37c2.57 11.2 10.12 19.07 18.39 20.24 2.18.31 4.42.16 6.62-.53 10.49-3.26 16.31-17.29 13.04-31.32l-333.69-1434.76c-2.59-11.13-12.81-20.35-22.85-20.61-10.09-.26-16.22 8.61-13.65 19.83l22.61 98.51-210.94-14.02-21.43-101.03c-2.47-11.68-13.47-21.38-24.57-21.7-11.16-.32-18.26 8.95-15.8 20.73zm279.09 143.7 33.52 146.04-212.41-6.68-32.29-152.23 211.18 12.87zm-172.59 169.08 212.65 5.46 31.91 139.04-213.78.62-30.78-145.12zm37.27 175.7 214.02-1.91 32.81 142.95-215.14 8.34-31.69-149.38zm38.35 180.86 215.38-9.71 33.74 147.01-216.49 16.51-32.63-153.81zm39.51 186.25 216.73-17.96 34.71 151.27-217.83 25.16-33.61-158.47zm75.33 355.22-34.64-163.33 218.06-26.7 35.73 155.7-219.15 34.33z"/><path fill="#2b4c54" d="m1447.28 1277.1 60.78 291.22c-.37 1.68-.46 3.52-.16 5.47.38 2.46 1.42 4.7 2.71 6.78l255.64 1224.97c2.48 11.9 10.61 20.19 19.76 21.34 2.41.3 4.9.11 7.36-.66 11.75-3.62 18.67-18.64 15.51-33.54l-57.33-270.31 219.38-35.97 58.61 255.37c2.57 11.2 10.12 19.07 18.39 20.25 2.18.31 4.42.15 6.62-.53 10.49-3.27 16.31-17.3 13.04-31.32l-60.58-260.48c-6.39-8.21-12.4-16.76-17.8-25.82-10.25-17.2-18.52-35.62-24.76-54.86-7.88-24.31-12.67-49.83-19.36-74.55-6.79-25.06-14.74-49.55-23.67-73.82-8.94-24.27-15.86-49.63-22.64-74.67-26.88-99.2-43.7-201.07-66-301.5-5.68-25.56-11.7-51.04-18.35-76.33-4.57-17.38-9.71-34.53-14.86-51.69-8.66 12.55-29.44 11.75-42.27 11.92-23.26.31-46.44 2.9-69.72 2.45-14.84-.29-29.82-1.23-44.67-1.96-14.18-.69-28.94-1.88-42.36-6.92-4.38-1.65-8.35-4-11.49-6.95l-4.5.01-30.78-145.11 212.65 5.46 10.34 45.06c-3.81-24.02-6.57-48.26-9.05-72.44-2.61-25.4-4.88-50.83-7.65-76.21-2.62-24.02-7.82-47.56-13.11-71.04-10.32-45.83-21.46-91.8-21.36-139.36-4.19-3.91-9.38-6.44-14.55-6.58-10.09-.26-16.22 8.61-13.65 19.83l22.61 98.51-7.07-.47c-.34 1.72-1.44 3.02-3.26 3.44-12.82 2.96-25.9 3.58-38.95 3.75-13.24.18-26.3.52-39.51 1.27-26.97 1.51-54.18-.4-80.61-5.84-20.28-4.18-40.59-8.95-55.15-25.26-12.47-13.98-19.47-32.63-24.23-50.92-5.32-20.43-7.87-41.51-9.89-62.58-10.12.67-16.38 9.46-14.06 20.59zm262.32 1047.48 218.06-26.7 34.8 151.61c.72.95 1.01 2.16.76 3.32l.18.76-.43.07c-.27.53-.65 1.03-1.25 1.45-33.18 23.6-74.16 34.75-113.26 40.14-24.84 3.42-51.65 8.53-76.48 4.18-8.9-1.56-18.03-5.04-23.41-12.18l-4.32.68-34.65-163.33zm-40.69-191.89 216.72-17.97 34.72 151.27-3.06.35c-.09.35-.13.69-.33 1.06-4.88 9.07-14.61 12.76-23.62 15.49-11.14 3.37-22.52 6.32-33.91 8.53-17.6 3.43-35.49 5.57-53.32 6.86-13.45.98-26.93 1.55-40.41 1.5-14.24-.04-28.89-.45-42.77-3.95-4.17-1.05-9.25-2.8-13.4-5.51l-7.02.81-33.6-158.44zm-39.5-186.25 215.38-9.71 33.74 147.01-7.21.55c-.3.99-.99 1.89-2.15 2.45-28.12 13.44-59.69 14.84-89.9 16.9-32.32 2.21-64.98 9.81-97.2 3.75-5.09-.96-10.22-2.46-14.18-6.09-.46-.42-.81-.94-1.23-1.4l-4.63.35-32.62-153.81zm-10.68-50.35-27.68-130.51 214.01-1.91 32.81 142.95-11.98.46c-7.79 7.35-19.55 7.94-29.57 9.27-18.88 2.51-38.02 3.49-56.98 4.85-15.21 1.09-30.16 3.3-45.3 5.17-13.26 1.64-27.1 2.8-40.21-.19-8.73-1.99-16.46-5.92-22.97-11.54l-8.12.31-2.83-13.33c-.32-.52-.67-.99-.97-1.52-.8-1.38-.71-2.79-.21-4.01zm-103.54-488.16 211.18 12.87 31.35 136.59c3.4.09 4.31 5.14 1.7 7.43l.46 2.03-5.86-.19c-37.99 9.73-76.96 15.48-115.95 16.31-14.18.3-28.62.41-42.72-1.29-11.36-1.37-23.13-4.07-32.73-10.8-4.14-2.91-7.36-6.49-9.74-10.54l-5.41-.17-32.28-152.24z" opacity=".2"/><path fill="#395b64" d="m2212.44 2555.2 4.82 10.23s-21.62 38.18-60.86 64.31c-32.17 21.42-50.78 24.94-56.91 13.84l112.95-88.38z"/><path fill="#2b4c54" d="M2104.29 2623.56c23.47-36.45 57.71-88.41 57.71-88.41s17.68-16.98 30.94-9.76c8.25 4.49 10.45 17.71 20.99 31.92 6.19 8.34-49.77 66.69-87.09 84.15-8.91 4.17-42.88 13.67-22.55-17.9z"/><path fill="#f5b297" d="M2175.06 2484.29c.65 1.64 15.56 45.36 15.56 45.36s-.68 21.79-20.9 25.58c-20.22 3.78-39.69-52.98-39.69-52.98l45.03-17.96z"/><path fill="#395b64" d="M2166.7 2564.33s-4.38-33.56-19.91-36.37c-15.53-2.81-8.05 42.62-8.05 42.62s-31.54 42.3-32.15 49.4c-.6 7.11 28.05 3.97 60.11-55.65z"/><path fill="#2b4c54" d="M2079.33 1865.86s-75.15 94.91-107.01 280.45c-18.37 106.98 158.26 373.54 158.26 373.54l54.16-20.86-58.04-294.44 163.5-369.47-210.87 30.78z"/><path fill="#395b64" d="m2255.76 2702.29.69 11.28s-34.22 27.46-80.35 37.19c-37.81 7.98-56.41 4.36-57.98-8.22l137.64-40.25z"/><path fill="#2b4c54" d="M2129.99 2725.73c35.3-25.16 86.35-60.74 86.35-60.74s22.71-9.22 32.36 2.39c6 7.22 3.15 20.32 7.68 37.43 2.66 10.04-70.93 43.52-112.07 45.9-9.83.57-44.9-3.18-14.32-24.98z"/><path fill="#f5b297" d="M2247.3 2622.58c0 1.76-2.35 47.89-2.35 47.89s-8.71 19.99-28.89 16.02c-20.18-3.97-17.24-63.91-17.24-63.91h48.48z"/><path fill="#395b64" d="M2209.9 2693.83s8.37-32.79-5.02-41.16c-13.38-8.36-23.26 36.61-23.26 36.61s-44.97 27.61-48.16 33.98c-3.2 6.38 24.57 14.07 76.44-29.43z"/><path fill="#395b64" d="m2309.88 1831.3-166.96 40.43s-35.95 413.51 48.16 775.28c0 0 22.23 19.91 59.5-2.14 0 0 25.08-468.13 43.44-548.78 18.35-80.65 57.6-180.13 15.86-264.79z"/><path fill="#fa9c70" d="M2329.8 1555.07s123.31 158.48 90.48 214.33c-25.64 43.62-112.29-91.13-112.29-91.13l21.81-123.2z"/><path fill="#fdae88" d="M2074.05 1565.12s-125.34 115.76-82.46 165.56c54.05 62.76 116.52-103.27 116.52-103.27l-34.06-62.29z"/><path fill="#77c6ee" d="M2318.11 1694.28c-14.7 4.23-29.88 8.07-42.47 14.7-19.41-39.01-39.3-79.75-49-101.94-44.01-100.21-24.41-139.7-24.41-139.7 98.87 11.91 150.28 91.97 183.9 166.15 0 0-46.11 54.54-68.02 60.79zM2110.62 1647.97c14.1-28.28 28.56-57.84 35.63-73.97 31.88-72.72 17.7-101.37 17.7-101.37-48.01 4.52-86.24 48.78-120.75 102.12 0 0-15.55 25.54-11.97 32.73 11.37 22.85 56.86 28.48 79.39 40.49z"/><path fill="#231f20" d="M2125.71 1560.88c-2.52 1.93-5.16 3.71-7.95 5.22-9.13 4.95-20.97 6.37-29.11 12.85-5.75 4.57-7.86 12.09-10.71 18.56-3.02 6.84-7.19 12.95-13.69 16.91-5.13 3.13-11.03 5.44-17.16 6.75 14.49 15.55 43.71 16.23 63.53 26.79 14.1-28.28 28.56-57.84 35.63-73.97 1.25-2.86 2.31-5.53 3.43-8.25-.49.18-.98.37-1.47.56-8.08 3.09-16.45.12-22.5-5.42zM2325.61 1655.12c-3.35-3.94-26.31-79.82-30.28-83.17-4.81-4.06-5.89 62.75-11.86 63.28-12.42 1.1-24.74 5.46-37.28 3.05-2.06-.39-4-.97-5.89-1.61 10.07 21.19 22.8 47.1 35.34 72.31 12.59-6.63 27.77-10.47 42.47-14.7 11.29-3.22 26.96-16.96 39.52-29.53-17.26 3.94-19.82 4.7-32.02-9.63z" opacity=".1"/><path fill="#8cd2fe" d="M2187.28 1465.65s-92.04 2.85-103.97 128.08c-11.93 125.24-57.95 271.82-22.16 294.59 35.79 22.77 233.5 22.77 269.29-2.85 35.79-25.62-13.64-254.74-27.27-303.13-13.62-48.38-25.56-113.85-115.89-116.69z"/><path fill="#231f20" d="M2334.53 1736.86c-.99 17.55-2.96 35.04-7.03 52.31-6.44 27.36-18.82 56.06-43.31 75.88-27.65 22.38-64.86 24.34-100.99 27.83-37.22 3.59-75.2 5.72-109.98-8.11-8.32-3.31-15.75-7.57-22.42-12.45 2.13 7.38 5.45 12.88 10.35 16 35.79 22.77 233.5 22.77 269.29-2.85 18.41-13.16 14.28-80.09 4.09-148.61z" opacity=".1"/><path fill="#fdae88" d="M2012.52 1736.86c81.37-35.7-105.43-239.37-105.43-239.37l-26.23 20.84c0-.01 82.07 240.29 131.66 218.53z"/><path fill="#fdae88" d="M1914.33 1525.36s-8.55-23.94-7.24-27.87c2.23-6.69 4.86-2.7 2.02-28.12-1.97-17.58 8.27-25.44 3.44-29.29-9.51-7.57-19.01 21.61-19.01 21.61s-7.58-58.01-17.6-55.16c-5.4 1.54.56 45.07.56 45.07s-6.43-8.05-10.77-5.17c-6.39 4.24-2.43 12.86-2.43 12.86s-4.88-2.98-8.58 1.48c-4.23 5.09.47 10.73.47 10.73s-3.81-2.32-6.52-.64c-2.72 1.69-6.63 6.26 3.93 19.88 8.6 11.09 28.19 14.75 36.32 47.6l25.41-12.98z"/><path fill="#fa9c70" d="M1868.97 1481.77c2.28-.39 4.35-1.72 5.65-3.38 2.17-2.78 2.1-6.12-.19-8.7a.514.514 0 0 0-.74-.04c-.22.19-.24.53-.04.74 1.96 2.21 2.02 4.96.15 7.35-1.91 2.45-5.76 4.12-9.1 2.37-6.1-3.19-8.98-8.8-9.01-8.86a.529.529 0 0 0-.94.48c.12.24 3.06 5.97 9.46 9.31 1.55.82 3.2 1 4.76.73z"/><path fill="#fa9c70" d="M1880.14 1473.53c.78-.13 1.48-.55 2.05-1.25 2.72-3.35 1.99-13.45-5.3-21.05a.522.522 0 1 0-.76.72c6.66 6.95 7.75 16.57 5.24 19.66-1.17 1.44-2.76.91-3.88.21-6.9-4.3-13.7-12.78-13.77-12.87a.525.525 0 0 0-.74-.08c-.23.18-.26.51-.08.74.07.09 6.98 8.71 14.03 13.11 1.15.71 2.24.98 3.21.81zM1859.06 1489.96c1.47-.25 2.67-.99 3.52-1.92 2.09-2.29 2.63-6.41-.48-9.53a.513.513 0 0 0-.74 0c-.21.2-.21.54 0 .74 2.65 2.66 2.21 6.15.45 8.08-1.68 1.84-5.1 2.77-9.23-.64-3.34-2.76-5.63-8.29-5.65-8.34a.539.539 0 0 0-.69-.29.53.53 0 0 0-.29.69c.1.24 2.41 5.83 5.95 8.76 2.71 2.23 5.18 2.79 7.16 2.45zM1886.04 1494.13c.18-.03.33-.15.4-.33.1-.27-.03-.57-.3-.68-3.51-1.35-5.68-3.41-6.44-6.13-1.7-6.02 3.92-13.44 3.98-13.51.18-.23.13-.56-.1-.74a.519.519 0 0 0-.74.1c-.25.32-5.99 7.9-4.16 14.43.86 3.06 3.24 5.36 7.08 6.83.1.04.19.05.28.03zM1884.94 1511.01c.42-.07.83-.19 1.23-.36 3.49-1.45 5.56-6.1 6.2-7.77 1.77.91 3.5 1.12 5.16.63 3.38-.99 5.19-4.53 5.26-4.68.13-.26.03-.57-.23-.7a.529.529 0 0 0-.71.23c-.02.03-1.69 3.29-4.62 4.15-1.54.45-3.18.17-4.87-.84a.546.546 0 0 0-.45-.04c-.15.06-.26.18-.31.33-.02.06-2.07 6.17-5.82 7.72-1.32.55-2.71.46-4.15-.26a.527.527 0 0 0-.71.24c-.13.26-.02.58.24.71 1.28.63 2.55.85 3.78.64zM1879.24 1494.21c.2-.03.37-.18.42-.38.01-.05 1.35-5.46-5-8.34-.26-.12-.58 0-.7.26-.12.27 0 .58.26.7 5.52 2.5 4.46 6.93 4.42 7.11a.529.529 0 0 0 .6.65zM1884.02 1426.46c.24-.04.42-.24.44-.49a.526.526 0 0 0-.5-.55l-5.28-.24a.52.52 0 0 0-.55.5c-.01.29.21.54.5.55l5.28.24c.04-.01.08-.01.11-.01zM1886.58 1442.58c.26-.04.45-.27.44-.54a.534.534 0 0 0-.55-.51l-6.17.24a.52.52 0 0 0-.5.55c.01.29.26.52.55.51l6.17-.24c.02 0 .04 0 .06-.01zM1885.99 1444.77c.22-.04.4-.22.43-.45a.528.528 0 0 0-.46-.59l-3.8-.48a.528.528 0 1 0-.13 1.05l3.8.48c.06 0 .11 0 .16-.01z"/><path fill="#fdae88" d="m2176.85 1440.41-7.52 40.2s6.82 38.04 58.9 10.1l-11.6-57.84-39.78 7.54z"/><path fill="#33133f" d="m2216.63 1432.87-39.78 7.54-3.26 17.44c.94.29 1.89.57 2.83.84 4.52 1.28 9.14 2.36 13.56 3.84 3.46 1.16 6.9 2.62 9.43 4.75 2.66 2.23 3.95 4.99 4.08 7.91.23 4.8-3.25 8.93-5.73 13.18-1.59 2.72-2.49 6.41-5.93 8.27-2.49 1.35-5.74 1.79-8.93 1.69 8.7 4.21 22.76 4.5 45.32-7.61l-11.59-57.85z" opacity=".15"/><path fill="#fdae88" d="M2183.21 1305.09s-85.06 100.55-44.53 127.29c40.52 26.75 94.97-1.41 94.97-1.41s19.04 7.23 32.29-13.11c10.68-16.4-1.56-19.34-1.56-19.34s32.85-38.61 7.56-64.35c-25.3-25.73-88.73-29.08-88.73-29.08z"/><path fill="#33133f" d="M2211.72 1398.64c-1.11 3-5.68 4.07-10.22 2.4-4.53-1.68-7.31-5.46-6.21-8.46 1.11-3 5.68-4.07 10.22-2.4 4.54 1.67 7.32 5.46 6.21 8.46zM2164.73 1372.04c-1.11 3-5.68 4.07-10.21 2.39-4.53-1.67-7.31-5.46-6.21-8.46 1.11-3 5.68-4.07 10.21-2.39 4.54 1.67 7.32 5.46 6.21 8.46z" opacity=".05"/><path fill="#2b4c54" d="M2181.45 1347.48c-.4-.23-.67-.66-.67-1.15 0-.43-.24-10.38-13.99-11.81-.74-.08-1.27-.73-1.19-1.46.08-.73.73-1.26 1.46-1.19 16.21 1.68 16.38 14.33 16.38 14.46 0 .74-.6 1.33-1.33 1.33-.24-.01-.47-.07-.66-.18zM2203.75 1360.54a1.31 1.31 0 0 1-.38-.33c-.46-.58-.36-1.41.21-1.87.1-.08 10.09-7.75 23.42 4.21.55.49.59 1.33.1 1.88-.49.55-1.33.6-1.88.1-11.68-10.49-19.9-4.18-19.98-4.11a1.3 1.3 0 0 1-1.49.12zM2174 1381.93c-.4-.23-.76-.51-1.08-.84-2.04-2.12-1.49-5.47-1.47-5.61.07-.42.33-.77.71-.96 7.8-3.99 11.63-13.22 11.66-13.31.28-.68 1.06-1.01 1.74-.73.7.28 1.01 1.06.73 1.74-.16.41-4.04 9.75-12.26 14.33-.02.8.12 1.99.82 2.71.65.67 1.78.91 3.35.7a1.331 1.331 0 1 1 .35 2.64c-1.84.22-3.37 0-4.55-.67z"/><path fill="#fcfaf7" d="M2150.53 1388.47s9.76 13.53 28.47 15.13c-.17 8.07-26.84 14.01-28.47-15.13z"/><path fill="#2b4c54" d="M2172.6 1354.79c-2.06 3.6-5.74 5.38-8.2 3.96-2.46-1.41-2.79-5.48-.72-9.08 2.06-3.6 5.74-5.37 8.2-3.96 2.46 1.41 2.78 5.48.72 9.08zM2212.75 1377.81c-2.06 3.6-5.74 5.38-8.2 3.96-2.46-1.41-2.79-5.48-.72-9.08 2.06-3.6 5.73-5.38 8.2-3.96 2.46 1.41 2.78 5.48.72 9.08z"/><path fill="#33133f" d="M2158.24 1414.66c-1.22-.7-1.91-1.34-1.98-1.41a.664.664 0 1 1 .91-.97c.04.04 4.47 4.08 11.35 2.73.36-.06.71.17.78.53.07.36-.17.71-.53.78-4.78.93-8.44-.46-10.53-1.66zM2258.44 1404.27s8.56.69 7.16 6.21c-1.41 5.52-12.54 15.12-20.6 14.18 0 0 18.28-4.62 18.39-13.7.1-9.06-6.45-3.16-4.95-6.69z" opacity=".05"/><path fill="#2b4c54" d="M2251.74 1331.94s-24.82 15.14-37.31 6.72c-12.49-8.42-12.32-11.54-12.32-11.54s-14.19 7.24-32.95-4.77c-18.76-12.01-12.74-26.16-12.74-26.16s-11.74-12.7 1.68-26.35c13.42-13.65 24.09-.88 24.09-.88s-1.6-13.93 18.4-16.73c20-2.8 22.36 24.15 22.36 24.15s6.9-3.44 29.54 1.28 23.96 32.75 23.96 32.75 31.28 6.61 22.17 34.95c0 0 11.71 20.56-5.06 31.51 0 0-4.39 38.61-31.91 23.03 0 0-13.5 12.97-24.03 5.71-10.52-7.26 4.65-18.95 5.73-26.39s-13.55-22.93 8.39-47.28z"/><path fill="#fdae88" d="M2371 1724.76c-35.04 29.48-100.81 176.7-109.47 176.23-3.34-1.28-10.74.95-16.33 4.24-5.59 3.28-21.67-4.36-23.11-.61-1.44 3.75 6.69 10.69 12.07 10.41 5.38-.28 5.58 4.55 1.7 7.91-.64.56-1.64 1.29-2.85 2.12 5.53 6.84 11.36 13.44 16.72 20.42 4.23 5.51 7.71 11.71 11.94 17.25 5.82-8.47 10.72-18.59 12.64-24.62 3.14-9.89 7.67-18.21 7.67-18.21s91.94-83.31 133.57-142.23c25.18-35.62-5.08-86.12-44.55-52.91z"/><path fill="#fff" d="M2222.84 1904.39c1-.78 3.21-.15 4.1.14 0 0 .43 1.85-.7 1.83-1.12-.02-4.4-1.19-3.4-1.97z" opacity=".2"/><path fill="#2b4c54" d="m2233.98 1917.54 34.48 43.25s.68 11.23-4.55 11.87c-5.23.64-40.6-38.55-41.6-46.73-.99-8.18 11.67-8.39 11.67-8.39z"/><path fill="#eeedf7" d="m1771.44 584.75 177.42-73.37 10.55 65.4z"/><path fill="#fff" d="m1809.47 878.07 164.77 39.53-26.35 52.19z"/><path fill="#bde0fb" d="M1523.46 318.96 1537.04 173l54.32 18.55z"/><path fill="#eeedf7" d="M1829.16 353.2c0 14.77-11.97 26.74-26.74 26.74-14.77 0-26.74-11.97-26.74-26.74 0-14.77 11.97-26.74 26.74-26.74 14.77 0 26.74 11.97 26.74 26.74z"/><path fill="#bde0fb" d="m1193.34 523.57-164.75-42.08-.92 66.57z"/><path fill="#eeedf7" d="M2022.89 1416.62c0 10.63-8.61 19.24-19.24 19.24-10.63 0-19.24-8.61-19.24-19.24 0-10.62 8.61-19.24 19.24-19.24 10.62 0 19.24 8.62 19.24 19.24z"/><path fill="#fff" d="m1118.5 1140.13-190.8 21.26 22.28 62.39z"/><circle cx="1214.75" cy="796.11" r="26.74" fill="#fff"/><circle cx="1268.23" cy="353.2" r="26.74" fill="#bde0fb"/></svg>