<svg xmlns="http://www.w3.org/2000/svg" data-name="Layer 1" viewBox="0 0 700 550"><path fill="#ffe3cb" d="M288.28,432.38975c-15.03243-4.69936-28.52-9.50049-44.74577-18.61246-16.73457-9.39874-91.07342-54.126-100.74043-131.5361a147.65594,147.65594,0,0,1,6.161-63.053c2.988-8.76044,9.186-26.35533,24.829-43.75594,19.149-21.31368,40.99923-29.57458,53.81149-34.2462a155.26769,155.26769,0,0,1,60.33324-8.964c11.61892.37928,32.12778,1.23035,55.43962,11.4154,15.20819,6.642,24.66244,14.21837,38.594,25.54126,22.07224,17.95567,24.977,25.43025,63.58951,62.50717,10.60133,10.1758,19.31552,18.19618,32.61806,26.09631,9.223,5.47643,16.67907,8.53842,30.4349,14.12586,33.81141,13.73733,43.43825,16.5188,54.50212,24.25241,21.51719,15.05093,20.1235,31.46472,21.04857,34.9985a69.49787,69.49787,0,0,1,1.63738,27.72443c-2.82147,18.56621-12.82151,30.70317-19.02874,38.04824a104.62422,104.62422,0,0,1-30.4349,24.45893,194.4929,194.4929,0,0,1-24.94,10.99911Z"/><path fill="#ffe3cb" d="M240.5549,419.26693c-22.20508-12.47461-95.41406-59.24512-105.16309-137.3584a154.85451,154.85451,0,0,1,6.43848-65.88281c2.77246-8.13086,9.26465-27.17188,25.94824-45.73633,20.43164-22.73535,43.72266-31.23047,56.23633-35.79395a161.99368,161.99368,0,0,1,63.01758-9.36914c10.73242.34864,33.0625,1.07422,57.9209,11.92774l-.3711.84765c-24.69433-10.78222-46.08691-11.47754-57.5791-11.85156a161.10222,161.10222,0,0,0-62.67187,9.31445c-12.43653,4.53614-35.58692,12.9795-55.86524,35.544-16.55664,18.42285-23.00586,37.33887-25.76074,45.416a153.88256,153.88256,0,0,0-6.39551,65.46875c9.69629,77.6836,82.58887,124.2461,104.69824,136.667Z"/><path fill="#8b9d36" d="M538.65935,431.89757l.7832-.47071c-.2207-.36621-22.041-36.73046-25.4375-45.78906l-.85547.32031C516.57634,395.09581,537.75994,430.39854,538.65935,431.89757Z"/><path fill="#8b9d36" d="M520.97251 366.56946a39.22394 39.22394 0 00-2.10916 7.0694 66.09034 66.09034 0 00-1.078 7.16753 64.77427 64.77427 0 00-.29692 7.24176 38.69368 38.69368 0 00.74452 7.34079 38.72912 38.72912 0 002.11407-7.069 64.88032 64.88032 0 001.07309-7.168 66.08876 66.08876 0 00.292-7.24221A39.18864 39.18864 0 00520.97251 366.56946zM529.02578 377.58067a37.4133 37.4133 0 00-2.73688 6.66543 62.83414 62.83414 0 00-1.71952 6.86081 61.876 61.876 0 00-.94915 7.00877 37.00437 37.00437 0 00.07846 7.206 36.97073 36.97073 0 002.74179-6.66448 61.87573 61.87573 0 001.71461-6.86182 62.93793 62.93793 0 00.94425-7.00965A37.44929 37.44929 0 00529.02578 377.58067zM533.463 390.39968a31.74489 31.74489 0 00-2.32985 6.19548 52.73543 52.73543 0 00-1.30357 6.34193 51.853 51.853 0 00-.52741 6.45272 31.34378 31.34378 0 00.50824 6.60056 31.34628 31.34628 0 002.33475-6.19481 51.76824 51.76824 0 001.29867-6.3426 52.74054 52.74054 0 00.5225-6.45344A31.71449 31.71449 0 00533.463 390.39968zM539.05089 403.195a24.3031 24.3031 0 00-2.36239 5.27241 39.6057 39.6057 0 00-1.341 5.44874 38.87162 38.87162 0 00-.56842 5.58215 24.02057 24.02057 0 00.46232 5.76014 24.00269 24.00269 0 002.36729-5.27158 38.9339 38.9339 0 001.33656-5.44958 39.66762 39.66762 0 00.56352-5.583A24.30226 24.30226 0 00539.05089 403.195zM543.9812 411.19253a21.88015 21.88015 0 00-2.49391 4.62938 37.72722 37.72722 0 00-1.56794 4.80236 43.10657 43.10657 0 00-.94692 4.92484c-.10254.83591-.19661 1.66714-.259 2.51441a18.71258 18.71258 0 01-.27552 2.57461 5.05441 5.05441 0 00.60632-.38274l.49218-.49319a9.10077 9.10077 0 00.86088-1.07676 17.24753 17.24753 0 001.32363-2.30365 25.65283 25.65283 0 001.73691-4.85753 28.753 28.753 0 00.81763-5.05781A19.04062 19.04062 0 00543.9812 411.19253zM516.184 391.4512a31.4531 31.4531 0 00-5.5549-4.8169 51.4752 51.4752 0 00-6.13981-3.66123 50.57222 50.57222 0 00-6.58295-2.78653 31.09314 31.09314 0 00-7.17322-1.61983 31.085 31.085 0 005.55178 4.82242 50.57769 50.57769 0 006.14293 3.65571 51.45432 51.45432 0 006.58563 2.781A31.45067 31.45067 0 00516.184 391.4512zM521.64035 401.64271a38.74618 38.74618 0 00-6.85134-4.4851 64.51059 64.51059 0 00-7.307-3.27247 63.35575 63.35575 0 00-7.65158-2.35481 38.30415 38.30415 0 00-8.11122-1.13065 38.31309 38.31309 0 006.84866 4.49089 63.36658 63.36658 0 007.3092 3.26668 64.49719 64.49719 0 007.6538 2.349A38.74629 38.74629 0 00521.64035 401.64271zM528.06326 412.971a33.04291 33.04291 0 00-6.17593-4.33024 54.29914 54.29914 0 00-6.64715-3.12351 53.33768 53.33768 0 00-7.00336-2.21026 32.65994 32.65994 0 00-7.4786-.992 32.67111 32.67111 0 006.17369 4.336 53.34571 53.34571 0 006.64938 3.11777 54.30762 54.30762 0 007.00559 2.20452A33.04084 33.04084 0 00528.06326 412.971zM533.13934 421.69033a24.77075 24.77075 0 00-5.42427-3.57285 39.56063 39.56063 0 00-5.81124-2.33658 38.85 38.85 0 00-6.10459-1.4011 24.508 24.508 0 00-6.49513-.15308 24.50643 24.50643 0 005.42249 3.57869 38.848 38.848 0 005.81347 2.33074 39.53966 39.53966 0 006.10593 1.39513A24.78317 24.78317 0 00533.13934 421.69033z"/><path fill="#8b9d36" d="M537.14636 429.51411a32.58029 32.58029 0 00-5.96238-4.5303 53.46986 53.46986 0 00-6.47685-3.34152 52.54041 52.54041 0 00-6.86649-2.442 32.21465 32.21465 0 00-7.38587-1.24183 32.20154 32.20154 0 005.9597 4.536 52.51794 52.51794 0 006.47952 3.336 53.45983 53.45983 0 006.86872 2.43617A32.57949 32.57949 0 00537.14636 429.51411zM514.411 387.11277a22.93159 22.93159 0 00-.17788-7.3224 34.50321 34.50321 0 00-1.86575-6.66142 33.93683 33.93683 0 00-3.14436-6.16076 22.703 22.703 0 00-4.84916-5.49349 22.68885 22.68885 0 00.16941 7.32552 33.96708 33.96708 0 001.87377 6.6583 34.50654 34.50654 0 003.15283 6.15759A22.93538 22.93538 0 00514.411 387.11277z"/><path fill="#50661a" d="M541.01287,432.38975l.9121-.01562c-.04-2.49414-1.123-61.31445-12.88964-79.94434l-.77149.48829C539.89372,371.33214,541.0031,431.78136,541.01287,432.38975Z"/><path fill="#50661a" d="M532.43 360.83234a41.84157 41.84157 0 01-.27374-8.23382 74.02431 74.02431 0 01.88986-7.98723c.4262-2.63395 1.00621-5.24171 1.68831-7.82779.68121-2.60313 1.54164-5.10768 2.46092-7.7754a11.40846 11.40846 0 01.58892 2.04708 18.24359 18.24359 0 01.32189 2.08014 35.25161 35.25161 0 01.18546 4.12928 53.01988 53.01988 0 01-.74318 8.09277 58.81677 58.81677 0 01-1.87244 7.87973A37.04933 37.04933 0 01532.43 360.83234zM517.96722 323.58466a29.58336 29.58336 0 015.15054 6.61773 46.50747 46.50747 0 013.452 7.25341 45.7021 45.7021 0 012.16668 7.73456 29.26476 29.26476 0 01.45206 8.37625 29.26446 29.26446 0 01-5.15856-6.61471 45.66056 45.66056 0 01-3.44395-7.25648 46.50719 46.50719 0 01-2.15865-7.73757A29.56866 29.56866 0 01517.96722 323.58466zM508.27067 338.57564a68.15055 68.15055 0 016.78269 6.2497c2.09623 2.173 4.09662 4.39466 6.05376 6.62832l5.81481 6.67317c.97545 1.09276 1.96116 2.16952 3.00259 3.18944a13.71012 13.71012 0 003.54827 2.68043 6.159 6.159 0 01-2.42838-.06158 11.36866 11.36866 0 01-2.33965-.73588 22.595 22.595 0 01-4.16707-2.3893 40.89817 40.89817 0 01-6.86426-6.3503 54.18675 54.18675 0 01-5.45459-7.45163A38.78207 38.78207 0 01508.27067 338.57564zM508.27067 353.56661a56.13536 56.13536 0 018.43177 5.18587 95.52539 95.52539 0 017.56509 6.14851 93.91162 93.91162 0 016.90929 6.877 55.50227 55.50227 0 016.03415 7.8488 55.4811 55.4811 0 01-8.43622-5.1813 93.8371 93.8371 0 01-7.56108-6.15307 95.51718 95.51718 0 01-6.90483-6.8816A56.12685 56.12685 0 01508.27067 353.56661zM509.25683 365.32864a55.50725 55.50725 0 018.51869 4.9264 94.40176 94.40176 0 017.67789 5.91128 92.778 92.778 0 017.0408 6.65656 54.883 54.883 0 016.19108 7.65075 54.85633 54.85633 0 01-8.52315-4.92167 92.71623 92.71623 0 01-7.67343-5.916 94.39952 94.39952 0 01-7.03679-6.66125A55.47975 55.47975 0 01509.25683 365.32864zM509.914 377.90116a51.60589 51.60589 0 018.533 4.13948 87.39047 87.39047 0 017.75813 5.17734 85.93531 85.93531 0 017.17144 5.96294 50.99469 50.99469 0 016.389 7.01077 51.04091 51.04091 0 01-8.53653-4.13452 85.93059 85.93059 0 01-7.75456-5.18236 87.44743 87.44743 0 01-7.16742-5.96789A51.60381 51.60381 0 01509.914 377.90116zM509.25683 387.02238a57.41512 57.41512 0 018.928 4.53308 97.80114 97.80114 0 018.14466 5.56476 96.07976 96.07976 0 017.55216 6.34561 56.74089 56.74089 0 016.76084 7.38705 56.74549 56.74549 0 01-8.93153-4.52812 96.08347 96.08347 0 01-8.14109-5.56972 97.78442 97.78442 0 01-7.54815-6.35052A57.40991 57.40991 0 01509.25683 387.02238zM506.956 395.56838a74.84723 74.84723 0 019.33231 5.17941c2.96291 1.89673 5.82952 3.90186 8.62436 5.99464 2.80286 2.08058 5.52814 4.24971 8.20528 6.49106 2.70478 2.22213 5.25977 4.53654 8.05817 6.8286a22.56429 22.56429 0 01-5.22544-1.52492 51.10018 51.10018 0 01-4.85228-2.336 79.64028 79.64028 0 01-8.91726-5.80278 91.94524 91.94524 0 01-8.101-6.83617A58.23843 58.23843 0 01506.956 395.56838zM504.162 404.44312a76.97434 76.97434 0 0110.1339 4.81579c3.23619 1.80283 6.377 3.73858 9.44555 5.77619q4.60353 3.0555 8.985 6.42575 2.19007 1.68987 4.33825 3.44049a38.65952 38.65952 0 004.4038 3.37206 8.50662 8.50662 0 01-2.847-.489c-.91749-.27172-1.80824-.6023-2.68917-.94613-1.757-.69749-3.45465-1.49528-5.11978-2.34066a97.16447 97.16447 0 01-9.59892-5.66267 109.72852 109.72852 0 01-8.93464-6.62147A67.91208 67.91208 0 01504.162 404.44312zM535.26275 371.27329a45.42337 45.42337 0 011.30981-8.78875 76.3247 76.3247 0 012.526-8.34382 75.1267 75.1267 0 013.44706-8.00712 44.93433 44.93433 0 014.67486-7.558 44.939 44.939 0 01-1.30358 8.79087 75.12854 75.12854 0 01-2.53225 8.3417 76.429 76.429 0 01-3.45286 8.005A45.42426 45.42426 0 01535.26275 371.27329zM537.211 381.53564a46.41548 46.41548 0 012.52244-8.62441 78.16038 78.16038 0 013.6682-8.02055 76.85922 76.85922 0 014.53575-7.56359 45.91969 45.91969 0 015.69266-6.954 45.92125 45.92125 0 01-2.51665 8.6273 76.952 76.952 0 01-3.674 8.01766 78.25471 78.25471 0 01-4.5411 7.56069A46.47416 46.47416 0 01537.211 381.53564zM538.68529 391.45972a50.84216 50.84216 0 013.69227-8.65829 86.15746 86.15746 0 014.76535-7.93306 84.64489 84.64489 0 015.57808-7.38409 50.27191 50.27191 0 016.66142-6.65194 50.26715 50.26715 0 01-3.68736 8.6618 84.5408 84.5408 0 01-4.77071 7.92955 86.06127 86.06127 0 01-5.583 7.38069A50.84293 50.84293 0 01538.68529 391.45972zM539.76551 402.40863a65.55883 65.55883 0 015.28607-9.29269q2.94708-4.39814 6.28916-8.47283 3.33093-4.08384 7.04794-7.85237a64.54129 64.54129 0 018.0604-7.02476 64.53544 64.53544 0 01-5.28117 9.29659q-2.94708 4.3979-6.29362 8.46894-3.339 4.0779-7.05284 7.84846A65.479 65.479 0 01539.76551 402.40863zM540.64244 413.76218a66.20507 66.20507 0 016.25973-8.73492q3.4065-4.08927 7.17277-7.81564 3.75558-3.73677 7.8629-7.11995a65.20678 65.20678 0 018.7844-6.19186 65.20726 65.20726 0 01-6.25527 8.73927q-3.4065 4.08885-7.17679 7.81129-3.76293 3.73-7.86735 7.11554A66.18176 66.18176 0 01540.64244 413.76218zM541.17608 421.04211a57.69878 57.69878 0 016.801-7.38431 98.30175 98.30175 0 017.582-6.351 96.56833 96.56833 0 018.17319-5.56905 57.03651 57.03651 0 018.96229-4.52589 57.053 57.053 0 01-6.7974 7.38921 96.6385 96.6385 0 01-7.5856 6.34612 98.37325 98.37325 0 01-8.1772 5.56409A57.70977 57.70977 0 01541.17608 421.04211zM541.46854 427.123a61.07909 61.07909 0 017.94537-6.60625q4.16751-2.96262 8.58869-5.48178 4.41428-2.53155 9.07553-4.63088a60.362 60.362 0 019.72508-3.49577 60.37169 60.37169 0 01-7.9427 6.61154q-4.16751 2.96229-8.59137 5.47643-4.419 2.52345-9.07864 4.62559A61.08823 61.08823 0 01541.46854 427.123zM541.24162 431.06723a65.96456 65.96456 0 019.29575-5.35428c3.18939-1.53975 6.44119-2.91164 9.746-4.13976q4.9566-1.84385 10.08664-3.22059a65.0026 65.0026 0 0110.54182-1.99437 65.00424 65.00424 0 01-9.29353 5.36008q-4.78475 2.30912-9.74826 4.134c-3.30664 1.22332-6.66677 2.303-10.08887 3.21479A65.95554 65.95554 0 01541.24162 431.06723z"/><path fill="#5e7c24" d="M542.839,430.753c.89941-1.499,22.083-36.80079,25.50976-45.93946l-.85547-.32031c-3.39648,9.05957-25.21679,45.42285-25.4375,45.78906Z"/><path fill="#5e7c24" d="M560.572 365.56946a39.22394 39.22394 0 012.10916 7.0694 66.09034 66.09034 0 011.078 7.16753 64.77427 64.77427 0 01.29692 7.24176 38.69368 38.69368 0 01-.74452 7.34079 38.72912 38.72912 0 01-2.11407-7.069 64.87792 64.87792 0 01-1.07308-7.168 66.08876 66.08876 0 01-.292-7.24221A39.18864 39.18864 0 01560.572 365.56946zM552.51869 376.58067a37.4133 37.4133 0 012.73688 6.66543 62.83185 62.83185 0 011.71952 6.86081 61.876 61.876 0 01.94915 7.00877 37.00437 37.00437 0 01-.07846 7.206 36.97 36.97 0 01-2.74178-6.66448 61.87356 61.87356 0 01-1.71462-6.86182 62.93793 62.93793 0 01-.94425-7.00965A37.44929 37.44929 0 01552.51869 376.58067zM548.08146 389.39968a31.74489 31.74489 0 012.32985 6.19548 52.73543 52.73543 0 011.30357 6.34193 51.853 51.853 0 01.52741 6.45272 31.34378 31.34378 0 01-.50824 6.60056 31.34628 31.34628 0 01-2.33475-6.19481 51.76824 51.76824 0 01-1.29867-6.3426 52.73855 52.73855 0 01-.52249-6.45344A31.71515 31.71515 0 01548.08146 389.39968zM542.49358 402.195a24.30262 24.30262 0 012.36239 5.27241 39.60425 39.60425 0 011.341 5.44874 38.87162 38.87162 0 01.56842 5.58215 24.02106 24.02106 0 01-.46231 5.76014 24.00274 24.00274 0 01-2.3673-5.27158 38.9339 38.9339 0 01-1.33656-5.44958 39.66762 39.66762 0 01-.56352-5.583A24.30226 24.30226 0 01542.49358 402.195zM537.56327 410.19253a21.8797 21.8797 0 012.49391 4.62938 37.72563 37.72563 0 011.56794 4.80236 43.10657 43.10657 0 01.94692 4.92484c.10254.83591.19661 1.66714.259 2.51441a18.71258 18.71258 0 00.27552 2.57461 5.05434 5.05434 0 01-.60631-.38274l-.49219-.49319a9.09966 9.09966 0 01-.86087-1.07676 17.24651 17.24651 0 01-1.32364-2.30365 25.65283 25.65283 0 01-1.73691-4.85753 28.753 28.753 0 01-.81763-5.05781A19.04062 19.04062 0 01537.56327 410.19253zM565.36049 390.4512a31.4531 31.4531 0 015.5549-4.8169 51.4752 51.4752 0 016.13981-3.66123 50.57222 50.57222 0 016.58295-2.78653 31.09314 31.09314 0 017.17322-1.61983 31.085 31.085 0 01-5.55178 4.82242 50.57769 50.57769 0 01-6.14293 3.65571 51.45432 51.45432 0 01-6.58563 2.781A31.45067 31.45067 0 01565.36049 390.4512zM559.90412 400.64271a38.74618 38.74618 0 016.85134-4.4851 64.51059 64.51059 0 017.307-3.27247 63.35575 63.35575 0 017.65158-2.35481 38.30415 38.30415 0 018.11122-1.13065 38.31273 38.31273 0 01-6.84866 4.49089 63.36644 63.36644 0 01-7.30919 3.26668 64.49791 64.49791 0 01-7.65381 2.349A38.74629 38.74629 0 01559.90412 400.64271zM553.48122 411.971a33.04252 33.04252 0 016.17592-4.33024 54.29983 54.29983 0 016.64715-3.12351 53.33768 53.33768 0 017.00336-2.21026 32.65994 32.65994 0 017.4786-.992 32.67111 32.67111 0 01-6.17369 4.336 53.34571 53.34571 0 01-6.64938 3.11777 54.30713 54.30713 0 01-7.00559 2.20452A33.04083 33.04083 0 01553.48122 411.971zM548.40513 420.69033a24.77075 24.77075 0 015.42427-3.57285 39.56063 39.56063 0 015.81124-2.33658 38.85 38.85 0 016.10459-1.4011 24.508 24.508 0 016.49513-.15308 24.506 24.506 0 01-5.42249 3.57869 38.848 38.848 0 01-5.81347 2.33074 39.53966 39.53966 0 01-6.10593 1.39513A24.78317 24.78317 0 01548.40513 420.69033z"/><path fill="#5e7c24" d="M544.39811 428.51411a32.58029 32.58029 0 015.96238-4.5303 53.46986 53.46986 0 016.47685-3.34152 52.54041 52.54041 0 016.86649-2.442 32.21474 32.21474 0 017.38587-1.24183 32.20154 32.20154 0 01-5.9597 4.536 52.51794 52.51794 0 01-6.47952 3.336 53.45983 53.45983 0 01-6.86872 2.43617A32.5793 32.5793 0 01544.39811 428.51411zM567.13351 386.11277a22.93187 22.93187 0 01.17788-7.3224 34.50321 34.50321 0 011.86575-6.66142 33.93683 33.93683 0 013.14436-6.16076 22.70279 22.70279 0 014.84917-5.49349 22.68913 22.68913 0 01-.16942 7.32552 33.96708 33.96708 0 01-1.87377 6.6583 34.50588 34.50588 0 01-3.15283 6.15759A22.93538 22.93538 0 01567.13351 386.11277z"/><path fill="#8b9d36" d="M180.27608,431.89757l-.7832-.47071c.2207-.36621,22.041-36.73046,25.4375-45.78906l.85547.32031C202.35909,395.09581,181.1755,430.39854,180.27608,431.89757Z"/><path fill="#8b9d36" d="M197.96292 366.56946a39.22394 39.22394 0 012.10916 7.0694 66.09034 66.09034 0 011.078 7.16753 64.77427 64.77427 0 01.29692 7.24176 38.69368 38.69368 0 01-.74452 7.34079 38.72912 38.72912 0 01-2.11407-7.069 64.87792 64.87792 0 01-1.07308-7.168 66.08876 66.08876 0 01-.292-7.24221A39.18864 39.18864 0 01197.96292 366.56946zM189.90965 377.58067a37.4133 37.4133 0 012.73688 6.66543 62.83185 62.83185 0 011.71952 6.86081 61.876 61.876 0 01.94915 7.00877 37.00437 37.00437 0 01-.07846 7.206 36.97 36.97 0 01-2.74178-6.66448 61.87356 61.87356 0 01-1.71462-6.86182 62.93793 62.93793 0 01-.94425-7.00965A37.44929 37.44929 0 01189.90965 377.58067zM185.47242 390.39968a31.74489 31.74489 0 012.32985 6.19548 52.73543 52.73543 0 011.30357 6.34193 51.853 51.853 0 01.52741 6.45272 31.34378 31.34378 0 01-.50824 6.60056 31.34628 31.34628 0 01-2.33475-6.19481 51.76824 51.76824 0 01-1.29867-6.3426 52.73855 52.73855 0 01-.52249-6.45344A31.71515 31.71515 0 01185.47242 390.39968zM179.88454 403.195a24.30262 24.30262 0 012.36239 5.27241 39.60425 39.60425 0 011.341 5.44874 38.87162 38.87162 0 01.56842 5.58215 24.02106 24.02106 0 01-.46231 5.76014 24.00274 24.00274 0 01-2.3673-5.27158 38.9339 38.9339 0 01-1.33656-5.44958 39.66762 39.66762 0 01-.56352-5.583A24.30226 24.30226 0 01179.88454 403.195zM174.95423 411.19253a21.88015 21.88015 0 012.49391 4.62938 37.72563 37.72563 0 011.56794 4.80236 43.10657 43.10657 0 01.94692 4.92484c.10254.83591.19661 1.66714.259 2.51441a18.71258 18.71258 0 00.27552 2.57461 5.0552 5.0552 0 01-.60632-.38274l-.49218-.49319a9.09966 9.09966 0 01-.86087-1.07676 17.24651 17.24651 0 01-1.32364-2.30365 25.65283 25.65283 0 01-1.73691-4.85753 28.753 28.753 0 01-.81763-5.05781A19.04062 19.04062 0 01174.95423 411.19253zM202.75145 391.4512a31.4531 31.4531 0 015.5549-4.8169 51.4752 51.4752 0 016.13981-3.66123 50.57222 50.57222 0 016.583-2.78653 31.09314 31.09314 0 017.17322-1.61983 31.085 31.085 0 01-5.55178 4.82242 50.57769 50.57769 0 01-6.14293 3.65571 51.45432 51.45432 0 01-6.58563 2.781A31.45067 31.45067 0 01202.75145 391.4512zM197.29508 401.64271a38.74618 38.74618 0 016.85134-4.4851 64.51059 64.51059 0 017.307-3.27247 63.35575 63.35575 0 017.65158-2.35481 38.30415 38.30415 0 018.11122-1.13065 38.31273 38.31273 0 01-6.84866 4.49089 63.36644 63.36644 0 01-7.30919 3.26668 64.49791 64.49791 0 01-7.65381 2.349A38.74629 38.74629 0 01197.29508 401.64271zM190.87218 412.971a33.04252 33.04252 0 016.17592-4.33024 54.29983 54.29983 0 016.64715-3.12351 53.33768 53.33768 0 017.00336-2.21026 32.65994 32.65994 0 017.4786-.992 32.67111 32.67111 0 01-6.17369 4.336 53.34571 53.34571 0 01-6.64938 3.11777 54.30713 54.30713 0 01-7.00559 2.20452A33.04083 33.04083 0 01190.87218 412.971zM185.79609 421.69033a24.77075 24.77075 0 015.42427-3.57285 39.56063 39.56063 0 015.81124-2.33658 38.85 38.85 0 016.10459-1.4011 24.508 24.508 0 016.49513-.15308 24.506 24.506 0 01-5.42249 3.57869 38.848 38.848 0 01-5.81347 2.33074 39.53966 39.53966 0 01-6.10593 1.39513A24.78317 24.78317 0 01185.79609 421.69033z"/><path fill="#8b9d36" d="M181.78907 429.51411a32.58029 32.58029 0 015.96238-4.5303 53.46986 53.46986 0 016.47685-3.34152 52.54041 52.54041 0 016.86649-2.442 32.21474 32.21474 0 017.38587-1.24183 32.20154 32.20154 0 01-5.9597 4.536 52.51794 52.51794 0 01-6.47952 3.336 53.45983 53.45983 0 01-6.86872 2.43617A32.5793 32.5793 0 01181.78907 429.51411zM204.52447 387.11277a22.93159 22.93159 0 01.17788-7.3224 34.50321 34.50321 0 011.86575-6.66142 33.93683 33.93683 0 013.14436-6.16076 22.70279 22.70279 0 014.84917-5.49349 22.68913 22.68913 0 01-.16942 7.32552 33.96708 33.96708 0 01-1.87377 6.6583 34.50588 34.50588 0 01-3.15283 6.15759A22.93538 22.93538 0 01204.52447 387.11277z"/><path fill="#50661a" d="M177.92257,432.38975l-.91211-.01562c.04-2.49414,1.123-61.31445,12.88965-79.94434l.77148.48829C179.04171,371.33214,177.93233,431.78136,177.92257,432.38975Z"/><path fill="#50661a" d="M186.50542 360.83234a41.84232 41.84232 0 00.27373-8.23382 74.02179 74.02179 0 00-.88986-7.98723c-.4262-2.63395-1.00621-5.24171-1.68831-7.82779-.68121-2.60313-1.54164-5.10768-2.46092-7.7754a11.40846 11.40846 0 00-.58892 2.04708 18.24132 18.24132 0 00-.32188 2.08014 35.24726 35.24726 0 00-.18546 4.12928 53.01861 53.01861 0 00.74317 8.09277 58.81677 58.81677 0 001.87244 7.87973A37.04883 37.04883 0 00186.50542 360.83234zM200.96821 323.58466a29.58394 29.58394 0 00-5.15054 6.61773 46.50747 46.50747 0 00-3.452 7.25341 45.7021 45.7021 0 00-2.16668 7.73456 29.26476 29.26476 0 00-.45206 8.37625 29.26418 29.26418 0 005.15856-6.61471 45.66056 45.66056 0 003.444-7.25648 46.50719 46.50719 0 002.15865-7.73757A29.56866 29.56866 0 00200.96821 323.58466zM210.66476 338.57564a68.14932 68.14932 0 00-6.78268 6.2497c-2.09624 2.173-4.09663 4.39466-6.05377 6.62832l-5.81481 6.67317c-.97545 1.09276-1.96115 2.16952-3.00259 3.18944a13.71007 13.71007 0 01-3.54826 2.68043 6.159 6.159 0 002.42837-.06158 11.36866 11.36866 0 002.33965-.73588 22.595 22.595 0 004.16707-2.3893 40.89817 40.89817 0 006.86426-6.3503 54.18675 54.18675 0 005.45459-7.45163A38.7816 38.7816 0 00210.66476 338.57564zM210.66476 353.56661a56.13536 56.13536 0 00-8.43177 5.18587 95.52721 95.52721 0 00-7.56509 6.14851 93.91162 93.91162 0 00-6.90929 6.877 55.503 55.503 0 00-6.03415 7.8488 55.48012 55.48012 0 008.43622-5.1813 93.83535 93.83535 0 007.56108-6.15307 95.51718 95.51718 0 006.90483-6.8816A56.12685 56.12685 0 00210.66476 353.56661zM209.67861 365.32864a55.50687 55.50687 0 00-8.5187 4.9264 94.4016 94.4016 0 00-7.67788 5.91128 92.7762 92.7762 0 00-7.04081 6.65656 54.88367 54.88367 0 00-6.19108 7.65075 54.85633 54.85633 0 008.52315-4.92167 92.71623 92.71623 0 007.67343-5.916 94.39952 94.39952 0 007.03679-6.66125A55.48055 55.48055 0 00209.67861 365.32864zM209.02147 377.90116a51.60627 51.60627 0 00-8.533 4.13948 87.39047 87.39047 0 00-7.75813 5.17734 85.93531 85.93531 0 00-7.17144 5.96294 50.99469 50.99469 0 00-6.389 7.01077 51.04091 51.04091 0 008.53653-4.13452 85.93059 85.93059 0 007.75456-5.18236 87.44925 87.44925 0 007.16743-5.96789A51.60439 51.60439 0 00209.02147 377.90116zM209.67861 387.02238a57.41523 57.41523 0 00-8.928 4.53308 97.80114 97.80114 0 00-8.14466 5.56476 96.08159 96.08159 0 00-7.55216 6.34561 56.74012 56.74012 0 00-6.76083 7.38705 56.74582 56.74582 0 008.93152-4.52812 96.08347 96.08347 0 008.14109-5.56972 97.78442 97.78442 0 007.54815-6.35052A57.41 57.41 0 00209.67861 387.02238zM211.97947 395.56838a74.84723 74.84723 0 00-9.33231 5.17941c-2.96291 1.89673-5.82952 3.90186-8.62436 5.99464-2.80286 2.08058-5.52814 4.24971-8.20528 6.49106-2.70478 2.22213-5.25977 4.53654-8.05817 6.8286a22.56429 22.56429 0 005.22544-1.52492 51.10018 51.10018 0 004.85228-2.336 79.64028 79.64028 0 008.91726-5.80278 91.94524 91.94524 0 008.101-6.83617A58.23843 58.23843 0 00211.97947 395.56838zM214.77342 404.44312a76.97434 76.97434 0 00-10.1339 4.81579c-3.23619 1.80283-6.377 3.73858-9.44555 5.77619q-4.60352 3.0555-8.985 6.42575-2.19009 1.68987-4.33826 3.44049a38.65952 38.65952 0 01-4.4038 3.37206 8.50657 8.50657 0 002.847-.489c.91749-.27172 1.80824-.6023 2.68918-.94613 1.757-.69749 3.45464-1.49528 5.11977-2.34066a97.16331 97.16331 0 009.59892-5.66267 109.72852 109.72852 0 008.93464-6.62147A67.91133 67.91133 0 00214.77342 404.44312zM183.67269 371.27329a45.42415 45.42415 0 00-1.30982-8.78875 76.3225 76.3225 0 00-2.526-8.34382 75.1267 75.1267 0 00-3.44706-8.00712 44.93492 44.93492 0 00-4.67485-7.558 44.939 44.939 0 001.30357 8.79087 75.12854 75.12854 0 002.53225 8.3417 76.43112 76.43112 0 003.45286 8.005A45.42366 45.42366 0 00183.67269 371.27329zM181.72446 381.53564a46.41548 46.41548 0 00-2.52244-8.62441 78.16245 78.16245 0 00-3.66819-8.02055 76.86126 76.86126 0 00-4.53576-7.56359 45.92022 45.92022 0 00-5.69265-6.954 45.92123 45.92123 0 002.51664 8.6273 76.952 76.952 0 003.674 8.01766 78.25673 78.25673 0 004.5411 7.56069A46.47416 46.47416 0 00181.72446 381.53564zM180.25014 391.45972a50.84056 50.84056 0 00-3.69227-8.65829 86.15746 86.15746 0 00-4.76535-7.93306 84.64489 84.64489 0 00-5.57808-7.38409 50.27191 50.27191 0 00-6.66142-6.65194 50.26718 50.26718 0 003.68737 8.6618 84.54071 84.54071 0 004.7707 7.92955 86.06127 86.06127 0 005.583 7.38069A50.84293 50.84293 0 00180.25014 391.45972zM179.16992 402.40863a65.55785 65.55785 0 00-5.28607-9.29269q-2.94708-4.39814-6.28916-8.47283-3.33093-4.08384-7.04794-7.85237a64.5419 64.5419 0 00-8.06039-7.02476 64.53445 64.53445 0 005.28116 9.29659q2.94708 4.3979 6.29362 8.46894 3.339 4.0779 7.05284 7.84846A65.479 65.479 0 00179.16992 402.40863zM178.293 413.76218a66.20513 66.20513 0 00-6.25974-8.73492q-3.4065-4.08927-7.17277-7.81564-3.75558-3.73677-7.8629-7.11995a65.20614 65.20614 0 00-8.7844-6.19186 65.20726 65.20726 0 006.25527 8.73927q3.4065 4.08885 7.17679 7.81129 3.76293 3.73 7.86735 7.11554A66.18121 66.18121 0 00178.293 413.76218zM177.75935 421.04211a57.69878 57.69878 0 00-6.801-7.38431 98.30175 98.30175 0 00-7.582-6.351 96.56833 96.56833 0 00-8.17319-5.56905 57.0364 57.0364 0 00-8.96228-4.52589 57.0522 57.0522 0 006.79739 7.38921 96.6385 96.6385 0 007.5856 6.34612 98.37492 98.37492 0 008.1772 5.56409A57.70977 57.70977 0 00177.75935 421.04211zM177.46689 427.123a61.07909 61.07909 0 00-7.94537-6.60625q-4.16751-2.96262-8.58869-5.48178-4.41428-2.53155-9.07552-4.63088a60.36249 60.36249 0 00-9.72509-3.49577 60.37169 60.37169 0 007.9427 6.61154q4.16751 2.96229 8.59137 5.47643 4.419 2.52345 9.07864 4.62559A61.08823 61.08823 0 00177.46689 427.123zM177.69382 431.06723a65.96466 65.96466 0 00-9.29576-5.35428c-3.18939-1.53975-6.44119-2.91164-9.746-4.13976q-4.9566-1.84385-10.08664-3.22059a65.0026 65.0026 0 00-10.54182-1.99437 65.00424 65.00424 0 009.29353 5.36008q4.78474 2.30912 9.74827 4.134c3.30663 1.22332 6.66676 2.303 10.08886 3.21479A65.95545 65.95545 0 00177.69382 431.06723z"/><path fill="#5e7c24" d="M176.09639,430.753c-.89941-1.499-22.083-36.80079-25.50976-45.93946l.85547-.32031c3.39648,9.05957,25.21679,45.42285,25.4375,45.78906Z"/><path fill="#5e7c24" d="M158.36347 365.56946a39.22394 39.22394 0 00-2.10916 7.0694 66.09034 66.09034 0 00-1.078 7.16753 64.77427 64.77427 0 00-.29692 7.24176 38.69368 38.69368 0 00.74452 7.34079 38.72912 38.72912 0 002.11407-7.069 64.88032 64.88032 0 001.07309-7.168 66.08876 66.08876 0 00.292-7.24221A39.18864 39.18864 0 00158.36347 365.56946zM166.41674 376.58067a37.4133 37.4133 0 00-2.73688 6.66543 62.83414 62.83414 0 00-1.71952 6.86081 61.876 61.876 0 00-.94915 7.00877 37.00437 37.00437 0 00.07846 7.206 36.97073 36.97073 0 002.74179-6.66448 61.87573 61.87573 0 001.71461-6.86182 62.93793 62.93793 0 00.94425-7.00965A37.44929 37.44929 0 00166.41674 376.58067zM170.854 389.39968a31.74489 31.74489 0 00-2.32985 6.19548 52.73543 52.73543 0 00-1.30357 6.34193 51.853 51.853 0 00-.52741 6.45272 31.34378 31.34378 0 00.50824 6.60056 31.34628 31.34628 0 002.33475-6.19481 51.76824 51.76824 0 001.29867-6.3426 52.74054 52.74054 0 00.5225-6.45344A31.71449 31.71449 0 00170.854 389.39968zM176.44185 402.195a24.3031 24.3031 0 00-2.36239 5.27241 39.6057 39.6057 0 00-1.341 5.44874 38.87162 38.87162 0 00-.56842 5.58215 24.02057 24.02057 0 00.46232 5.76014 24.00269 24.00269 0 002.36729-5.27158 38.9339 38.9339 0 001.33656-5.44958 39.66762 39.66762 0 00.56352-5.583A24.30226 24.30226 0 00176.44185 402.195zM181.37216 410.19253a21.88015 21.88015 0 00-2.49391 4.62938 37.72722 37.72722 0 00-1.56794 4.80236 43.10657 43.10657 0 00-.94692 4.92484c-.10254.83591-.19661 1.66714-.259 2.51441a18.71258 18.71258 0 01-.27552 2.57461 5.05441 5.05441 0 00.60632-.38274l.49218-.49319a9.10077 9.10077 0 00.86088-1.07676 17.24753 17.24753 0 001.32363-2.30365 25.65283 25.65283 0 001.73691-4.85753 28.753 28.753 0 00.81763-5.05781A19.04062 19.04062 0 00181.37216 410.19253zM153.57494 390.4512a31.4531 31.4531 0 00-5.5549-4.8169 51.4752 51.4752 0 00-6.13981-3.66123 50.57222 50.57222 0 00-6.583-2.78653 31.09314 31.09314 0 00-7.17322-1.61983 31.085 31.085 0 005.55178 4.82242 50.57769 50.57769 0 006.14293 3.65571 51.45432 51.45432 0 006.58563 2.781A31.45067 31.45067 0 00153.57494 390.4512zM159.03131 400.64271a38.74618 38.74618 0 00-6.85134-4.4851 64.51059 64.51059 0 00-7.307-3.27247 63.35575 63.35575 0 00-7.65158-2.35481 38.30415 38.30415 0 00-8.11122-1.13065 38.31309 38.31309 0 006.84866 4.49089 63.36658 63.36658 0 007.3092 3.26668 64.49719 64.49719 0 007.6538 2.349A38.74629 38.74629 0 00159.03131 400.64271zM165.45422 411.971a33.04291 33.04291 0 00-6.17593-4.33024 54.29914 54.29914 0 00-6.64715-3.12351 53.33768 53.33768 0 00-7.00336-2.21026 32.65994 32.65994 0 00-7.4786-.992 32.67111 32.67111 0 006.17369 4.336 53.34571 53.34571 0 006.64938 3.11777 54.30762 54.30762 0 007.00559 2.20452A33.04084 33.04084 0 00165.45422 411.971zM170.5303 420.69033a24.77075 24.77075 0 00-5.42427-3.57285 39.56063 39.56063 0 00-5.81124-2.33658 38.85 38.85 0 00-6.10459-1.4011 24.508 24.508 0 00-6.49513-.15308 24.50643 24.50643 0 005.42249 3.57869 38.848 38.848 0 005.81347 2.33074 39.53966 39.53966 0 006.10593 1.39513A24.78317 24.78317 0 00170.5303 420.69033z"/><path fill="#5e7c24" d="M174.53732 428.51411a32.58029 32.58029 0 00-5.96238-4.5303 53.46986 53.46986 0 00-6.47685-3.34152 52.54041 52.54041 0 00-6.86649-2.442 32.21465 32.21465 0 00-7.38587-1.24183 32.20154 32.20154 0 005.9597 4.536 52.51794 52.51794 0 006.47952 3.336 53.45983 53.45983 0 006.86872 2.43617A32.57949 32.57949 0 00174.53732 428.51411zM151.80192 386.11277a22.93159 22.93159 0 00-.17788-7.3224 34.50321 34.50321 0 00-1.86575-6.66142 33.93683 33.93683 0 00-3.14436-6.16076 22.703 22.703 0 00-4.84916-5.49349 22.68885 22.68885 0 00.16941 7.32552 33.96708 33.96708 0 001.87377 6.6583 34.50588 34.50588 0 003.15283 6.15759A22.93538 22.93538 0 00151.80192 386.11277z"/><path fill="#f9977a" d="M290.10251,100.307l2.054-1.087a5.10493,5.10493,0,0,0,1.6853-1.43472l2.86414-3.791a5.944,5.944,0,0,0,.77836-5.78668,70.34212,70.34212,0,0,1-2.51239-6.8713c-.12154-1.08814-2.40482.3079-1.39477,3.76342s-2.99864,5.15386-2.99864,5.15386-10.688-2.18635-11.86687-6.3424c0,0-2.43087,7.45175,3.06948,15.59709Z"/><path fill="#f9977a" d="M282.81334,90.82741s-.14526,3.198-2.277,2.70137a2.55,2.55,0,0,1-1.86921-2.22545c-.39022-3.26269-.991-11.36535,2.99289-9.37825,0,0,1.986-4.56081,4.19937-1.47016,0,0,1.90882-2.75354,3.76075-.25178,0,0,1.60245-2.22112,3.52228.72921s-.05552,12.57885-2.589,9.42158l-.4338-1.02509a2.18291,2.18291,0,0,1-3.63891.86909S285.1445,93.27232,282.81334,90.82741Z"/><path fill="#dd765e" d="M293.59788,81.97387a14.08834,14.08834,0,0,1,.21679,5.35156,8.11487,8.11487,0,0,1-.88342,2.61182,2.67632,2.67632,0,0,1-1.05249,1.09179,1.23788,1.23788,0,0,1-.9198.083,1.60558,1.60558,0,0,1-.72034-.50537l-.02331-.02686-.03369-.06884c-.16346-.3335-.31311-.67285-.46607-1.01123l.81116-.00733a3.6184,3.6184,0,0,1-.69214,1.08887,2.28148,2.28148,0,0,1-2.54761.63184,4.02172,4.02172,0,0,1-1.11108-.61963l.76294-.19629a4.07913,4.07913,0,0,1-.75635,1.09961,2.42313,2.42313,0,0,1-1.24145.71679,2.09178,2.09178,0,0,1-1.43238-.2622,4.00836,4.00836,0,0,1-1.00757-.82618l.74341-.27832a4.94948,4.94948,0,0,1-.537,1.86914,2.41471,2.41471,0,0,1-.65748.79786,1.63729,1.63729,0,0,1-1.01257.33886,2.325,2.325,0,0,1-1.72595-.84863,2.67532,2.67532,0,0,1-.64441-1.70068,2.83121,2.83121,0,0,0,.86572,1.48193,2.08417,2.08417,0,0,0,1.483.51758,1.29124,1.29124,0,0,0,1.04895-.90186,4.83673,4.83673,0,0,0,.31751-1.59326l.0553-.98486.68811.70654a1.92771,1.92771,0,0,0,1.62317.74121,1.4727,1.4727,0,0,0,.728-.45508,3.15672,3.15672,0,0,0,.54554-.81689l.269-.5874.49426.39111a2.05932,2.05932,0,0,0,1.6521.55811,1.62179,1.62179,0,0,0,.72925-.42725,2.77793,2.77793,0,0,0,.54529-.76758l.44409-.93847.36719.93066c.13623.34521.27575.689.40136,1.03857l-.05676-.09521c.22547.27832.42175.37793.70471.26074a2.03557,2.03557,0,0,0,.79761-.77295,7.56052,7.56052,0,0,0,.94153-2.3667A15.5249,15.5249,0,0,0,293.59788,81.97387Z"/><path fill="#dd765e" d="M281.66 81.925a20.14559 20.14559 0 011.02234 4.39355 19.9109 19.9109 0 01.131 4.50879 19.91537 19.91537 0 01-1.02234-4.39355A20.14745 20.14745 0 01281.66 81.925zM285.85935 80.45482a23.76663 23.76663 0 01.75916 4.84278 23.49352 23.49352 0 01-.13782 4.90039 23.48909 23.48909 0 01-.75916-4.84278A23.763 23.763 0 01285.85935 80.45482zM289.62009 80.20336a20.86194 20.86194 0 01.69849 4.53809 20.63508 20.63508 0 01-.199 4.5874 20.63522 20.63522 0 01-.69848-4.53809A20.86235 20.86235 0 01289.62009 80.20336zM573.74152 430.38179c-35.15808.55786-78.37353-28.32251-88.03625-39.16358-9.66284-10.84082-45.28564-34.83423-63.28894-26.68433s-22.31677 24.97-46.79675 49.1941c-.1604.15869-.31787.301-.47779.457-15.62146-8.29981-28.11462-17.7334-32.77917-22.9668-9.66284-10.84082-45.28552-34.83423-63.28882-26.68433s-22.31677 24.97-46.79675 49.1941c-10.3772 10.26855-19.71118 14.813-27.03113 16.65381z"/><path fill="#935b50" d="M269.7407 416.46605a20.78745 20.78745 0 012.334-.62451 23.87212 23.87212 0 012.38794-.30078 21.57262 21.57262 0 014.83167.19483 17.99974 17.99974 0 014.66076 1.418 15.29916 15.29916 0 012.11731 1.1919c.68042.4458 1.25562.981 1.95118 1.36816a8.73349 8.73349 0 01-2.3678-.47851c-.75012-.22412-1.49231-.42383-2.23011-.61328-1.47692-.377-2.95788-.65577-4.45141-.9126-1.49939-.22754-3.009-.4375-4.54517-.61426-.76684-.09521-1.5415-.16406-2.32092-.27734C271.32725 416.718 270.54209 416.64086 269.7407 416.46605zM259.31705 397.58373a3.42287 3.42287 0 01-1.428-.02637c-.44616-.09082-.87957-.17773-1.29541-.291-.83209-.22266-1.62744-.46729-2.42016-.73-.79279-.25977-1.57514-.55664-2.3714-.87549a14.87577 14.87577 0 01-2.405-1.2168 8.89836 8.89836 0 015.413.19727 10.00865 10.00865 0 012.43775 1.20068 11.49461 11.49461 0 011.06476.83545C258.65275 396.98217 258.93656 397.29467 259.31705 397.58373zM307.55088 396.04613a20.79376 20.79376 0 012.33411-.62451 23.86863 23.86863 0 012.38793-.30078 21.57259 21.57259 0 014.83167.19482 17.99789 17.99789 0 014.66064 1.418 15.30119 15.30119 0 012.11744 1.1919c.68042.4458 1.25549.981 1.95117 1.36816a8.73387 8.73387 0 01-2.3678-.47851c-.75012-.22413-1.49231-.42383-2.2301-.61377-1.47693-.37647-2.958-.65528-4.45142-.91211-1.49939-.22754-3.009-.4375-4.54529-.61426-.76672-.09522-1.54138-.16406-2.3208-.27734C309.13755 396.29809 308.35227 396.22094 307.55088 396.04613zM361.31907 420.907a20.78416 20.78416 0 012.334-.62451 24.01882 24.01882 0 012.38794-.30127 21.63012 21.63012 0 014.83167.19483 18.01976 18.01976 0 014.66076 1.41845 15.24878 15.24878 0 012.11731 1.1919c.68042.44531 1.25562.98047 1.95117 1.36816a8.71573 8.71573 0 01-2.36779-.479c-.75013-.22364-1.49231-.42334-2.23011-.61328-1.47692-.37647-2.95788-.65528-4.45141-.9126-1.49939-.22705-3.009-.437-4.54517-.61377-.76684-.09522-1.54138-.16406-2.32092-.27734C362.90574 421.15893 362.12046 421.08178 361.31907 420.907zM399.64561 393.26342a20.793 20.793 0 012.3341-.62451 24.01028 24.01028 0 012.38794-.30078 21.601 21.601 0 014.83167.19482 17.99937 17.99937 0 014.66076 1.418 15.2991 15.2991 0 012.11731 1.19189c.68042.4458 1.25562.981 1.95117 1.36817a8.7335 8.7335 0 01-2.36779-.47852c-.75013-.22412-1.49231-.42383-2.23011-.61328-1.47692-.37695-2.95788-.65576-4.45141-.9126-1.49939-.227-3.009-.4375-4.54529-.61426-.76672-.09521-1.54138-.16406-2.3208-.27734C401.23228 393.51537 400.44712 393.43822 399.64561 393.26342zM449.21177 385.77172a20.90193 20.90193 0 012.3341-.625c.79-.1167 1.58582-.26318 2.38794-.30078a21.62874 21.62874 0 014.83155.19482 18.03668 18.03668 0 014.66076 1.418 15.30328 15.30328 0 012.11743 1.19238c.68042.44532 1.2555.98047 1.95118 1.36817a8.733 8.733 0 01-2.3678-.479c-.75012-.22363-1.49231-.42334-2.2301-.61328-1.47705-.37646-2.958-.65576-4.45142-.9126-1.49939-.22705-3.009-.437-4.54529-.61376-.76684-.09571-1.54138-.16407-2.3208-.27735C450.79844 386.02318 450.01316 385.946 449.21177 385.77172zM490.99741 415.7434a20.79376 20.79376 0 012.33411-.62451 24.00654 24.00654 0 012.38794-.30127 21.59985 21.59985 0 014.83154.19531 17.9988 17.9988 0 014.66077 1.418 15.301 15.301 0 012.11743 1.19189c.68042.4458 1.25549.981 1.95117 1.36817a8.73444 8.73444 0 01-2.36792-.47852c-.75-.22412-1.49219-.42383-2.23-.61377-1.47705-.37646-2.958-.65527-4.45142-.91211-1.49938-.22754-3.00915-.4375-4.54528-.61426-.76685-.09521-1.54139-.16406-2.3208-.27734C492.58408 415.99535 491.7988 415.9182 490.99741 415.7434zM440.196 406.08471a20.79376 20.79376 0 012.33411-.62451 24.01289 24.01289 0 012.38794-.30079 21.60153 21.60153 0 014.83166.19483 18.03513 18.03513 0 014.66065 1.418 15.25347 15.25347 0 012.11743 1.19238c.68042.44531 1.25549.98047 1.95117 1.36768a8.715 8.715 0 01-2.3678-.47852c-.75012-.22412-1.49231-.42383-2.2301-.61328-1.47693-.377-2.958-.65576-4.45142-.9126-1.49939-.22705-3.009-.4375-4.54528-.61426-.76685-.09521-1.54139-.16406-2.32081-.27734C441.78269 406.33666 440.99741 406.25951 440.196 406.08471zM297.07705 395.94391a1.5009 1.5009 0 000-3 1.5009 1.5009 0 000 3zM333.07705 410.08391a1.5009 1.5009 0 000-3 1.5009 1.5009 0 000 3zM249.55705 421.60391a1.5009 1.5009 0 000-3 1.5009 1.5009 0 000 3zM409.39705 414.04391a1.5009 1.5009 0 000-3 1.5009 1.5009 0 000 3zM488.23705 410.08391a1.5009 1.5009 0 000-3 1.5009 1.5009 0 000 3zM423.79705 380.20391a1.5009 1.5009 0 000-3 1.5009 1.5009 0 000 3z"/><path fill="#efedef" d="M446.46041,103.46314s63.45929-10.753,82.31451,6.408c0,0-8.54377,8.028-7.65993,17.75023s9.72222,14.64843,7.65993,21.02371a13.308,13.308,0,0,1-3.70151,5.30246,23.12316,23.12316,0,0,1-19.68551,5.75522c-17.15877-2.8532-54.30093-8.33271-59.703-3.30286Z"/><path fill="#a2aee6" d="M507.26816 142.13109c-1.13733-2.3208-2.424-4.542-3.76379-6.71435a62.55243 62.55243 0 00-4.43018-6.21094 43.7359 43.7359 0 00-5.307-5.4292 35.79719 35.79719 0 00-6.38184-4.21191 23.244 23.244 0 016.97144 3.457 32.46774 32.46774 0 015.66577 5.40576 41.434 41.434 0 014.3081 6.51221A35.72083 35.72083 0 01507.26816 142.13109zM502.84788 154.51879c-.85267-2.43945-1.86524-4.79834-2.93665-7.11475a62.54777 62.54777 0 00-3.65808-6.69482 43.70567 43.70567 0 00-4.62207-6.02344 35.78545 35.78545 0 00-5.83423-4.94238 23.24736 23.24736 0 016.50964 4.26318 32.48787 32.48787 0 014.98108 6.043 41.44449 41.44449 0 013.501 6.979A35.70943 35.70943 0 01502.84788 154.51879z"/><path fill="#f9977a" d="M328.90772 399.57232l-1.78784 10.23982S315.96754 425.09673 308.008 411.946l2.6283-12.37368zM356.77334 399.68191l-4.1371 21.524s13.66565 5.88337 21.62523-7.26737l-1.00008-13.768z"/><path fill="#8b9d36" d="M375.69659,240.37056l1.78736,161.8897a2.25461,2.25461,0,0,1-2.25118,2.13016h-20.954a2.25461,2.25461,0,0,1-2.25331-2.33118l-5.04271-147.04465L330.491,402.53438a2.25461,2.25461,0,0,1-2.2191,1.856H309.49624a2.2546,2.2546,0,0,1-2.23431-2.55649L321.115,240.37056Z"/><polygon fill="#5e7c24" points="361.538 238.31 362.39 259.063 363.138 279.819 364.473 321.336 365.576 362.859 366.046 383.623 366.41 404.39 365.556 383.637 364.808 362.882 363.475 321.365 362.373 279.842 361.904 259.077 361.538 238.31"/><polygon fill="#5e7c24" points="336.142 238.31 334.173 259.096 332.102 279.871 327.797 321.403 323.261 362.911 320.912 383.656 318.458 404.39 320.425 383.604 322.496 362.83 326.803 321.298 331.34 279.79 333.69 259.044 336.142 238.31"/><path fill="#5e7c24" d="M366.41013 240.37035c.235 1.74365.56787 3.45508.9541 5.14111a30.25029 30.25029 0 001.563 4.90381 14.64843 14.64843 0 002.66113 4.29053 9.63692 9.63692 0 004.29627 2.69678 8.44121 8.44121 0 01-2.58606-.6416 8.63419 8.63419 0 01-2.25806-1.49952 12.71189 12.71189 0 01-3.03259-4.4541 21.39277 21.39277 0 01-1.4071-5.14941A22.46872 22.46872 0 01366.41013 240.37035zM329.78892 243.43041a22.06087 22.06087 0 01-3.09058 7.54395 11.61939 11.61939 0 01-2.82031 3.06738 5.31347 5.31347 0 01-1.92957.89941 3.44186 3.44186 0 01-2.0675-.18652 4.45156 4.45156 0 003.51379-1.32568 15.32429 15.32429 0 002.47-3.00586c.73206-1.09522 1.38477-2.25342 2.02869-3.42383z"/><path fill="#935b50" d="M327.11988 409.81214s9.76527 12.19783 4.35275 19.38728a3.00837 3.00837 0 01-2.4212 1.18232l-48.41341-.26283a1.57835 1.57835 0 01-1.55425-1.764c.27785-2.508 17.69552-6.75173 28.9242-16.40891C308.008 411.946 322.5628 416.12873 327.11988 409.81214zM354.86309 409.81214s-9.76528 12.19783-4.35275 19.38728a3.00835 3.00835 0 002.42119 1.18232l48.41341-.26283a1.57835 1.57835 0 001.55425-1.764c-.27785-2.508-17.69552-6.75173-28.92419-16.40891C373.975 411.946 359.42017 416.12873 354.86309 409.81214z"/><path fill="#f9977a" d="M371.00333,113.05863l-.67115,9.71477a55.811,55.811,0,0,0,.59873,11.79245c.70663,4.91338-.62172,9.21128-3.53313,11.30308a8.25722,8.25722,0,0,1-4.61254,1.46777v9.77257c.5342,7.83251-2.20675,14.32107-5.85484,15.34053-4.22252,1.17974-11.73365-4.38822-14.25784-15.34053V134.25285s-8.21809-1.51408-3.46022-9.62412a34.95694,34.95694,0,0,0,4.86592-15.57109l8.86692-6.70433Z"/><path fill="#1e1d22" d="M350.89121 117.23949a.60058.60058 0 01-.29883-1.12207c3.27637-1.873 6.80469-.08887 6.95313-.01172a.60034.60034 0 01-.54981 1.06739c-.03027-.01563-3.10742-1.55371-5.80761-.0127A.59625.59625 0 01350.89121 117.23949zM362.78574 117.23949a.60058.60058 0 01-.29883-1.12207c3.27637-1.873 6.80469-.08887 6.95313-.01172a.60034.60034 0 01-.54981 1.06739c-.03027-.01563-3.10742-1.55371-5.80761-.0127A.59625.59625 0 01362.78574 117.23949zM357.27048 121.58764c-1.158-.104-2.17944-.24659-3.21167-.2627a11.79142 11.79142 0 00-1.5404.04492c-.52612.03077-1.0354.14795-1.62781.21778a3.4435 3.4435 0 011.44885-.97754 4.62521 4.62521 0 011.74451-.28418 5.352 5.352 0 011.71655.33935A3.98537 3.98537 0 01357.27048 121.58764zM369.16514 121.58764c-1.15808-.104-2.17957-.24659-3.21167-.2627a11.7903 11.7903 0 00-1.54041.04492c-.52612.03077-1.03552.14795-1.62781.21778a3.44385 3.44385 0 011.44873-.97754 4.62521 4.62521 0 011.74451-.28418 5.35288 5.35288 0 011.71668.33935A3.98748 3.98748 0 01369.16514 121.58764z"/><path fill="#dd765e" d="M361.27134 121.58764a11.9905 11.9905 0 011.56543 2.29834 14.07982 14.07982 0 011.07861 2.57861 7.06962 7.06962 0 01.30872 2.86279 2.52106 2.52106 0 01-.61682 1.40283 1.69341 1.69341 0 01-1.36268.49463 1.79915 1.79915 0 00.97413-.79492 2.35064 2.35064 0 00.22692-1.1582 10.29661 10.29661 0 00-.48913-2.52539C362.4614 125.04613 361.79233 123.37475 361.27134 121.58764zM362.78525 147.33672s-6.488-.33137-9.62382-3.30153c0 0 4.00091 7.95124 9.62382 9.03257z"/><path fill="#1e1d22" d="M375.76118,110.139s-.10813-4.43345-7.89369-6.37984-9.29942-6.2717-13.78693-5.08224a14.74528,14.74528,0,0,0-7.299,5.08224s-14.09342-2.15622-7.263,20.33219c0,0,5.10031,5.94408,5.641.64558s1.73012-14.38167,4.64971-16.76059,7.46116,0,9.19129,1.2976,12.5434,8.975,13.62473,8.32622S378.032,115.65381,375.76118,110.139Z"/><path fill="#f9977a" d="M428.64259,174.55681l6.6-6.14315a13.587,13.587,0,0,1,3.53137-5.72813c5.88754-4.97357,4.6842-8.76307,4.6842-8.76307s1.27977-1.72961,2.02157.53593-.36205,5.95275-.589,6.42164.84388,12.23708.79386,13.67678-10.202,9.69957-10.202,9.69957Z"/><path fill="#f73c4f" d="M335.58421,151.90526l-20.36841-3.20809-14.0967-10.36112a13.60134,13.60134,0,0,1-5.08886-9.72533l-1.79408-26.84056a2,2,0,0,0-1.80447-1.85746L280.3625,98.75432a1.99591,1.99591,0,0,0-2.18377,1.81947c-.72662,8.68266-3.38217,42.6547-.76047,46.1499,3.00875,4.01121,39.18452,31.92962,40.022,33.56307.40823.7962,1.48806,11.9005,1.01754,16.53715l2.65717,43.54665a69.07184,69.07184,0,0,0,54.58155,0L377.484,190.92S393.5811,215.8212,399.24,214.08c6.24-1.92,41.23116-32.234,41.23116-32.234-3.06223-7.56361-4.87753-8.14069-9.58185-11.44564L402.89659,188.0565s-12.54392-20.97-24.42053-28.92635c-8.54386-5.72366-15.69081-6.94914-15.69081-6.94914.62489,7.42468-5.07562,13.03766-10.39967,12.82431-5.421-.21721-11.17461-6.46555-9.713-13.92878-2.912.42353-2.09672,0-7.35835.79546"/><path fill="#b02336" d="M400.2 190.92016a4.12144 4.12144 0 012.69653-2.86377 3.7239 3.7239 0 01-.98144 1.771A3.80778 3.80778 0 01400.2 190.92016zM318.61741 181.26977a8.716 8.716 0 01.8081-3.00147 8.61136 8.61136 0 011.71887-2.58935 8.61291 8.61291 0 01-.8081 3.001A8.70852 8.70852 0 01318.61741 181.26977zM366.41013 232.66332a45.95306 45.95306 0 01-18.27746-3.35059 38.79446 38.79446 0 01-4.20606-2.105 29.162 29.162 0 01-3.83288-2.73339 26.56626 26.56626 0 01-3.269-3.374 22.50214 22.50214 0 01-2.44336-3.97754 26.59824 26.59824 0 006.19666 6.75391 35.96941 35.96941 0 007.9414 4.51465A55.87182 55.87182 0 00357.277 231.176q2.24507.53247 4.53418.88623C363.33225 232.32836 364.86594 232.51684 366.41013 232.66332z"/><path fill="#f73c4f" d="M446.317,431.88207a1.50039,1.50039,0,0,1-1.5-1.5V96.46117a1.5,1.5,0,1,1,3,0v333.9209A1.50038,1.50038,0,0,1,446.317,431.88207Z"/><path fill="#f9977a" d="M444.20766,165.39742s-3.06945-.90914-2.07535-2.85923a2.55,2.55,0,0,1,2.60928-1.27995c3.2609.40489,11.27067,1.76787,8.38482,5.15788,0,0,3.95027,3.02334.41845,4.42956,0,0,2.21444,2.51433-.6589,3.71113,0,0,1.77119,2.089-1.5539,3.244s-12.19727-3.07528-8.5239-4.77622l1.09928-.17487a2.18292,2.18292,0,0,1,.0304-3.74114S441.2744,167.07308,444.20766,165.39742Z"/><path fill="#dd765e" d="M445.68455,177.04809a10.07133,10.07133,0,0,1-2.9524-1.35889,2.7447,2.7447,0,0,1-1.1123-1.39649,1.22985,1.22985,0,0,1,.25366-1.05029,2.56261,2.56261,0,0,1,.36621-.34717l.39758-.23925.03-.01807.077-.01465,1.094-.207-.18737.78955a3.6547,3.6547,0,0,1-.88953-.93408,2.29007,2.29007,0,0,1,.00037-2.62109,4.26663,4.26663,0,0,1,.86511-.93311l.00745.78809a4.066,4.066,0,0,1-.88331-1,2.40871,2.40871,0,0,1-.39245-1.37549,2.07646,2.07646,0,0,1,.59338-1.32422,4.855,4.855,0,0,1,.50061-.4458l.5409-.3374.09143.78857a5.03623,5.03623,0,0,1-1.69007-.96436,1.89853,1.89853,0,0,1-.6958-1.8999,2.31824,2.31824,0,0,1,1.23755-1.47217,2.67821,2.67821,0,0,1,1.80493-.21679,2.83129,2.83129,0,0,0-1.64624.48437,2.01631,2.01631,0,0,0-.84839,1.31592c-.14392.99512,1.096,1.62744,2.08326,1.92529l.858.25879-.7666.52979-.43225.29883a4.17862,4.17862,0,0,0-.34961.34326,1.21625,1.21625,0,0,0-.31946.75683,1.44828,1.44828,0,0,0,.26245.81446,3.12977,3.12977,0,0,0,.65845.72607l.47339.37451-.466.41358-.371.32959a3.83565,3.83565,0,0,0-.29443.36181,1.39685,1.39685,0,0,0-.268.77881,1.58884,1.58884,0,0,0,.23609.80957,2.8033,2.8033,0,0,0,.6123.71387l.81006.66064-.99744.12891-1.10412.14307.10669-.03272c-.45093.18506-.73633.44238-.68384.769a2.2437,2.2437,0,0,0,.76477,1.12891A12.33775,12.33775,0,0,0,445.68455,177.04809Z"/><path fill="#dd765e" d="M453.12644 166.41625a20.1343 20.1343 0 01-4.51038-.063 19.88013 19.88013 0 01-4.40844-.95605 19.93394 19.93394 0 014.51037.063A20.13653 20.13653 0 01453.12644 166.41625zM453.5449 170.84545a23.72985 23.72985 0 01-4.88355-.42627 23.49011 23.49011 0 01-4.72351-1.31055 23.49043 23.49043 0 014.88342.42627A23.79592 23.79592 0 01453.5449 170.84545zM452.886 174.55688a20.86647 20.86647 0 01-4.57324-.41211 20.62572 20.62572 0 01-4.40527-1.29493 20.59755 20.59755 0 014.57324.41211A20.86526 20.86526 0 01452.886 174.55688z"/><path fill="#1e1d22" d="M353.15488,131.90209a5.67066,5.67066,0,0,0,4.17115-.75293,6.24809,6.24809,0,0,1,2.73681-.90478,5.86485,5.86485,0,0,1,1.53552.08154,5.07534,5.07534,0,0,1,.76246.19238,4.81315,4.81315,0,0,1,.82666.36426l-.77173-.21485c.24633-.00488.49267-.00683.739-.001l-.77222.21484a4.81006,4.81006,0,0,1,.82679-.36377,4.95568,4.95568,0,0,1,.76233-.19433,5.91191,5.91191,0,0,1,1.53613-.08252,6.23845,6.23845,0,0,1,2.73816.90429,5.68717,5.68717,0,0,0,4.16968.75684,4.274,4.274,0,0,1-2.22364,1.41455,5.17292,5.17292,0,0,1-2.84924-.043,5.50757,5.50757,0,0,0-1.89978-.22754,5.06858,5.06858,0,0,0-.85047.14649c-.137.03564-.2666.08642-.39416.1289a2.578,2.578,0,0,0-.271.12061l-.77258.21484c-.24634.00635-.49268.0044-.739-.001l-.7721-.21485a2.85547,2.85547,0,0,0-.27124-.1206c-.12756-.042-.25647-.09619-.39392-.13037a5.17453,5.17453,0,0,0-.85107-.14747,5.47636,5.47636,0,0,0-1.90113.22706,5.17155,5.17155,0,0,1-2.84753.04345A4.28084,4.28084,0,0,1,353.15488,131.90209Z"/><path fill="#dd2f22" d="M357.97334,135.57982s1.29994,4.69909,8.00182,1.89954"/><polygon fill="#f73c4f" points="342.673 151.077 353.161 164.993 347.477 170.32 335.314 151.872 342.673 151.077"/><polygon fill="#f73c4f" points="362.785 152.181 353.161 164.993 358.727 170.32 369.296 154.84 362.785 152.181"/><polygon fill="#8b9d36" points="347.477 170.32 353.161 175.808 358.727 170.32 353.161 164.993 347.477 170.32"/><path fill="#b02336" d="M335.31418,151.87182q3.23254,4.48608,6.35181,9.04589c2.10144,3.0254,4.15735,6.08106,6.19544,9.14844l-.6991-.08252c1.88965-1.78076,3.75232-3.59082,5.66431-5.34765l.00586-.00537a.48737.48737,0,0,1,.66748.00878l5.531,5.3628-.667.06982c1.76233-2.57959,3.60156-5.10644,5.40613-7.65674,1.80676-2.54931,3.65942-5.06689,5.52624-7.5747-1.65613,2.65185-3.32654,5.29394-5.043,7.90429-1.7185,2.60938-3.40246,5.24219-5.1632,7.82276a.43921.43921,0,0,1-.611.11523.49656.49656,0,0,1-.05627-.04541l-5.59985-5.291.673.0039c-1.87744,1.79395-3.80432,3.53516-5.7041,5.30518a.45875.45875,0,0,1-.649-.01856.49257.49257,0,0,1-.05029-.064c-2.01624-3.08154-4.01453-6.17529-5.96741-9.29883Q338.1602,156.61229,335.31418,151.87182Z"/><polygon fill="#8b9d36" points="351.086 173.804 344.953 219.7 350.396 228.82 355.354 219.94 355.193 173.804 351.086 173.804"/><path fill="#935b50" d="M591.6602,432.38975H129.12406a1,1,0,1,1,0-2H591.6602a1,1,0,0,1,0,2Z"/><path fill="#ffca85" d="M404.4693 75.611a10.00515 10.00515 0 0110-10.004 9.99572 9.99572 0 01-10-9.996 9.999 9.999 0 01-9.996 10 9.99893 9.99893 0 019.996 10zM208.47867 166.828a10.00514 10.00514 0 0110-10.004 9.99574 9.99574 0 01-10-9.996 9.999 9.999 0 01-9.996 10 9.99893 9.99893 0 019.996 10zM249.39506 273.6342a10.00514 10.00514 0 0110-10.004 9.99571 9.99571 0 01-10-9.996 9.999 9.999 0 01-9.996 10 9.99893 9.99893 0 019.996 10zM282.81135 202.86446a10.00514 10.00514 0 0110-10.004 9.99571 9.99571 0 01-10-9.996 9.999 9.999 0 01-9.996 10 9.99893 9.99893 0 019.996 10zM474.54988 209.545a10.00514 10.00514 0 0110-10.004 9.99572 9.99572 0 01-10-9.996 9.999 9.999 0 01-9.996 10 9.99892 9.99892 0 019.996 10zM440.19407 293.19108a10.00515 10.00515 0 0110-10.004 9.99572 9.99572 0 01-10-9.996 9.999 9.999 0 01-9.996 10 9.99893 9.99893 0 019.996 10zM269.5399 70.68274a10.00515 10.00515 0 0110-10.004 9.99572 9.99572 0 01-10-9.996 9.999 9.999 0 01-9.996 10 9.99893 9.99893 0 019.996 10zM288.04205 256.6342c3.86072 0 3.86711-6 0-6-3.86071 0-3.86711 6 0 6zM258.75617 131.48083c3.86072 0 3.86711-6 0-6-3.86071 0-3.8671 6 0 6zM334.38138 87.766c3.86071 0 3.8671-6 0-6-3.86072 0-3.86711 6 0 6zM512.19617 92.60083c3.86072 0 3.86711-6 0-6-3.86071 0-3.8671 6 0 6zM394.11617 144.44083c3.86072 0 3.86711-6 0-6-3.86071 0-3.8671 6 0 6zM447.39617 79.64083c3.86072 0 3.86711-6 0-6-3.86071 0-3.8671 6 0 6zM228.20233 217.26877c3.86071 0 3.86711-6 0-6-3.86071 0-3.86711 6 0 6zM430.88931 243.37056c3.86071 0 3.8671-6 0-6-3.86072 0-3.86711 6 0 6zM516.184 204.92083c3.86071 0 3.86711-6 0-6-3.86071 0-3.86711 6 0 6z"/></svg>